<mxfile host="app.diagrams.net" modified="2023-11-19T15:46:35.139Z" agent="Mozilla/5.0 (Windows NT 10.0; Win64; x64) AppleWebKit/537.36 (KHTML, like Gecko) Chrome/118.0.0.0 Safari/537.36" etag="AuCRTJx7OTUovCyS5Kho" version="22.1.3" type="github">
  <diagram name="第 1 页" id="aB_gwyi6e6d-phMNeOCA">
    <mxGraphModel dx="1562" dy="822" grid="1" gridSize="10" guides="1" tooltips="1" connect="1" arrows="1" fold="1" page="1" pageScale="1" pageWidth="827" pageHeight="1169" math="0" shadow="0">
      <root>
        <mxCell id="0" />
        <mxCell id="1" parent="0" />
        <mxCell id="-_NfIEieIwhwRVeMkYYe-15" style="edgeStyle=orthogonalEdgeStyle;rounded=0;orthogonalLoop=1;jettySize=auto;html=1;entryX=0.5;entryY=0;entryDx=0;entryDy=0;" edge="1" parent="1" source="-_NfIEieIwhwRVeMkYYe-1" target="-_NfIEieIwhwRVeMkYYe-12">
          <mxGeometry relative="1" as="geometry" />
        </mxCell>
        <mxCell id="-_NfIEieIwhwRVeMkYYe-1" value="class 1&lt;br&gt;spec" style="rounded=1;whiteSpace=wrap;html=1;fillColor=#E51400;strokeColor=#B20000;fontColor=#ffffff;" vertex="1" parent="1">
          <mxGeometry x="110" y="304.5" width="60" height="40" as="geometry" />
        </mxCell>
        <mxCell id="-_NfIEieIwhwRVeMkYYe-16" value="" style="edgeStyle=orthogonalEdgeStyle;rounded=0;orthogonalLoop=1;jettySize=auto;html=1;" edge="1" parent="1" source="-_NfIEieIwhwRVeMkYYe-5" target="-_NfIEieIwhwRVeMkYYe-12">
          <mxGeometry relative="1" as="geometry" />
        </mxCell>
        <mxCell id="-_NfIEieIwhwRVeMkYYe-5" value="class 2&lt;br&gt;spec" style="rounded=1;whiteSpace=wrap;html=1;fillColor=#348c75;strokeColor=#005700;fontColor=#ffffff;" vertex="1" parent="1">
          <mxGeometry x="110" y="364.5" width="60" height="40" as="geometry" />
        </mxCell>
        <mxCell id="-_NfIEieIwhwRVeMkYYe-17" style="edgeStyle=orthogonalEdgeStyle;rounded=0;orthogonalLoop=1;jettySize=auto;html=1;entryX=0.5;entryY=1;entryDx=0;entryDy=0;" edge="1" parent="1" source="-_NfIEieIwhwRVeMkYYe-6" target="-_NfIEieIwhwRVeMkYYe-12">
          <mxGeometry relative="1" as="geometry" />
        </mxCell>
        <mxCell id="-_NfIEieIwhwRVeMkYYe-6" value="class ?&lt;br&gt;spec" style="rounded=1;whiteSpace=wrap;html=1;fillColor=#7B7B7B;strokeColor=#252522;" vertex="1" parent="1">
          <mxGeometry x="110" y="424.5" width="60" height="40" as="geometry" />
        </mxCell>
        <mxCell id="-_NfIEieIwhwRVeMkYYe-7" value="" style="shape=curlyBracket;whiteSpace=wrap;html=1;rounded=1;labelPosition=left;verticalLabelPosition=middle;align=right;verticalAlign=middle;" vertex="1" parent="1">
          <mxGeometry x="70" y="314.5" width="20" height="90" as="geometry" />
        </mxCell>
        <mxCell id="-_NfIEieIwhwRVeMkYYe-8" value="support&lt;br&gt;set" style="text;html=1;strokeColor=none;fillColor=none;align=center;verticalAlign=middle;whiteSpace=wrap;rounded=0;" vertex="1" parent="1">
          <mxGeometry x="20" y="354.5" width="60" height="30" as="geometry" />
        </mxCell>
        <mxCell id="-_NfIEieIwhwRVeMkYYe-10" value="query" style="text;html=1;strokeColor=none;fillColor=none;align=center;verticalAlign=middle;whiteSpace=wrap;rounded=0;" vertex="1" parent="1">
          <mxGeometry x="20" y="429.5" width="60" height="30" as="geometry" />
        </mxCell>
        <mxCell id="-_NfIEieIwhwRVeMkYYe-19" value="" style="edgeStyle=orthogonalEdgeStyle;rounded=0;orthogonalLoop=1;jettySize=auto;html=1;" edge="1" parent="1" source="-_NfIEieIwhwRVeMkYYe-12" target="-_NfIEieIwhwRVeMkYYe-14">
          <mxGeometry relative="1" as="geometry" />
        </mxCell>
        <mxCell id="-_NfIEieIwhwRVeMkYYe-12" value="Embedding" style="rounded=1;whiteSpace=wrap;html=1;fillColor=#dae8fc;strokeColor=#6c8ebf;" vertex="1" parent="1">
          <mxGeometry x="200" y="364.5" width="80" height="40" as="geometry" />
        </mxCell>
        <mxCell id="-_NfIEieIwhwRVeMkYYe-13" value="" style="shape=image;verticalLabelPosition=bottom;labelBackgroundColor=default;verticalAlign=top;aspect=fixed;imageAspect=0;image=data:image/png,iVBORw0KGgoAAAANSUhEUgAAAOgAAAFkCAYAAAAqrHdvAAAgAElEQVR4Ae2dh1sTyf/Hf/8HXEIVkKoUG/b6tTfs3VOPO+tZznp6dg5FsaCg2EHv7L3rnb2AoqKC5VTEhkqRLonv3/MJ7rIJSUjZwGYz+zzzZDM7OzvznnntlJ3yf2AHU4ApIFkF/k+yIWMBYwowBcAAZZmAKSBhBRigEk4cFjSmAAOU5QGmgIQVYIBKOHFY0JgCDFCWB5gCElaAAQqg9N8r+PzTZGaYBpLIA6UXLvGvDAYogJITZ5DTYwAzTANJ5IHioycYoLwCDFBJZEr2gqwqIBigQjr1AFp2KxXMMA1qMw8IX1AMUCOA5s1dpHOV/WUK2F6BvAVL+ZoMA1RHb2EblAGqIw77WysKMECNyMwANSIOu1QrCjBAjcjMADUiDrtUKwowQI3IzAA1Ig67VCsKMECNyCwmoHv27Ma6dWtkZZYtW4KcnBwjCrJL1irAADWioFiA/vH7XLRpEIT5HTrJxvQIbgiFwgkPHjwwoqB5l7ZtTcTMab/KyowZNQJpaXfNE0LgmgEqEEP3VAxACc5OIcF4OX4qPv86SxZmaeeuCPf1Qbi/r2iArvwzCi2DAhHXoxc29OgtCzOyaVO4KJ2xe3eybtYy+T8D1IhU1gIqRziXfIfzcHhrtAz0FwVQgrN1gyA8/WWKLF5g9CKO7d4Ljet7o09QEA4c2G8klxm/xAA1oo81gGrgDJVXyUlwNvetD4LzYsv2ogC6Imq5bOHc36wVBgUHM0CNMGbVJUsBlSucVK3l4BQDUIKzTUN5lpwEJ2nEALUKQeM3WwLo1MkT0SLQH8cGDceF4aNlYeZ16KRpcwrhtBZQR4CTAWqcL6uvmgvo69ev4a50RkcfH3SuX18WhuIS4OaiVXJSxrMG0NkzZyDU1xsJPfsgOWKALMy8Dh01bU6u5OQ0YiWo1Rga9sBcQLOyshDm7sYPbhbORLDX82dd+sDHRaEBkst03K+lnUSuCicM8g/AqKAGsjEBrkpsbxxeTScGqGG+rL7CAB0AWwDqqfwBWd0iZPUiC3JzwYHv7U7uBUa/DFCrMTTsAQOUAWpqzYcBapgjm11hgDJAGaA2w8t6jxmgDFAGqPUc2cwHBigDlAFqM7ys95gBygBlgFrPkc18YIAaBvR48zYI8PLAo0cPzdaf9eKaLhkbi2tEKwaofkAJzjZ+vvh9ziwj6hm+5CiAnmreFs18fXD8+DHDYtRwhQFqRCAGaHVArYWT5HYEQAnOjv5+mDZ5Ir59+2Yklxm/xAA1og8DVBvQY+HWlZyc1HIHVCw4SS8GKJdr9PwyQKsA5eCcP2e2HqXMs5IzoGLCSaoyQI3kLQZoJaDeLj9o2pxiwElyyxXQPU1aiFKtFWZJBqhQDZ1zSwCldXp+bRgiGzMhqCHcFM4QC065AhroqkQb3/pWtzl1siArQXUFEf43F9DCwkJs27ZVdubgwQNCWaw+p5dYhK8vBvn5y8ZQrWBC5DirOoT0CctKUH2qfLczF1AjXrFLAgUuXDiPs2fPyMpcvHhBdDhJMgaoIOPonjJAdRVh/2tbAQaoEcUZoEbEYZdqRQEGqBGZ7QNQNd5t7QdPzwgkZquNxIZdskcFGKBGUs0+AAWK0vZh7dq/cbfASGQc+pL9vsQYoEYyrr0AaiQK7NJ3Bez1JcYANZKFGaBGxGGXakUBBqgRme0DUPutvhmRnl36rgAD1EhWsA9AWRvUSBJ+v2S/LzEGqJHUtRdAjUSBXfquAGuDyjArMEBlmKh2FiWHKkG/qc37TsgAtbPcLMPgOhSgZVeu4/PEGSjctA1lN25DXVhoNEntA1D7bV8ZFV/Ui/arkUMBqvqQU227gdwpM1G4ZSfKbqdCXVyslS3sA1DWSaSVaAb+sDaoAWGkZE1rw3wcNq4apPzSir0GInfaHBRuT0J5ahqKDx/n3ebNXWRVVGKio9C8UahsTHhYCLzquWPXrp1W6cJuNq6AQ5WgJEX+kmgeOh7MHgP02/UcyNtbA2j08mVoF9wAV0eOxZ0xP9u9SfkxEiPCw+Hr7oq4uHXGc5gZV9evjYWbqwLubkrZGJr7+vO4sWaooO3U4QAtiI3joasJ0M+Rk3m3lgLKwfnslyn4/Ossuzcfp8zE+NZt8L8Af4wODMKmTfHaOcrCfwRn86AAPBg3Ae8mzZCFmdq2HULqeWBi5DgLVXGQ+aDqwiKUnDqH3BnzeOBqgpM6koqPnuLdWwKonOGkxbHGBjUQBVAOzozISXb/AuNewjPadUA7fz/MCmyIqRPHM0D1KfCtrAxFyXuREzGUB60mMHP6DEHp+X803lnTSSR3OGnvSzEAXbemsuSUI5wnmrfB/AYhDFBdOKkzqPTfK/g06mfTwewxAJ9GRuLrk2e8d5YC6ghwigGoXOFs7+8HgpM0YoDyOFWeqHPzkL8oqhqYHweNwpeNifia+RRf1sVXu547cz7UeXlavlkC6MI/5iPAyxNT2rTFzPYdZWH6hoWhk78fqFpLmY4z1pSgjgAnA1QLJ6Ds2k18HPKjNny9BqFw83atQQklZy5oufmyYTO+fa3Q8Q2wBNCePbthUoNgrGoSLhvj56rE9sbNeTCtBXTLls3w8nDFoPBwjGjVShamY3ADzdrBXMnJacRKUEAD15eNW7Sgo7YmdexUZL+pBl7Fq6xKt70Ho+T0+WrXOQtLAO3Xry9OtOlULSw1tn0NfeqRgH1jDzfsbtpCNEBnzpyB8UENsadlO9mYDl71sDQ4tJpGDg+oKucTcqfN1Qai71AUHzkBQ2Nvv6nU+Bw5BV8fZ3Is6v1lgFZ+HxYb0DlzZmFd0xbaaSaBF5E1L9GBvn5YGdKIASokiQD7OHSMVkJ/njgdFVnZQmd6z7+Vluq1F1oyQBmgpkLLABWSA6DsVmq1zycFK9eCPq2IdTBAGaAMUAtoKjl7ATm9qobh0XnJ0ZOir+zNAGWAMkDNBLT46AmtKm1OxDDNTBQzvTHJOQOUAcoANQmVSkfC2SUkHLU/hQMLzPDKJKcMUAYoA9QkVKA19YtE+zQiUu8nFBO9M8kZA9QwoEfCW6NJfW9YsvMZ68U1KftpHNnFbJbScxe1qrU0hE/19p3psbTQJQNUP6AEZ3O/+ohausQiZR0F0OPN26CVX33ErV1jkU50k+QB1fTWCjqEPo0mON9bHGFzbmSAVgfUWjhJf0cAlOBs4++L3+fMMifLVXMraUDpO6dwJsrHwaNN+sZZLZYWWjBAtQEVA05KCrkDKhacpJVkAaX1gz4OEQxCiBiGr5lPLETNstsYoFWAbm7UzKpqrTAF5AyomHBKFlAa5fN50oyqdmevQShPvStM41o5Z4BWAhrm7orGPl4Wtzl1E0uugNJYXDGqtUK9JFeC0lzOgqhVVXD2GKBZDUEY6No6twRQms3irnRGC08P2RiKz+9z54gmuxwBjajvizDvela3OXVFlhygxfsOa8H5JX6Lbphr7b8lgL5+/RqZmZmyMs+eVU1iF0N8ApQW06rn8oNsjFLhhAm/RIohj5YfkgK0PP2R1hC+vHmL8U2l0gpwbf6xBNDaDJ+9Pqu8vBxFRUWyM7ZID8kAqs7Lx6cRP/Gl56fRv0D9xfjK77YQROinwwJaUYDsh9dw6u8ExPwxFZNW/4u6TQlhqjjWuSQApXmbVFryw6p6DcLXjNrtsdWX7I4JaCkeHkvAxpif0d7LCQqFC3pveIG6q8foSxkp2FWg4HU6rp3cg00xS7ErpcQmgZIEoLpjbIsPHrVJZM311DEB/a5S+W0saqWAwq0jYh5VXw7GXC1l5b7oHg7ELsb0fiFwUzhB4d4DG17Y5hVW54BWZL0GLXXJlZ75C6NEnzZmaeZwZEDVWZvQ39MJrq0WIqXcUgXlfV/59XkId3WCW+cVsNU7rE4B/VZRgdxfZ/Fw0sAE3ZX16jKJHRdQNT4kDYaX4gc0nnUJ4k2Br8vUFPvZamRt7gsPhQKtF6fAVu+wOgW0aM9+Hk4qQcuu3hBbRav8c1xAc7F/jA8UygBMPqW945tVgsrpZvV77BrqAYVLGGZftt0rrM4ArXidjZw+g3lAC2LE24RHrHxgO0DVKC8TtutUKCksgtBGKw7qD7h1IQW5New/rM5Nxfmb7y3r0KkoQl5+SeW9RccxKcgZCr8fcSBfKyTsD6dA3j6M8XOCsuEknLbhO6xOAKXRQnmz/+DhpC0Ba9pMl9OlNn9FA1T9AakHExCzYArGDvwfWgb7Yci2tyDe1J+uI+7HcHi7+GDkbv1T6MruLEenevXRa8V15BmAVJ1/Ayt7+6Jex+VINeOFXvrqLNZO6o6W4a3wv47haD04BpeOTkeYixO8hu7AewPPq810MOlZ+Rm497RmUoqepCGzwCQfjToqOjkRDZTO8PvpIGz5DqsTQDVrCgmWWSy9fM2oGHV1UTRAUYJP7z/g/cM1iPCkXr9uiHuugvrjv1jSxRs0CkWhUKJP/CsDUS3Hi30/I9zTF31W3aqeIfJvIzbCFx7NIrHvhamtoQq8OjkPXQN80WPhKbzSLHJYisxNAxDm6wmlwhV9E15ZVhobiIUxa3XeY1zcvwWxi6chckg3tG0+GrveVL4d8tO2Y0oXf3iFTcJx7cX/v3tZhtRlbeAZMgSJ6YYhLbofjyEh7ui88p6xoOhcU+Hj7R2YP6IDWoQ3Q3h4J4zfnorTM0PgovDE8OQczYtW5ybR/tY6oOqCL6BpY1LstdVVVTxAK31WvdqIPm5OcOsUjfTiTGyfNA6x15/j4M9+cKnfBwlPjHXVl+HpnrFo6uGHfmtTwBcChXcQN8Af7o1GIynT1KJThawjk9DS0xVt513Qqjqrs+LR190JCrdOWJVhsNKtK5XV/9UFWcjIfIwrUV3hoXCCW481eKZSI+9GNHr7O2uGBircI5D4zkCRXpKOLSMawiN0GLY9qv5NsvjhZgwPcUWjH3cgs+YVVyvjo/6AyzH9EerfHtP3piNfDajzbyO6dyiC/Jyh8OyLxNcGwmO1IpUe1DqgtM0CB2dOv+GgaWVSPcQGNHfvSNRXKNBy4WWkxI7D7BPvK6u5BS+R8arAhDdxKTKTRqORewAGxt1FYdE9JAwOgnvIMGzRkykN6VqWvha9/Zzh2Xk5UnUKnIr0P9HRzQmubRbjjqmFsaEHmW2vRnZiX7grlOgQ/QAlz5MxecxSnElJxHBfZ/j03Yinxt5hxQ+waUgQPMJGYmdGFYUlj7dhZKgLQoYn4mF1dvWHUv0eZ+e2g7d7OKafqkynSocqPI/rpvn+6dYtFkbfqfp9Nsu2VgGt+O8lcgS7Vhf9fcCswNa2Y3EBLcSxCX5QuoRg6oZoTIm6Ur2qalIES/B42zCEuvujTZtAuDXoj433iky6U+NIlYn4vl5QuDbDnMu6A/jUeJ0YAU/FD2g653IdfF7Jw8FxPlC6hmPBlbuI+2UaDmVTCVWOD+k38fijMTq/S1B0FxsGBcKj8Y9IyixFaeYOjGnkggYD45BmskzlyNzcDwFKV7RffF1nmGMF7v/ZDm4KJdpHpRnu2DM9RYy6rDVAdTuGPo2ZgG/ltf6KNiqG7kVRAS09jxmhP0Dp3w1DJ0Xhmi4bug839r84Bcs6uWjare2X3oZOIWjsTuSfmoRQFyfUi4jHS938XvEYsV1doVAG4dcz5vhq9JGmXyw+ickNneESOhkbV03Gsku5JtQq9HhfkIJ1/f3h0agzuoS5ICBiNVL4NoEe9zpWqmebMMDPGS7NZuCi7n3q10js7655wc2/Yfv8W2uA0jdOvmpL3zxv3NaRRXp/xQS0/ObvaO7qBIVnS/x+UW9Ph2kClD7GjlHBcA8egIWLBiPEIwSjd2agqkJnxBt1Dv4a5Q2Fwh2Dtlf2Ile5ViPn6M8IcXGC0n8sDtmya7LqoVpnpZd/Q2MXZ/j3GobJf16uamdruTLtT0nqUnRwow659ohOM0md7x7n48xU6gByR5/4/6p1klVkxKKbhxNcQqfhgjnemhbsaq5qBVAaMfT5p8k8oHnzl0hmOF81RQQW4gFagXt/ttW0W3yH7YCm1iZ4jsmnZU+xZ1wYPBr0Q1waFcFFuJ8wEMEejfDTnmc1V0mLjmI8dbi4tUf0A+0OIHXuOcxtV08TRu/hu5Bj274PPVEux62F4XCleaJt5uKCFS+IsqdJGNvYFUERv2FmX394Nh+PAy+146snABordc4ejPJ1gqLeAGzX7ZBS5+Do+IZwUTgjcMJRnaqvIR+ts68VQEtOnuXhpFK04mWWdaGupbtFA1T1FGu7KzVVx0knLMx5FS+wf0JTeAZFYG2qsN5ViLtx/dDAsykm7H9htE2kehqL7ppSpT+2fxAQqH6DQ9OHY8zQxnBVuKLf5izLqpbWpEtFOlZ0JI18MCwp2+Lnl7/Yi/HhbgjsF1tZrc2/hVV9feHZcjKOZNUMadHRn+CvdILb/6LxUMu5GrnnZqGttwIKhTd+3JdrTWxNvtfmgNJmRsJ5ngWrpDdiyJBaYgGqfr1ZM/DcJWwazlvStFNl4ejUcNQL6IVVt/QBXoDbsX0Q4BmOX49kGYRUlRmLrgSoW3usTP+e+9S5uL5yGMZuOIBlHZSazyurMytQmLoZ648Ley8NqSSOverZWvRwd4IyZBJOCd8/Znhf8eoQJrd0R0CfGAhlokEcMb194dV2Ok680W14Cx+gQubq/2lqER5DduKT4JIq+wCmjhyFwU0V+ktXgVsxT20OaPG+Q1WlZ+/BUL3/IGb4beqXOICqkbN7GLwVzgiZdham9vILI1Z2dyW6NeqBFTeMdJqo83BzZU806rYCdw19Di05i2kh9E3RGUERC5B0MBkrIzuh+6xTePdhJ4bQIAqfIYg7EYuJkzfjUS20sSrjqUb2ln6a3uOwGefN6vTidFJlH8eMNh7w7x2Nm/TBUudQ513Dip714dNhFs4aHB5VgUcxHSs/oXRZhczvLKtzryJ6+I/YuH8h2tF37B5r8ayiALcT1+OUjdsCNgVUXVKiNSjhS8JWHdmk/VccQPNxOLI+lIp6GL3X8mpRaYkptJTCuLNyZG4fhhAqRWn0kkcw+i8/h3cqQP1hRyWgCheEDV2H2/oKalsll/oj9oysB4WyIaadtegVhrsxXRDWKwrXDY2FpGGVuVcQ1SMEvdamG4xJ5RA+JyhcAtF/SRIO7Y5GZJeumHPmHd5v7w8PhTP8RsXj1NoJmLzlYc3tfoNPMu2CTQEt3i9YAKzvUKhzrei9NC0+oroSB1BRgySCZ+V4l3IUu5MP4sozYV2yGE/P7cHfZx9qjSwS4YE1e5F/CJHUeeU7GvstfjHU9HL6HozSEuM93uWPsWVYA01nFb3EPEIjsPz8W6igxputVMrTiy0Ew+NSLPyOXbMcQhc2A5TWthXufl2YsE34XLs4lyegdiF93Qay7A1SjiUj+fAVPBd+ry7KwNndf+FchpGmhsghtxmgxYeOVbU9+wyG6tNnkYNue++EgFLvc+mFS8wwDWo1DwjHDtDeuNzxf9yJJb/fvn7V6rn9ErfZEm/q/B5dQIVisfPKVeeZDrWng2iAlp77p6r07DUQqvfSHRBv7C3AAK29zMdAr1lrUQClMbefJ0zjAS1YafneiMbgqY1rZdduInfaHGaYBpLIA8J50xZXcctT03g46a1Y8fxFbbDEnsEUcCgFLAZUuAA1jbllB1OAKSC+AhYBqlkITLCUSXnaffFDxnxkCjAFYBGghZu389Xbz79MtYsZKyytmQL2qIDZgNKg+I+DRvGAlhw9aY/xZmFmCtiFAmYDWnruIg9nTsQwqAtNXl/CLgRhgWQKSEkBswHNnTaXB/TL2o1SigsLC1NAdgqYBWjFqyweTvq08vWJuDsyy05dFiGmgJUKmAVo4ZadPKA0SIEGK7CDKcAUsJ0CJgNK6w0JZ63QIHl2MAWYArZVwGRAy67f4kvPnF6DQFvZs4MpwBSwrQImA5q/dAUPKJ2zgynAFLC9AiYBqi4q1tpCsOxmiu1Dxp7AFGAKmDaSqPR81bSyj4NG49tXrXUKmYxMAaaAjRQwqQTNW7CMr96yb582SgnmLVNAjwI1AqouKAB1CnETbcvvmrPnop4nMiumAFPAZAVqBLTk9HkeTvrM8k1lbEFgk5/LHDIFmAImKFAjoPkLo3hAv6xLMMFL5oQpwBQQSwGjgH4rKUVOnyE8oGW3U8V6LvOHKcAUMEEBo4DSWj1c25N2yZb6Pp8mxJc5YQrYlQJGAS1YHccDmr9spV1FjAWWKSAHBQwC+k2lxschY3hASy/8K4f4sjgwBexKAYOA0lQyvnrbcyDUBV/sKmIssEwBOShgENCiv/bzgOZOnyuHuLI4MAXsTgGDgObNms8DWpT0t91FzNwAv/+Sh6cf3zHDNKjzPJBXUrWMkF5A1cXFWqOHvj7KMDe/25372ceSELJiOjNMgzrPA8kpl3h+9AJaduM2X3p+HDASNFlb7gcDlL2cpPKCrhHQws07eEAdZe6nLqCNY2aCGaZBbeUB4cuhRkBzp8zkAS0+UrVXoZxLUSGg8VdPyzmqLG4SVGDCvk181doooJrJ2T0H8oB+ff6fBKMjfpAYoOJrynw0XQGTAS1LucvDqWl/qtSmP8WOXTJA7TjxZBB0kwEt3J7MA5r/xzIZRN20KDBATdOJubKNAiYDmjdrAQ9o8b5DtgmNBH1lgEowURwoSCYBSpOxab8Vbohf+YOHDiORWIB++vQJGRmPZWcKCwsdJi/URURNArTixSsezpyeA0HzQR3lEAPQzMwM+AX6IrBxCIKayMP4hwRCoXDCkSOHRcsKS6OWoVX7NrIyAUH+2Llzh8UamQRoyZkLPKC0tYMjHdYCSnD6B/mj1fSf0HtnrCzM/1b+Di9/H3gHB+DkSXE+ty1YuACBzcLQfvF0dFw2UxYmpNf/4Orhgqio5RYjYxKgtKQJV70tiN1g8cPs8UZrAJUznD692yOwZWNRAOXg7B6/XBYvMHoRNx0eAZ/gAHi1aYw1a2ItzvomASocoFBy4ozFD7PHGy0FlNqbciw56/l5g+AMmjRUFEDlDGfATwPg3b6ZbQHVdBAJ1h/6mvnEHjmzOMyWAOoIcIoBqGzhDAkAwUka2RzQiqxsvnpL1VxH6iAiqs0FlIdzRqRsqmvU5hSWnJTxrAXUEeCsFUBLL13jAf00bqLFJZG93mguoApXBVy83ODm5yUbo3BxhnevdhooOTitAXTqtF81wIcO6olGwyNkYRp2bQ8fQcnJ6WTzErRo524eUEeZwSJ8mZgNqMIJDeb/LCujUDojcMJg0QB18a+Hev9rAZ+ITrIxSi83+A7qWk0jmwOav/hPHtCipL+Eedchzi0BVDhFSA7nYgPqGuSDoFlj+FkactCI4uQ3omftA/o5cjIPaOnlaw4BpTCSDNDpYIDWPGm91gEtLlNpVkwQbpBU8d9LYd51iHMGKAPUlBK+1gF98rYYFdlv+dJT04Nb6jhD/Li3DwOUASpJQK9n5KHsVioP6KeRkVyedahfBigDVJKAnkz9iOJDx3hA8+b84VBgcpFlgDJAJQnokVs5+LIxkQfUUbcYZIAaBtQ/PMyisbisF5d7/df8a3As7uGbH5C/qGoP0OK9B2v2TYYuGKD6AaXxuH6Bfnj16pXZqe4ogAb+MkgzYH7Hju1ma8TdYBTQzxNn8CVo6T+XuXsc6pcBWh1QDs4nTywbl+0IgBKc9Rs1wKQpE/Ht2zeLmTEK6MeBI3lAvz58bPFD7PlGBqg2oNbCSXlB7oCKBSdpZRjQG+95OOkTiyrnoz1zZnHYGaBVgIoBp9wBFRNOo4AeuvqmCtBeA0HTzhzxYIBWAurds52mzWlptVaYd+RagvoO6S5KtVaolcES9NCl1zygn0b8JLzHoc4tATRo9ljIydDaQ74BvhADTso8sgQ00AdeDf2sbnPqwmUY0H9e8oBSZ5GjHuYCGhwchFatmsvKNG4ShszMTNGygEt9D7jU94RbWIBsjMJNgR/HjraqQ0ifwIYBPf8fD2jevEX67nUIO3MBdQhRrIzkw4fpSElJkZW5cydVdDhJZoOAHjxbtdV9QbTlix5ZmZZ1fjsDtM6TwKEDYBjQ00/4EvRL/BaHFYkB6rBJL4mIGwb0ZAYPaNHuvZIIbF0EQvqAqvFuaz94ekYgMdsxNrSyJB+o323BQE939E/Mhj2pZBDQA8cf84AWHz5miSayuEf6gAJFafuwdu3fuFsgC8ltE4miu9i/Nhb77Ewkw4Aee8gDSivLO+phD4A6ato4QrwNA3o0nQe07Mp1R9BCbxwZoHplYZa1pIBhQI884AEtT71bS8GR3mOkDyhrg0ov14gXIsOAHrrPA/r1UYZ4T7Qzn6QPKGuDmpKl5NdJdOheFaBPn5uigd24ufpfBr6UlpgUXnsA1KSIOLoj2XUSHUzjAZXban4zDm9HyzXzsPHK6RpBZYA6Otl1G3/DVdwDAkBfZdVtKEV+OgHKrTNTE6gMUJHFZ96ZpYARQO9WlaDZb8zyVOqOhYAKQd1w5VS1ElX6gLJOIlPym/zaoAeqAFW9fWeKBqK6oWUi1N9sM+ZDH6CGQJU+oKyTyKSMJ7c2aNyph+gbMx99Yubhl90bMGl/Yo1m4r7NGL9vE37Zm1Cjifw7Hj/9tRHjvpsxu+Mwevd6jEpex5sRSWsxeMcqDNoeg/7bVqLf1hVGTZ8tf6JP4p/onRil1/TaHIUem5bx1VsOSn2/VPWlEnW6oDocf/W0SXlBn6PXr19jy5ZEWZl169bi5s0b+qJrsV1hYSHkZsrKyizWw2AVN/ZkukkZWV/mlpNd45jfeB0sBTQrKwvBYcEI6dERTQb0kIUJ6d4BSqUzfoocZ3HmE95INaYZM2fAxeUHeNRzk4Vx93QFTXYfMWqEMKpmnTNAVxjeGKdL/GIM3RlrFaAcnM3Hj5Ddhr4eTRti1uyZZmU4fY45OINaNkGPzSpLDrYAACAASURBVH/KQqde21cjtEdHeAbWx8/jf9YXbZPsDAK68eRDDF44U2PWnTuMXbf/NWqSUv5Fcsol7Em9gr/u1GSuYu/da9ifdr3S3LuOg/du4ND9m7w5mn4bRx7cxslHd3AmIw3nM+/hwpMH1cz5zPsau4tPHuCfp+n499lDXNJjLj9/hCtk/nuM8NWzeej0lfYEJoXvq6rC7B22harLGU5aQMy7SyurAZUznPWbhsCraytMmDRBmC3MOjcI6JYTjzBnzhyNefHihVmeSt2xoU4iIZhcHCztJJI7nJrt3a0EVO5wBo4fBO/ubWwD6NaTj3lAxVosisv0df2rC6g+MLkwWgKoI8BpLaByhtO3aQgITo1GtgJ026kMHtB79+5x+VUWvxygxsDkImouoP/99x8CGwSg0bA+6BQ9Vxam3fwpqOfnDarWUqbjjKVVXEeB06aAbj/zhAf02jV57ay98sIRvo3JgWjo11xAf/4lEi5ebnBv6Ccb4+LtjnodwnkwrQV01aqVoB7OBs3C0LB5Y1kY74D68GnUgC85eY1sVYLuPPeMB/TcuXOG8q/s7c0F9NdfJ8N3VG+jnVD6OqakbOfRIhT1IzqJBuisWb/Bq2c7BM4YLRvj3qwhfHq2ra6RrQBNOv+cB/Tw4cOyB9FQBBmg0yE2oHPmzEL9oT1k9RLzbNOkWhPAplXc5IsveEB3795tKP/K3p4BygA1pXZT64Du+fcVD2hCQoLsQTQUQQYoA1SSgO69/JoHdPny5Ybyr+ztGaAMUEkCeuDaWx5QGrDw9etX2cOoL4IMUAaoJAE9dPMD5s6dy0P6/v17fflX9nYMUAaoJAE9fPMD/vzzTx7QR48eyR5GfRFkgBoG1Kt1Y8yZO1ufbEbtHKoXt1tr2wz1I0A3b97MA3r58mWjosv1IgNUP6D1u7ZGcFhDZGdnm530jgKo/4994e3vg717/zZbI+4Gg4PlCdAjR47wgO7d65j7szBAqwNqDZyU8RwBUA7Obdu3cqxZ9GsU0Nu3b/OArlmzxqIH2PtNDFBtQK2Fk/KD3AEVC07SyiigVH3hppzNmzcPFRUV9s6b2eFngFYBKgaccgdUTDhrBJQ+rRCYHKRv3741O4Pb+w0M0EpA6zUPtbjNqZsH5FqCenVpqWlzWlutFepltAQlh7GxsTygqampwnsd4txcQKdMmQTXoPrw7tlONsalvif8Anwt6hDSl0kIUK9urRE0e6xsjHuTBvDw8oCYcJJ2NQK6b98+HtCDBw/q01vWduYCeuHCecTFrZOdefNGvLWRV69eBZrC5hrgLRtDL7HYNatFZ6FGQIUdRatXix8A0WMksofmAiry45l3Dq6AYUBv5WikycnJ4UtQaosWFxc7lGQMUIdKbslF1iCgR29XAkohXrJkCQ/p48ePJRcJWwbIUQGtyH+N9Ksn8NemaCyYk4Bbpm0GZ8ukkJjfFSh4nY5rJ/dgU8xS7EqxjUAGAT2b9okXZNeuXTygJ0+e5O0d4cQRAS26vx/rVs7HyOaVCy97RMQjyza7cNhnFiq6hwOxizG9XwjcFE5QuPfAhhcqm8TFIKCpzwv4B169epUHdN26dby9I5w4IqCV6VqGa783gYtCiS6xmbBN9rPvHFR+fR7CXZ3g1nkFHtloiIBBQLM+lvLq0UwW7lso/dLeGY5yOCygqhfY2NsFCrfWWJ5mo9xn15lIjazNfeGhUKD14hSU2yguBgFVqb9pPVI4s8WRvoc6KqDqd9swqJ4TXMLn4prle/9o5SFZ/VG/x66hHlC4hGH2ZdsJZBBQXTHpGyhXiu7Zs0f3smz/OyqguXtHor7iB4RMOwvbdH/YeZbJ24cxfk5QNpyE0zb8sGEyoA8fPuQBXbRoEdRqx+g1sBmgahW0FKwoR7mWhTADq5F77zoeVnULCC9WnavzkX7zHvIM+lPltPqZGuUlpd/bmoU4Nt4PSqUvfj5a00Or+1Q3NvnIvPcUNbJS9AT3Mq2PU9HJiWigdIbfTweRb8MImwwo7XEoHJdLK6g7wiEOoGp8Sj+JpLjlmDNxGPp0aITQkTvwnkBS5+JW/Fi0rq9Eg8iD+KQPrrIULO/gjqD+a3HHYPO/AClr+iKwXiesvG9Gi6jiLa5umor+bRohvGUzNG07EhuvH8X00B+g8BmOv/QGSPyUV+c9xsX9WxC7eBoih3RD2+ajsetNpRj5adsxpYs/vMIm4Xie/meXpS5FO8+GGJaYbhjSonvYNKQB6nWOhukSqfDx9g7MH9EBLcKbITy8E8ZvT8XpmSFwUXhieHKO9otWf/AstjUZUHrCli1b+FKU5oo6wiEOoEDR+5d49SoFMb3doFC4oPeG/6BSf8KVZV3gp3TS7CPpMWBLJbR6hC17koSxjV3RcNAG3CvSdVCIu3H90MCjESL/fm5yh4Xq3Xks7xsE/y6zceRJpaeF91YhItQHPkoneA5IxHdGdB8o+n91QRYyMh/jSlRXeCic4NZjDZ6p1Mi7EY3e/s4afRTuEUh8p+8NRsEpwcMtwxDiEYyR2x5Wr5YXpyNxeEN4NBqFXZlVHaBGI6L+gMsx/RHq3x7T96YjXw2o828juncogvycofDsi8TXhsJj1GeTL5oF6K1bt3hAly5d6hDVXLEA1aSI+jU29aWe0fZY+bAET3ZOwLiYS3iUNBJ+Lt7on/jc6OeM0oztGB3mipChCUjn63JFuJ8wEMHuIfhxVwZMzHpQvzmOGW3c4dH6N5z7KMhkqv8Q10upeYn0WP/MaHhMzmUmO1QjO7Ev3BVKdIh+gJLnyZg8ZinOpCRiuK8zfPpuxFOj33uK8WDTIAR7hGD0zsdVWpQ8wvaRwXAPGYotD01sUavf4+zcdvB2D8f0U+8FpaQKz+O6ab5/unWLxROj4TE54gYdmgVoUVGRVjX3+fPnBj2WywVRAc3bizG+TnBtuQBXUmPx86yjlSWmKhdP7j3VvKFr0q3kYSJGhLgidORWPCouxsPEoQhxb6Cp2pmY9YCydGyI8IHSswOW3+ZJr3x0RRqi2is1L5EV6bX9eSUPB8f5QOkajgVX7iLul2k4lE0vj3J8SL+Jxx9NoaEIaRv6o6FHKMYmZaK0NAO7xoTAvUE/bEirVvUwIHc5Mjf3Q4DSFe0XX4d2q6IC9/9sBzeFEu2j0mBrhcwClGIjrOYeOnTIQATlYy0moEUnJiBI+QPCpm5AzJTluGJh70LR/XgMDnZBSMf2CHEPwMANd2Fq1gNUeBLfB/UVCjSfe1kn8wHqrAT086x8idwyoykrSooXn8Tkhs5wCZ2MjasmY9mlXEHJZc4TCpC6LgJBHiHo2iUE7gF9EJtieseQ6tkmDPBzhkuzGbioe5v6NRL7u0Ph2gzzb9heILMBFVZzaYyuSmXKW80ccaXlVjxAS/EPdSwo66PX8ElYcU37vWxerItxe2lbTTXLvdNy3DW56ASQfwKTqQOoXgQ2v9JNuwo8WtUJ7oofEPbbhaoqonmBs9h16eXf0NjFGf69hmHyn5ehy4ZZHpekYFmHyqp6p+i7ZsQlH2emUgeQO/rE/1etil+REYtuHk5wCZ2GC6a2J8wKuLZjswGl2Sy///473xZNT0/X9lFm/0QDtPwm/mihgELhjrbzL1rRNV+KzJ0jEOoeiP5zZ6FfkCuaRu7BM5Ne5mp82D0M9RVO8BryvRdZkF7qDwcRGewMhdIfE0+YXiYLvLDitBy3FobDVeGEem3m4oKFtQtNAMqeInlsKDyC+mDmzN4I8myGiQdemFQdVefswShfJyjqDcB23Q4pdQ6Ojm8IF4UzAiccrVb7sCLyBm81G1DyiTZT4gYtbNu2zaDncrggFqAVD6LQwc0JSr9hSLa4a7Qcz/4ah6Ye/ui/PlWTQQpSYtEv0A3NJ+7HyxobRIU4EukDpUKJzjEPtTOs+hPOzGoJb1cnKHxHY5+Bzxk2S9OKdKzoqIRC6YNhSdkWVm2pufof9o1vAs/Avlijqdbm49aq3gjwDMevR7K046wnMkVHf4K/0glu/4vGQy091cg9Nwttvekl640f9+XquVt8K4sAffKkanNfWn0+P9+a1534kRLTR3EAVeHpuq5wo5E5U05ZWHWrwKuDE9Dc0w8RsSlafuTfikGfAHe0nHoEWbq1VqEYFRlY3YWqfa4YkiTMYCq83j8ZI38cgCYuTqg3uHrpKvTGFueqZ2vRw90JypBJOGVp3bbiFQ5PDodnQC+suiXIk+o83IzpCX+vVvjtxJtq1daq+KiQufp/mqaDx5CdqJrPBaiyD2DqyFEY3FShv3St8kTUM4sApVFEwrG558+fFzVQUvJMFEDV2Ujs7waFSwh+u2hOg5FTQoXs41PRup4vesfc1NPbW/m9sJe/B9rOPIl3hiCteISYzgSoEl1WZ3zPqGrkXl2O4WM3Yv+i1preyR7rn6Mi/yYS1p3AB8EXGC404v+qkb2lHzyp7TvjvOGBBsYerMrGiRkt4eXfEytv5lUvgdW5uL6iG/x92mHO2XfVr2v8rsCjmI6Vn1C6rELmdx3VuVcRPfxHbNy/EO3c6BvtWjyrKMDtxPU4lWNbgSwClOJCu25z1dzo6GjZfhMVA1D1x2SM8KbS4VectYTPsjuI6RaCXiuuGRnGp0buteXo2agH1qYbapAW4dTkQCgVTnBpGIElyQexe+U4dO4+C2ffv8P2Qa6aKubIhBNYM3EStmXYbhC4Fmvqj9gzsh4UyoaYZpFAQNndFegW1h3R1430/KpzcTWqGxr1ioUhiSqH8DlB4RKI/kuScGh3NCK7dMWcM+/wfnt/eCic4TcqHqfWTsDkLQ9ha4UsBjQ3N1drcyW57t0iBqD5h8dp2jW+Y/ZZ3jlUWmJST2RpifGuxfKMRAwLoXYUjV5yRWj/ZThPRa76DbYOdK8c0dRkGBLuWFrP1ELPtD/5hxBJo4V8R2O/oGZq2s1VrmqKe6XLUhiVqPwxtgxroOmsIo08QiOw/Pxb0MjpN1uplHeCwiMEw+NSLE/LqiDXeGYxoOSzcKWFTZs21fgwe3QgBqBSi3fZmxQc252Ew1efa/VEFmWexZ6955Bh2Wh7qUXT8vCUvUHKsWQkH76C58KvYUUZOLv7L5zLMFJKW/5UvXdaBSgNmOequfQrx4WthYDSNnS/HtzKDNOg1vKAcOvD5JRLPMT/x5/VcEJLoHCQynGDJV1AhYKx8+lgGtSeBhYBSqsrcIDSAAa5fXJhgNZeBmSwG9faIkBpQ6Vly5bxkMptGtrl54+w/dZFZpgGdZ4HHr9/zddnTa7i0h2XLl3iAZ0/f75DLSrGK8ZOmAK1qIBZgJaXl2stbu1oa+fWYrqwRzEFNAqYBSjdcfHiRb4U/eOPPxxuiwiWb5gCtamA2YDSmkW0mBjXYXTq1KnaDC97FlPAoRQwG1BSh8bkcoBSWzQvr7anRDhUGrHIOrACFgFKpSitVcRBKsfvog6cJ1jUJaSARYBS+K9fv84DSlPR5Di6SELpxILioApYDCgtgRITE8NDunXrVgeVkEWbKWA7BSwGlIJEy6Bw1Vz6ffr0qe1CynxmCjigAlYBSnrFx8fzkK5atUr2i4s5YB5hUa5DBawG9M2bN1rzRf/99986jA57NFNAXgpYDSjJIdwRjQYvFBTU4iRgeaUHiw1TQEsBUQClJToXL17MV3VpNUB2MAWYAtYrIAqgFIwbN27wgFKHEW1jyA6mAFPAOgVEA5RWAFy/fj0PKU1NKymxZOUs6yLE7mYKyEkB0QAlUd69e6e16RIbYSSnrMLiUhcKiAooRUA4TpequpmZmXURL/ZMpoAsFBAdUBphtHbtWr6qGxUVxaq6ssgqLBJ1oYDogFIkaFzuvHnzeEiTk5PrIm7smUwBu1fAJoCSKhcuXOABpapuSkqK3YvFIsAUqG0FbAYo9eomJCTwkNIAhk+fhNvU1HZU7et59G2Z2u+cefnyJR8B0pazp19a0I07Xr9+zV8TrrxIOwRw99DoL+6gZWw4e/oVHi9evOCv0a7r3JGTk8Pbf/jwgbPWrK7B+aW7KzuN0+au0XRF7qDaFmf/+fNnzloz2IWzz8rK4u2pCcXZ069w31pyx10TDpYhfzl74awrCgdnLwwT/zAJnNgMUIobZYqFCxfykG7YsEFLUAnEX7JBePbsGa8b1UCoXc8dBBXZcUaYGTdv3szb37x5k7sFly9f5u137NjB23/8+JG3J/+Eh3C20uPHj/lLx48f5+8R7r4uDPPy5ct593RCE/u58AohEW5xSbUu7rhz5w7vnvINd9CLi/OHfoUvjo0bN/LXaJlY7hAu05OUlMRZa746cH69f/+et5fSiU0BpYjeu3ePF43EOHbsmJTiL9mw0Gr+VOsgQ7oxQCuTSkxAr127xudNhwWUZN23bx8vBGU2gpYdpilAVVsqyYSl3tevX7FixQreFBZWbSzy119/8fZpaWn8Q27fvs3bHzhwgLenWo7QL/4CgMTERP6asMpKJRJ3z9mzZ/lbXr16xdvTLCfhsXr1av6asFpM6ytzftEiANxBI9E4e2GpV1paytvTdeFgGOqM5O4R7ghPo9w4+8OHD3OP0MqTDg0oVcnWrFnDC7JgwQJIVRA+9diJ7BXYs2cPCGoywva6lCJu8youF1nqIBK2R6lUoLchO5gCTAHDCtQaoBQE2luUa5TTLy2TQj2S7KiuAFVtaTwzGdq4ih2OqUCtAkoSnz59WgtSYZvAMZNAf6yN9Yjqv4PZmqsA9SZzhtr1UjxqHVAqManDQ1iSUm8aO7QVsBWg7969xYUL52Vlzpw5jZcvX2gLaMI/4Wg3qfaJ1DqgpBt9FBZ2GtGynfTBmB1VClD7nD61kBF+qK9yYf4ZZeKQkAZo06YVOnRoJwvTqlUL0Bb2ixb9YbYgDFAjktFq9MLtDKkDSfgB28it7JIFCnBwRkb+pFnojT6D2LuJilqOgAA/hIQ0xOrVq8xWhfIcDaAgI/z0Y7ZHNryhTkpQLj40LE04woRWq2fDATl1xPuVM5zdunVB27ZtLAJUPIVt51OdAkrRog/SVMXl2qTR0dFs0TEANN51//79GmPNNo9yh/OXX35hgNru/VDpM8104QCl39jYWK0RIrZ+vhT9F6OTyBHgZIDWUu6l9XSFkMbFxTn0QAZrAXUUOK0BlGprNKifDE0akOJR51VcoSi016gQUprF4KijjagtTnqQobGv5h6+vj6a3k3q4ZST6dSpAwhKobG0Dcp6cc3NVQBo+hKD1ALhdG4JCPBFZGQkZs+eLRtDcRoyZLAWnNaUoAxQnUxjyt9v375Vg9TRq7um6KbrhjLzzz//rPWyE7747PGcPqmICSh9Y6ZZOmRoQocUD0lVcTmB9EFK8yGF06o4t3L9pYnINGWKjCWDOBig8sgZkgSUpNUH6cqVKyFcFkMeSaA/FtZ2EjFA9etqb7aSBZSEJEiFy2tQtYxGHznCiCMGaNWSLlx1XOwqLk3UoI2/yHz58kWS7EoaUE6xf/75R6stRUO0hDP8OXdy+qVRVvQ9mAytbGDuwUrQmhVjnUQ1a2SyC1qyQzjiiMQlO3boV4ABql8XoS0DVKiGCOc0LPD333/XKk1PnDjBJn3r0daRAG3ZsoVFY3HpGzPlHzJS7YC0iyquMP/R1CsaVM+1S+iX5pdKdV1TYdjNOaf2N613yxlz7iW3jgJonz694efno+ntNlcje3Bvd4CSqDRVTTiflCClNY6kOunWkozAOolq7iTi4Lx/X76rRNoloJThqcTcuXOnVklKqwXSgsdyOBigxgEVA05ajJvWySIj1RqY3QJKENLyKWfOnNGClEpTWvdVqmvMmPryYIAaBrQKzvumyqnXHesk0iuL+Jb0Jly0aJEWqDTyyJ6rvNT2pEWlyQi3djBVPbm2QTt16qhpc96/bx2cpCMD1NTcJII7GmFEy1MKO4+ox/fSpUsO2cvr41MPvXr1xMiRI2VjvLw8QPESA07KctSPsWrVKo2R6koedl3F1eWaSh3d2TAE7KZNmzQlka57Of//7bfp6Nu3NwYN6i8b0717V9y6dUvOyVYtbrIClItdRkaG1oJkBCl1INEOX/ayUDYNZ6QRRGRoiwJ2OKYCsgSUkpJmg9CmO8IqL51TNVi4P6ZUk93aTiKpxktK4aKXNe0vKtxjVErho7DIFlBOaPrsotuBREMGafSIVLvWKewMUC4FbffLOolsp61ZPtMwLqom6pamNCKJ2jRSrPZSzy1tm0fGPr7tqvFuaz94ekYgMds+9tthgJqFke0d08RnWihKF1SaMWLJpGjbh9i+nlCUtg9r1/6NuwX2EW4GqATTiZa2oA2chAtmc8BSh8yLF+bv8SHBaLIgmaAAfZrjjFTbobJvgxpKJxrP+/fff1crTQnWzZs31/l8UwrflStXNIZNqzOUivK3d1hAuaSlidH0nZQrRYW/CQkJmpXv66KNan+dRPbXBuXygJR/HR5QLnGePn2q2UxICCh3Tu1WGpFUUlLCObf5r/0BCthbG3T79u2aTaRpI2kaUinFgwGqkyoEBpWcHJzCXxrsQOvX0O7Xlh7nzp0zaYzwu3fvQBmIzN69ey19HLvPiAKsk8iIOFK/RGum7tq1S2uZFSGstMLghQsXzH7z0vhPyhjUUWXvM26knoY1hY8BWpNCdnCdqj40qEF3sIMQVhqdRCVjdna2ZiVCY9FasmQJXzqvWLGCfd4xJpaNr9E3ZtrdnUxxcbGNn2aZ96yKa6Ju9HmGelMNdShxwNJGPFQNTktL06z8IPSeuvKFC59x9+zevbvaso9UutKGPmTsYy1g1kkkTGuxzhmgFihJpSpVb2mZFQ4yQ7/UwUSfc2ig/vXr1w26p6VE6U3O9RizTiILEkaGtzBArUxU6syh3cdoJzZ9paMhcA3Zr1+/XjOY31aA0lbvS5YswqJFf8jG0NS6LVvMXzuYXpisimslAPZ0O435TU1Nxb59+0DtS0MQ1mRPoFMHFeeOqs1iHARneHhT9OjRDSNGDJOF6d8/Au7uLmjatLHZErFOIrMlk9cNNOD93r17OHr0KLZt28YDx4FX0y99nxOrp5eDk8CMj4+XhYmKWo7AQD+0atUC3bt3MTvzMEDNlkzeN+juIq4P0D/++EOz6Bmt/yvWQWszhYc30ZSYcoKT9mrp1q0L+vfvZxGgwoEKNLRSigdrg9Ziqhw7dsxgKUptWOolFnuOqpzh7Nq1s2YzX0sBrcWkt/hRDFCLpTP/xr/++ksLUPomSt9Yqfqpe1AJSoMhyNDIJksOR4CTdthmgFqSO9g91RSgWTLUAURtywcPHmi2dajm6LuFtb24BGdwcBColJk+fZoszOTJk0DVWq7kJDitAZS+L9NqfmTYdDNDOdGB7KmH19S2jrWAJiTEw9u7nqZ3k3o45WBord9mzZpooOTgtAZQ1knkQPCJHVUaekarE5IhWM094uM3omPH9lpVan2dUvZk17lzJ7Rv344Bam5mYO6lpwADtOY0YSVozRoxFzZSgAFas7C0xSMNreSGV9Z8R+27YL24ta+5SU+kQfL0WYYMzZQx92CAmquYNN0zQKWZLlavi8sAlWjCmhksBqiZgtWWc2t7cRmgNacULbfKNk+qWSfmQo8CVMU9fPiwxtAeqOYeDNCaFWOdRDVrxFzYSAFHArRTpw6andzMlZIBaq5izL1oCjgKoN27d0NQUIBF6xjTN2ba/JmM2GOgxUpI1gYVS0mR/aElPmkpUDKWrHbvCIBaA6fIyWUz7xigNpPWOo9ZJ9GcaqOghCOJHAFOykEMUOs4stndDFDDgIoF58mTJzWziWhGEa2GIcWDASrFVAHw6tUrzU5stOgYzRU195BrFTcsLMTiNqeuhqyTSFcR9r/WFCBAXVwUaNEiXDbG399XM0Pnv/+ei6IjA1QUGZknlihAnUsHDx6QnaGahVgHfWc+dOiQxnz58kUsb0X1h1VxRZWTecYUEFcBBqi4eorm2/PnzzV7uFA1jJbwZIdjKsAAlWi6W9uLK9FomRes8nxkPbiM43visXL+XGxLLTPv/hpc00uQdCZDW3tI8WCASjFVAKtns0g0WqYHq/Au9q+LxvyhjeGucIKi3gDseK82/X4TXLJOIhNEYk70K0BvdFr4iwwNnHfUo+zyTDR2cYJ77zi8VImrAgNUXD2Zbw6ngArP1neDm0KJzjEPUSFy/KltHxUVpTFSfQmyKq7Iic68E1EB9Wsk9neDwrU5Ft+WZhtRxNjq9YoBqleWurekXdNoAyUyBw4cqPsA1UEI1DlJGO7tBJfGv+FyaR0EQAKPZIBKIBH0BaF2enHVUGn1u5SjzEhBpc5Nw42HBfqCK7BTI+/+daTna3ksuG78VF1egtLvbc38g2Pgp3RGg8knIc39r43HRYyrDFAxVLSBH7YAVP0pHaeS1iNqzniM7NMOTUOHY6emZ1SNTzfjMLaVF9yCf8ExvfsIlSF1eTt4BkVg/R1DA8vVyL8Zjd7+Hui6Ot0MVcrx5vJGTOvXAk3Cw9G8aRuM2XQdBycHQKnwwdj9egNkhv/6ndJGVfPnz9cYfdtv6L+rdm0ZoLWrt8lPoxXoaTc0Mjdu3DD5PqMOi97j1auXuL2yG+jTRWXPqBofLy1EF19nKOhzhudA7MwxUPqVPUHy2FB4NByIhPtF1R6Vf3s1IgLcED5+L14YKYm1bqzIxtmlPdEwoDN+P/a0sqQsSMXK3g3h5+MMhddg7BL58wr3fNaLyynBfiWkgAqvNvbke0aLM7di4k+rcOXhDozwdYbfoK3GP2eUPsb2kcHwCBmKxIclfLwK767DgCBXNB6bhKemjidQvcaxaS3g6dkKcy9+QtVrQYUna7vATeEEj77xeCXy5xUu0AxQTgn2KyEFcrFvjDcUri2w+NptrI6cjVMfCI0KfMxMw3NT2o7F6Ugc2gAeYSOwI6MERffjMTjYwd+upwAABiNJREFUBaEjt+KxyZ05ZUiP6wU/pTu6RKfotDHLcWdpS7gqlOiy6rHon1e4xKCOOM5UVIj9EYd7inW/rIprnX42u5tmV9B+oWTS0tLEe07RcUwKcoZL46nYsHISoq/X1Olj4NFFd7FhYAA8QtujQ7ALggfH44EZPTkVmXHo4+ME1xZzcEW3tqx6gY29XaFwbYmld0ytKxsIp51bM0AlmoC26CSiqJb+MwNhLs4I6D0MU1begC4b5shReHMB2ro5QeHRCSvvm1x0AsjDyckN4aLwQP/El9CtwVakR+N/bk5waToLV0ytLpsTcDtyywCVaGLZBtBy3PojHK4KJ3i1X4DLFhaeJFnJ460YGeqC4EFzMLuPHzzDI7HPxJ4h9YdkjKjvBIXXoOodQOp32D8uEEqFM4J/Pa1T9RU3sfbs2YOkpCSNyc/PF9dzkXxjgIokpNjevHnzBps2bdKY5ORkcbyveIDoDkoolD4YufutoFPGPO/LniZjXBNXNBi4HmmFgDr/JmJ6+8Kz5SQcflVzW67w8Dj4KZzg1nkFHmk5V+PjqRlo7f0DFMr6+OmQbaFhnUTmpTtzbWMFVE/XoDtVHUMm47ShT5k1hKHi5X5MbO6GoP6xSBWUwOq8a4juWR/12kzF8WzdSqvQ0wpkru5U2UM7ZCdyBZdUWXvx64+jMSjsByi8hyLJ0OcewT3WnDJArVGP3SuyAmpkJ0bAU/EDwn67gKoPJKY/RpV9FNNbuyOgTwxu6Snc1J8uY1k3H3i3n4WzBr9dVuBxTEcNoG5dViHzO8t07/Lh45C4fwFau9I32g14VZGLaxvjcDa36gOM6aGt2SV9Y/7nn380pqjImtZ4zc+y1AWr4lqqnI3vo25/6sklI8qSkOqP2D3CEwplQ0w7awmeZbgb0wVhvf/EjTzDwKg/XsSiLiGI2PDIoEJFpyaigdIJCpdA9F+ShIPJf2Jcl26Yf/695iXirnCG/5gEHIv5BdOSnsKR+3EZoAazUd1eEL2TKP8QIv2dofAdjf16Sj/TYluKElM6a0tLYNRZ2SPNd1TqrKLRSx5h/RD9z3uooUbW5r7w0IxoaowfE+9Z1ctsWpyk7YoBKtH0ER1QqcWz7A1SjiYj+fAVPBe2h4sycHbP37iQmW9xJ5apUU1NTUVKSorG0FYbUjwYoFJMFbbkSa2kCuskqhWZ5fkQtVqt2XGLvtPRjIvFixfj2rVrfGTv3r2rsSP7HTt28PbU2UF2nBHu2rVlyxbe/sGDB/w9ly5d4u0PHjzI29MwOM4fWuFeeNDmt9y1ly9f8pdoGwXO/ty5c7z9kydPeHvhSvnfvn3j7em+z58/8/fQd0rOr5s3b/L2VOpx9qQPdxQUFPD2dF04fI8+WXH30G5mdND/xMREzR4wtLSMFA9WgkoxVQRhognbc+ZU7lNCvY7cQUMAOfuEhATOWtOhxNnTb2lpVWswLi6Ov4cA547z58/z9gQFd9C3WM6vBQsWcNaa32XLlvHXaHU87iDAuXsIVu549OgRb0+7WnMHvYg49/T76dMn7hK2bdvGX7t69SpvT7N7uHsIMO6gGUCcPf1+/fqVu4Q1a9bw17iX0+vXr3H69GmNPQOUl4qdmKMAA7Ty5WQLQCkdGKDm5EbmtpoCtJgVbXdAhqpw3EGfXjh74dtfpVLx9nSdSijuIHfcPcLvfjTMjbMXLp5FKwty9lTaCI/s7Gz+mrCUpioqd09ubtUwBOqE4ezfvn0r9Iq3p+vCUi8nJ4e/JtyaQRh34URrqtJyz6Bfqj5zB1XXuWvFxVWj+qnU1X0ud48UflkVVwqpwMLAFDCgAAPUgDDMmikgBQUYoFJIBRYGpoABBRigBoRh1kwBKSjAAJVCKrAwMAUMKMAANSAMs2YKSEEBBqgUUoGFgSlgQAEGqAFhmDVTQAoKMEClkAosDEwBAwowQA0Iw6yZAlJQgAEqhVRgYWAKGFCAAWpAGGbNFJCCAgxQKaQCCwNTwIACDFADwjBrpoAUFGCASiEVWBiYAgYUYIAaEIZZMwWkoAADVAqpwMLAFDCgAAPUgDDMmikgBQUYoFJIBRYGpoABBRigBoRh1kwBKSjw/0i206/Z/E1xAAAAAElFTkSuQmCC;" vertex="1" parent="1">
          <mxGeometry x="390" y="304.5" width="108.18" height="166" as="geometry" />
        </mxCell>
        <mxCell id="-_NfIEieIwhwRVeMkYYe-14" value="self reconstruction" style="rounded=1;whiteSpace=wrap;html=1;fillColor=#dae8fc;strokeColor=#6c8ebf;" vertex="1" parent="1">
          <mxGeometry x="310" y="364.5" width="80" height="40" as="geometry" />
        </mxCell>
        <mxCell id="-_NfIEieIwhwRVeMkYYe-18" value="" style="shape=image;verticalLabelPosition=bottom;labelBackgroundColor=default;verticalAlign=top;aspect=fixed;imageAspect=0;image=data:image/png,iVBORw0KGgoAAAANSUhEUgAAAbQAAAHHCAYAAADXgq0pAAAgAElEQVR4Aeydh1sTy/v23/9DTwKEKk0pCoii2EAUBUEUFERExN5QFI+9C9gLKggoHlHsWFH0HKyIHRTsICqKP8Av0k6Sc7/XLCQkYZNsIKGEyXUNWXZmZ2fu3exnZ+aZZ/4f6IcqQBWgClAFqAJ6oMD/04M60CpQBagCVAGqAFUAFGj0JqAKUAWoAlQBvVCAAk0vLiOtBFWAKkAVoApQoNF7gCpAFaAKUAX0QgEKNL24jLQSVAGqAFWAKkCBRu8BqgBVgCpAFdALBSjQ9OIy0kpQBagCVAGqAAUavQeoAlQBqgBVQC8UoEDTi8tIK0EVoApQBagCFGj0HqAKUAWoAlQBvVCAAk0vLiOtBFWAKkAVoApQoNF7gCpAFaAKUAX0QgEKNL24jLQSVAGqAFWAKkCBRu8BqgBVgCpAFdALBSjQ9OIy0kpQBagCVAGqAAUavQeoAlQBqgBVQC8UoEDTi8tIK0EVoApQBagCFGj0HqAKUAWoAlQBvVCAAk0vLiOtBFWAKkAVoApQoNF7gCpAFaAKUAX0QgEKNL24jLQSVAGqAFWAKkCBRu8BqgBVgCpAFdALBSjQ9OIy0kpQBagCVAGqAAUavQeoAlQBqgBVQC8UoEDTi8tIK0EVoApQBagCGgPt1asCjBvnwxpqa2sZRefOnc0af+HCeSaefLPlMW/eHCa+pqaGNZ4cQ85PPvHxsaxpdu3aycS/ePGcNZ7k0dDQwKSZOXMGa5rLly8x8adPZ7DGL1w4n4n/9esXazw5x5s3b5g0W7ZsZk2zb99eJv7x4zzWeJLHf//9x6SZPn0aa5rr168x8enpJ1jjly6NYuL/7//+jzWenOPDh/dMmo0b17OmOXQogYl/+PABa3xAgD8TT/6EhoawpsnOvsmkSUs7xhq/fHk0E19WVsYaT8pZUlLCpFmzZjVrmqSkRCb+7t07rPFBQROZePJn8uQg1jQ5Of8waVJSklnjV636k4n/8uULazwp59evX5g0f/4Zw5rm6NFUJv7vv2+zxoeETGbiyZ/AwADWNPfv32PSJCYelotftmyp9Fi6QRXojgpwAppIJMLZs2eYkJOTAx6vB2v43//+x2jo5ubKGp+QcICJP3BgP2v8oEEDmHgCCmXnIA9W8omMjGBNI4EieTgpy6Ouro7Jw8WlH2saycNx9+6drPHDhg1hjv/58ydrPDnvkyePmTRhYaGsaaKiFjHxN2/eYI0neYjFYiaNg4Mda5pjxxofjgTubHX18vJgjv/27StrPDnm5cuXTJrg4EmsaSSwuXLlMmu8gcEfzPHkj62tFWsaAlzy2bx5E2v82LGjmfji4mLWeFLOoqJCJs3EieNZ06xatZKJJy9LbFqYmgqYePLHwsKUNc2ZM6eZNOvWrWGN9/cfx8S/e/eONZ6cV/KCQODGVo4NG9YxeWRknGKNt7KyYOLJH2NjQ9Y0mZkXmTQrV66Qi/f2HiU9lm5QBbqjApyAVldXK/3hvH//HuShwRaEQiGjIXkjZ4snDwLyId9s8ZI3+X///Zc1nhxDWhvkk5eXx5pGApIfP36wxpM8JKC4cSOLNY3koURaWWzlvH37FlOG+vp61nhyTGVlBZMmNzeXNc2zZ0+ZeNIqYTsH2Sf5ZGVdZ03z6dNHJgl52LPl8c8/fzPx5PqxxZN9VVVVTBryosCW5sWLF0w8gSJbvOThShJdu3aVNY2kdfX69SvWePKSRD6kZc52DrJP8rJEWidsafLz85k8SOuJLf7SpUwmnvwhLXC2NKWlpUyagoJ81njS+iOf6upq1niS5+/fv5k0JC3bOSQ9DJ8/f2aNJy8Okg/Rli0PSSuQvIyQeNLTQOBJgSZRjn53VwU0BlpVVWV31YrWmyrQKRWQtJ4p0Drl5aGFakcFKNDaUWx6KqqALhQoLy/HrVvZIOOx9EMV6M4KUKC18uqTcTjShaZvgXTZtffn3r27IAYO+hTI+KukC7O99aTnowp0VwUo0Fpx5Yk153g/Xzjb22Goa3+9CEP6uzDjML4+3q1QpPWHXLp0CcQQws/PF8ToQh8CMW4iY1qSMeHWq8PtSDLOSSxvd+7cwe0AmooqoKcKcARaHSwtzZlALBC780cCs3kTglB97iZqLtzq8qHyTBaCR43G0L79MG1KSLtd3kaY9cKaNWuQkJCgF2HmzEhYWlqgb18HENP89vjQMbT2UJmeoysowAloXaEi7VFGfYbZhCHDsHXSNEyfGtoeUkKfYRYSEoL+/Z0p0NrlTqInoQo0K0CB1qyFyi19htnEocORs3IbYoOntwvQCMysrfWzZUZgNmvWLAo0lb8mGkkV0I0CnIBGDCBMTIyYIJm3pJvidM5cCcz8x/lAH7sZJTC7tzquXYDWHWBGgdY5f8e0VPqvAEegNU+s7m7z0LoLzNoDaOnp6ejVywzz5s3F2rVr9SKEhU1lxswkLTMCMwo0/X9w0hp2TgUo0NRclxle3hAY8mBlZgJrM1O9CAJDPrwHDGS6GQnIJEHXXY7E5RQxmOjd21pvAnFPFRwczEBMArP2BtrTp08QERHOuBZTczvTaKqAXiugd0BreJaFm6Wi1l804VvcuNHoN5BkMt1zNJJmL8bnfcf0JswaPRarAyZLQdZeQCMgW7hwIWJiYvQm8Pk9ERkZ2aFAa/3NTo+kCuiXAu0ENBF+f/+IosIifPpWiXodalh7djXW32vDGWouY92GG9ISRoz0xomFMahOPqs3YeFYf6yZEEyBpgWwdgagEb+hubkPpStRSG9eukEV6GYK6BZo4nLkHlmCgIEWMJJ66P8DZo4jMG3DSbyobPQmr03NazPC4Oi7Gidu3sfjZ8/w/DnX8BR5967h2DIvuEVlSYtEgSaVos0btIXWZglZM6Dz0FhloTu7oQKcgEa80xPP3yQQT/icPuIvyFzsChMpyHrAQGACK2sLmAn+YDwpmLnPx5mPjR76OeXJIVFtRiiMZc7JtoSH6n09Yb+YAo2D1BonoUDTWDJOB1CgcZKJJuoGCnACmuY6iFFxcSbs+WTdNEM4Ba1HxsNi/JIMbQkr8elBOjYEOsLaaxueNi5PpvlpWI6gQFPfNUq7HLU3htcZuhwp0FgeBHRXt1SAE9BIq4yswEsCWVtL/acOV+ZZgs/rCZvJR/CucYHoloc1vMWRyf0RfuoHtNX5SLoc+/qvRfqNe8h7qtjd+ASX//RA4O5HSroi8/DXHEc40hZay2ulhT20haYFEVmyoEBjEYXu6pYKcAKa7AKf3Oah1eHyXEvwDRyxLEd186v25mIMmZuJGi3JT4xCNig1ChGhaOdYTD2ubE03Ed7vG4N+dAxNS1dDPhsKNHk9tPUfBZq2lKT5dHUF2g60hmr8atFoE6P8XAT6CDywvVD1GJnw2SaMDEpCmZaaaMrN9n+j6HQ0RlkbYNiWZ2AvlQgf942Fa3TjSs/k4nYno5ANgaE6dX3VXYBGzPhJXSUrhuv6IUGBpmuFaf5dRYE2A63h0RasSa9oWV9RCc7OGYrQ1FIV3YlCFO3xhsPMC2hcuL5lNtrYI656hmPzh6AXM6bXA0YjY1HASrQKnImwwZANzQsldhegpc9bht5WvXDpUqY2JGfNozsAjcDMxcUJU6dOgVDIepOxatOWneQ8ZBWMmhpt9XO0pTT0WKpAxymgBaCtg5fXPOxLP49LVy6DvC1Kw8UELPQLwoYTl5r3SeIvncHRbWEY1KsvorKUdQG2VRgxynMPIMJNwFhV8vjmGDY9GEONe8F/9xNUy2UvQtn1JRhsbIgJR75JY7oD0CQwu3DhvLTeutjQd6B1BMx0cZ1onlSBrqqAFoC2FoMMiTVjK4OBE5ZmV2lfP+FX3I6fBCfjxnIZ2HhhxZki1Ag/IMFPAB7fFG7By7DjSBpOHDuAzfNHw0HQAzyjodj6ovnNWt+B1l4wIxdYn4HWkTDLyfkHZFHRmTNnaP93RHOkCnQhBTgBraGhAZMmBTLh92/5zsGGR2sxSGAOp+EjMcbHGz4ahzGYsO46tIm0+uIr2Ojfp2kyNx8OARtwrVjiPUSMyqzF6G/EBuCesAtPx2eZ8Tx9Blp7woz8JvQVaBEREe3ezSj7jKFjaLJq0O3urAAnoKkSqOHRRsyMe65Td1aqzq8Y15C3HWNsGidu84z7YcrOHJRJ5r9JE//G88QwDDCVhZoBHAO3436FDM302Chk/mhfZsxM192MUsn1GGjOzv3adcxMVlOyTYGmqAj9v7sqwAlo//33H/Lz85kgEsnTQVR8FZefKptoxkFW0QckxqbiizxHOBzInkQysdrQYTy231M9v63u22Nc+esQEg6l4ty9Dwpjao35h3uOwhxvX1xavl5vgp/bIJibCtCeMCNqkm7pwYPd4OExQm8CmVg9ZUpwuxmAsN313RVo5LnUIBSj7l/th/p/xRCJ/2OTm+7rxApwAprm89Dkayyq+4WK8u/4XlaGMrnwBUXZmzA+9BBKtQg0E6tx2PtCOxZf+/btRWBgAIKDJ+lN8Pf3xfHjafIXqR3+S04+AqKnPoUjR5I6FGbksnU3oJVV1uPvggoc+/srjt7Wbbj8uBzvy2oo3Nrh+aCNU+gQaFV4krII/q4WEDSZyyszHBH4H9Qi0KbBY/2jTtMFqo2LRPOgCqhSoDsBLe/dL51DjA2SBGykNUg/nVsBHQFNjLIz02EnBVlPGBoZQCBgDxaBidrrcjyzHKtuSwxAOrf4tHRUAVYFhDWo/P4VZeXVaODwDP348QMSEg7g3LmzrNnpy87HHQQzCeAI1IQiDhdEXwTvgvXQEdBqkTnTHDy+BXw3Z+F9VbMZvM41EotbTuQW1eF3TUPL/TovDD0BVYCbAqLypzgdvwCTPB1hKegpnQbDF1jA1XsKovdkougXt7z0MdX/aoUqWmYl2LbvIvZmt777MeXkRaxJ/6ziHI15F5bKW3nro9ZduU46Alo9spfYw9A6EpnaGcrSXONfr3B+WyR83axhYtBozWhoboehAfMQn/kanfnZIP6WhIkmAgQkqvKyorkk3e8IMb4dGQ8TE38kamuQVusi1uHdheXwtuVJIaa0a97BD5tufGnhto200A4c2I+zZ89ovXSdJcNHb6tUwOYDFocvwZqs1gMtaftyTNrxUcU5GvM+//A7iDEK/XROBXQENKDmwWq4W01AilonjQ0oL/uJNthJtlBW/OUSlg03BV8y2dvIAk7DvRHg6woHZ3cMtrPC8GWX8EXeYLNFPh224/dTnN69ExlPOzN2O0wdjU78+1kGdu8+ic4pZT2KjoXCUTonsieMrRwwyHM0/ALGI3CCH3xHDYGrnQkMJfeywAmR6e/lfi/dYQztfO4PFbD5gIU+9hi66DS2pudhd8YTDUIu4pLSMXX0YPhwABrpfqyua8ceJ43udpqYE9CITN++fWUC97eTGrxImIyADfdUt4YaniAuJklrRiEQFeNYCFm6pgd4BpYYFX0Uud8ax9SE+bEIX3sX9b9fIy1yOKakfkRnZRq9NfVfgfoXsfAicyHNXBC08iCuPv+KGtYhGiGq3uUgPTYCI6x54Jl5IPZxs0fw7gC0jHtlqoE21kBtC1dZy5fZz7fhDLSKao6LHOv/LdzpasgZaJqVXIj32UeRmrofMf7DELo5EampKSwhEXtX+sM5QHtWjsLXcfBi3nhNMSYuT25umRRoAMTlJzHDbwue05ctzS4tTa0dBUQlSAk0h9mQ+cgo4t4v31B8CctHmMLCPwHvmt7GugPQTt3tPED7v/9RoGnnR6D9XDgBrb6+Hl5eHkyorpZ36ctepAY8XNW/uZtE0l2i5FurZvvnp8OC1wMGrstxp/kllimmLNAgfIYtXiFIY1kogL1O7beXjqFpS+vOO4ZW92gdhtiOR+Jbzd+ohO8OYYL1UGxpehujQPuAhWON0cd/KxbH/oXl20+0DKsj4egSibnxLHHbjyF4RF/OLTQKNG39PrWfDyegtWZitbAgFiMFfFi7eSNwyhSETQtDeDh7iNyWhZ+sXS2aV7ju+jz05veAaXhGiyVpZIEm+nQQAdYTcbRcSyfWvKjKj6BjaMq10TCmM46hib9fQ/RgAbMyOve2mWzFq3Fprj38EoqZnRRoZAytL8bt+qS0WzLlr40YOGwj4lktIT9gib8zBZrsLdZFt3UGNDKWlRQ+D+fb2cpV/P0Eplr1hHFgCr4rsIoAbWrUSeRmJWKxhzmMXFdA6eLWXfSC0mJ3cgWEb5AYSMZ4DTAxuayVU0nIQrQ+cFuRw1Q2JycH7u5umDUrspNXvvXFU9vl6OMMv70UaK1XWD+O1B3QIEbloxw85dJDqVUt6/Bi9xhYWfoj8aO8yYcwfytGSC3KjDF6Z76ctZhWi0Ezowq0UKAer/aNbVpo1gCBKd/bALSx6B99q8UZ9HUHBZq+Xlnt1kuHQGtZUFHdb9RwcX3Q8lDN9ogr8TR5Fry85+HY059SS0Yp0AzMMWxxBt5rc66AZiWkqbuhAqKPiQi0kkya/gNOy/5BXat0+IXM2X3gFV/AHP3vv/+iqqoS3Ma3W3XCDj9IPdCc4LdHeQstOflPOLmtxrabbHPVaJdjh19gLRVA50D79focts0aC7feRjBgjEJ4MHdwR8D8OGQW6naelbDiNW5duofPTQ018Y8HyEhOR1bBjxaTU7Wkp1ayoUYhWpGR2LJ2oonV1che2hcGvJ7oNXQ2DiQuxCDHCJxVO0+zpRai94cxwcoR0f804pCOoZExtN7wjlM2MboYsYs8ITAbh9kZbN5A3mOhjyMdQ2t5q3W5PZyAJhQKER8fx4S6Oq7vlGJ8ubwUwy0kb6Q9YGTliOE+/vB1s4Pz0IGwsx2KZZe/SFtQulGvAdU/PuPTp1KU/9bcokw3ZVKTKzUKUSMQ9+jOYhQiLvsLoVYGcA4/gpekG15UiL1jTWAXuBdPNFjdVlh6Dau8zCAYsgGPm1yWUqARK0cTOC+4gxRZ7/vZhVi3YhHGjB4Ec8NGb0FGtp7wCovF6nOlzQYkN7IwuX9vCjTuP6tOm5IT0FpTelFxKkKsG2FmYDMS0Wm5aJzfLER+fBjW3qvH78JjiPQMRuon+bGu1pxP8RjxzzykrQrGCAdBU8uwB3iGpug3KgLbMotaWEAqHq/u/9raWmzdsglrVq3UmxCzLBqrV61UV3Wtx5OlbNzdBzGGDcS4QR+CjY0l9u3b3aSVGGVHg9BvYgJey/jN/v1gLYaZ9IS52xRsPvUQpQrTTJqFFuN3yUOcjp8FL+Iiy8gJUdd/SsffKNAI0AzAt56A2WnKWmlsXY0lSPjrHGZPcoeJBhOrqdl+853Z2bY4AY0s6nn0aCoTGhq4DDwJ8TreA0aki9FiNOIey1qGNAONdAmVZ0yH37ZnWu0CbHh/ErMHGMl4DugJEys7ODk7oLc5n3GaPHrjLbTWYp/AbLyfL0K9x2Lv/CV6EeJnzYedtSWjWXvepARmvXtbIzp6KdasWa0XYezYMTA2NsSKFcubpKzCmfnBOPBW8cWtDq+PBMOhqfVgYNobg0ePR2jETMxfMA/zZ0dg2iQfeLpawliycgXfEr7bH8l536FAK0HsxiUYOaQvTK094L8uGwdZzfPloZZ8NBEhkSsQMn8jIpYfwBrW7kj5Y4jrKwq09nxCaHYuTkDTfB5aLc7PMAWP9wdcV+RA/sVTFmiA8PlmeIUeg9bmN4uKsH8cOXej6yvPebtx+eWP5vXRhJUour4D4W7OmHlOc7NpCczmTQhC9bmbqLlwq8uHsvRLGDlwIMI8vGBjZaHZHdSG1BKYbd68CQkJCXoRJk8OQp8+NnB3H4wNG9Y1qtPwAHHrT+Mnq1a1eHs2GqM5OCfmmQ3EnLR8Oe83JEsKtGboJGZcxZKlyzBh1Q0cke1+1OI2BRrrjdwpduoIaHW4vsAafJ4A4acVJ6LJAk2ET4f9YR2U2urWkqKKDU/Ww5288fJtEZJcqNSKTPjuICZN3IkixZdmxQxl/tdnmEWOGosrS9e1G9D0GWbTpk3D8OHDmoFWfRYHkj+pHCsWluXi+KYIjHGxaOzZkHrV4cGinwdCYw4hp4R9/JoCrRlokrXLlH5nP0TknN3YzaEFpywPCjSZh2In29QR0MT4nj4FVnxDBKYqzrUhQJuCqIyHyEpaCA9LPlxX3m1uQbVRoNpz4TDj9YCR5zYUqLIBEZfgYFAY0jkOyBOY+Y/zgT62zGaO9sG91XHtBjR9h9msWbPkgSb6jWp2r8Msd7sI1d/eouDpIzx69gofv1WpnStZWVmBR48e4fXrVyz56ccu1Wb78kBLuf4GCRdeYN+5F9grF54gbmcM3LzjKND047ZoUQsdAQ1A3XPs9rWAZcAhyM9vFiI/dljzW6iZF3bmcxmXa1F21h31d5bDxaAHzKafUejqVEje8AxbvQKRzMFsujvArL2A1h1g1gJoCreeZv+K8DFxK45+UXB7o1kmXT61eqAVYeOKSAx0MIOhZLxR2spttHCUeNs3HB5Lgdbl7wj2CugOaGQWUNUTJM/xhPeCVDz9KenbawaageUQLD4tv7YTezE12Ft7H6vd+DAaGYvXbC202rfIStyK6KD+MHdcjGz2XhzpCQnMPIYPxfjhI3B+3TZcXB/b5QOph+fAAZC0zAjM2gNoR44kwdRUAB+fMZg4cYJeBE/PEcyYGelmJCCTBLkuR+ndpGRDVIdfFeX4/r0MZWXy4UvRTWweH6JygdKnT59g+vRp2LRpo5ITdP3dqoFWir0bJ8NCCrKeMDDkw1BJMPbcToHW9W8J1hpwAhrxtt+3rwMTfv3SdDK0EBWF2bh0/3PTGIIYPx6eRPLJLBT8YCMOazk12ll1Zz1GWjkg8kypwriFGF/ICsbMmxsfg9c+UN2KA/D337fR28IMwcM9EDLcUy/C6P6u8HDpz0BMArP2AFpYWCj693fG6NGj9CaYm5tg3LhxUpBpArSqJ8mI8neBlaB5rqakFSH3LRiHwypW3KZjaMTThyl4fDMMmHkS2y+VNM8x06IxiGRMjY6hafQ4btfEnICmeYnqcef4CRSp41X9fSQn52lt/Ky5nGJUPE5GVMBYRMRlouhXc3dN1dWFcDYxhdv0RLxQtFdpzkC6RYAWMHgIqpPP6k04uWgFJg4b0e5Ai4yMQFBQIGJiYvQm2NnZMi1NCcgk3+paaOKy05hh1wwyviEfAoEBe7AIQJKKLkcKtE9YMbk3DMxDseSa/HiaBELa/KZAkz4eO90GZ6ARf3EkcPvUImOWH+Kf/5JO/mQ7rr44DeEjFiGLA1jYjle/rx7lhffx/Iuku7PxCLG4GXDq8qBAU6cQ93gKtGatajNnwJLXE1a+m3DjfVWb5mFSoH1F4oEo2Jv7YNZZGQ8grK2zYuw/V9Amk34KtOb7uLNtcQJaa+ahZYQZgsfjQWAiYMZNyNiJXDDhN3rw4Fsi4kyz1wPtCyTEr7KPePepDNXqWowsJ6dAYxGllbso0JqFq89eDEfDXpiV2boV0ZpzovPQGltf77F5iT/cZlzEIVaQNbXcbmQhJHQHHUOTvYH0aFvHQJO3LpIbF5CxQLIIPaFk0mkblK4vxs098+DrYiZdOZtv0hue4atx9GEZ5zdiCrQ2XAOFQynQZASpuY+17hYITPmmsheDHNFQXoafKgyBaQutBNt37sHsP7fAf/ggDJu5HbP/3MUStmNamDdsRlArR5k7Ua82dQe0cCeE7LmJguKvLSy3ysq+oejmHkTNWIqUh8Uoq6xV+6PWRHVxxR1s87Fs9uEoA08Gqoa9MWFXLrhMQaNA00R51Wkp0OT1qXlxACEB63BfpZ1VA57GLcMRFUYhL1++xKJFC7Br1075E+jRf6qtHIuxblo/5b93hd8/NdvXoxtDoSo6A9rZNWvVrgYtKjmMQJdAJL6S8diqUECN/xX/wMXZ9szNbWDpiqCorThyNgv3n7zEq1fP8ej2eSSunwp3675YeFV9VycFmsZXQOkBFGjN0gjf30RaagoOxIzDiNBNSEpNQSpLSNq7AgHO/iqtHJtz1d8t1UD7iuTU1XAy5MGsrycGj56IEWOD4OHDHkbOTscB6ilEL28WHQENENbXq2l1iVB8PAR9+D1hHXlOztlqW5QWFSfAz8QALmEHkPtD3hhENt9fD9dh9MQEqHP0T4Emq1rbtinQmvVreLgSA5qcEivripfuV2O2/+PHD2Rn30ReXl7zCfRsSx3QjmY/wkyf6Yi6Sq0c9ezSa1QdnQFNbSnE33BkggF4vJ6wmXlBa0CruzQLvd1X46G6sXbRe+wLjECGyu6exnlo3cVsf0/YLNj3sVV76VqboLsAbcaMGXBwsMP+/fuUSyXMR/xIAxhZu8InMBhTw6YiPDyMPURuQdZP5Za5dAyNQKwUCYfOYeMVCjTlN53+x3ACGjFzJy0VEshin4qfhrJ83H9SAnUMkT9OjMonfyF+82osWn4CHDxQyR+u5L/a8xEYGJWl1Cmx9DDhK8SPDcQRNSfuLi20QxHzYWNpgQcP7ksl0vZGdwAagZmTU1/MnDkDqqeHiFCcFIYF59s+Z4UCjQViN95if0YudmTk4/BNlnhVlpBq4qjZvrafDNrLjxPQVJ6u8goW9eODZ+CIZTkajoX9KkD6oiGwHn8QKsa8VZ5eMVL4dBNGhaTgm/IXWuKUC+VZi+FmPxdX5de2UcyOgbi+t9DaA2ZEWH0HGneYNd5m4spHyHkqu1Zgi9uP0w4KNAmwSnHg0B4EjB4ES+M/pOshGpjawdnvTyxJe6cVDyIUaJxuyw5JxAloZEL1/PnzmEB8G8p+hC82Y5gRWXvMHkuyuQFN/KsIV/cugI8jmavWAwJ/7QENwqfY4umM8CMvUcUCNXHVG1zbOQ1u5n+gz8zzatdh0/cWWnvBjNwz+gw0TWEm+xuSbovq8LumQc3YszS1dIMCjQCtGNvXhaK3QGaqEN8QpjZ2sFYYKBsAACAASURBVLG1hLFhD/DNhyFoVz5S1LTA1HkVoUCT3nqdboMT0FROrK65hWjnP8C3noGLal42G77n4eSmaRhuw5e+PWkdaBCj8tYKDDHhw8p1JILCZ2HB4gWYP3sagn0Hw8Gs8c2NbzsBSW9adp8qXiF9Blp7wozoqq9AGz9+PMduRsW7C8CvVzi/LRK+btYwMWh8GBua22FowDzEZ77mNLZMgfYVKWmbMcC0UT++hTtGLzqGLec/SVtkyZdysHxBEPrYT8Hic+q8iUhafOzfFGgs93En2dV2oEGMskvzMcCkLyJPvmV19lvz6RYSlwfA1bzJdx3fBK6By5CYVYBvxecRNT9Ra12OjboKUZq1GYFORnLglFiNmbhORcKjSk5vwvoKtJH9XXU+ZqZ4j+sj0Mjq1H362HIYM1NUAxB/uYRlw03Bl8yTMrKA03BvBPi6wsHZHYPtrDB82SUoeG5rkREFWjE2zujPTNXhW/lj1rGPUpDJt7ZKEB89DoMW3mlTK40CrcUt2Gl2aAFopC4N+Jy1BcGuVnDxX4Dtp/PwrU6EyoIL2D53JOwl3QCGvTBk2nqk55XJLFpYjddPXqPtQ+MsmtZ9xePze7EuKhJhwZMwddZSxKX9g08aWK8QoBEQTvPw0pvg3d8VJsaGOjUAYbkaiIgIh4HBH+jd20ZvgpERH5MnB6kxAGFRQ1SMYyGWjTAzsMSo6KPI/dbYZS/Mj0X42ruo//0aaZHDMSX1o8KqES3z+++//1ru1KM9qs32P2Cxr4Bxtddv7m0kq+hSTDm1De4+B3BQRRp5CLZspVGgdd4bS0tAa6pgQxken4nHwvHOsLG2hEVTFwpP0Buj5sYj8xW3VlFnkovM8cnMvKh3oSNWNy4u/oRnz57qVXj+/JnmMAMgfB0HLzL2zDPFmLg8yPbWS4FGzJfKT2KG3xY8V9873il+NmxW0NoomGqgfcLqUAfweQJ4bPygpHXWCKYjSSvg5LUDe+nEam1clk6Xh3aBJq2eCFVF13F41RQM722IXkPCsPn4HRRr0DKSZqXhRv2D0zgvv0Q2Sw71eHAkCY+42bCwHN/VdglR9Tkfd6+cwKG4VYg5/JC1a7ir1aqjyiusKsHLO5dw4uA2bPnraauWP6o9Px0WvB4wcF2OO/J2VpAFGoTPsMUrBGkVymt761Y2HBz6IDQ0WHmidorZuHE97t69o/WzqQYa8ba/GH0MeXCa+w9rCy3xeDoi58yGu4MxrCafQhJtoWn9GnWGDDkBjVg5kvEPEmpqNKRS7Wc8SN+Kub6OsLIdjCkrDuDqqwqZLpR6lJV8a9VDgU3A2tNzELTrCSpUvNGKaz4gLXwoFl+XfS9my00f9v3GizO7ELc6GAOMSYvAEP6HSjiNH+pD7bVbh2o8y9iODYt94Mi0rowQkFjaKi3rrs9Db34PmIZntOhulwWa6NNBBFhPxNFyFpPdpsp1pjG0pUujQLphT506qVXp1QHt6O1CrJ7hDlPbECzK+CzfSst+gpkeTePphi6YmKC6FUe7HLV66do1M05A006JhPhZcAkHlk+Cu40FnH3nIPZ4Fp4UXMSKKO0ZhdRmhMKY1wN8I0P55Woky9eYGMCQWaq9J6zDT0HFc0I71e4sudTfxUrXP8Az8sTOIuUuwTpLcTt1OepzEONMtByFPW9bp6X4+wlMteoJ48AUfFdgFQHa1KiTyM1KxGIPcxi5rlDpF7UzAW3+/LlSQ6zY2K1au4zqgfYVR7NfYcOKSLgNnYyQbXdwSNqtWIhlk+xhZOoMj+U3cbgNrTMCOzqGprXLqvWMOAGNeDx4+PABE7TSR/77E3LSNmKmtz1MtDwPTQI0iUWjym/zEJz4qXVNO2WGok/74SvoAaMhm/BMReu1Uxa+kxVKquXwLXjZai3r8GL3GFhZ+iNRoYtcmL8VI5gWIGlRG2P0znwZI6qWYnQmoC1ZslgKNPLbmzdvDhoaVKx907I6rHs4AU0Cqqx8xB64obDmWSlSpIBraeihrlUmG0+BxnqJOsVOTkBTOQ+tTdVowJebK+EdfEhrZvu1GTMwZtVVFJb+wM+fP1uGH6+RsWQKVlx4g/KKX6hTeDtuU3U67cFifEsJgCnvD7iuvKu17t1OW12dFkyMb8kBMOHxMHD1A5WgUVsMcSWeJs+Cl/c8HHv6U9oNLwWagTmGLc7AezU86ExAI12OBGRkTM/QkMds+/uPQ1VVpVo5VCVQB7TkrE9tMMX/jITzr1jH3mRBJtmmQFN1pTo2roOBRsy4KvDk3ks5K6+2SFJ7eSf2qjMJq7qBaM9x2POiri2n6kLHVuBUmBl4BnZYfEPBAqEL1aJTFFX8E+mhpk2ecbRz/wgrXuPWpXv43NR7Kf7xABnJ6cgq+MFpIdrOCLT4+Djcvn0LFhamDNQGDRqAT58+tvoSqgbaByyOWIa1N1rb8nqLqKlzsfQSt+Mp0Fp9GXV+YMcDTdtVrP2FarXdQPW4E9MPlgGH1C4fw7V4YpF8U0/YoMqFkRgVz++jQI2nf4irkP/wOSrls+ZWJHEDauuanpDVFzHbtmejNxd15+SWeydKVYWi52/VO8b+VYjnb7Qw2/HXeURa9wTfdhYutcGmqP5OGtKL1N2o9XiQfAR5aqxxP3/+jLS0Y7h+/VqHXxdJC40AjXxevSpA374ODNRsba1avcSNOqAt9OkN58BViIhhW6laxb4V2xGxYD7cbM0wZOUTTq08CrQOv82UFkDvgFZ7dj225Krpo0ENshbbw8AkCGmtGUMT/0T+1WPYt2UZ5ob6YLiLPUKPfmOs3cQVuUiYMRC9jGwQeU5J5vV52DxcgN4Bu/FE6UPxF/J2+cHW1ANxL9TVp/n6Cr/dwaEof7i7uMBtQD8MCduP+5mL4GjQAxahJ6BiFZLmTNpzS1yBwlsZOLJzLZZEBmLMkP4IP/alUcuqxzgybzhszRyx+Br7+uL1jzdiqIkdQhLzlUOt+jH2TrCB6ajtKFDHEJm6i74/ROqfk+AxwBmuri7wmncUTzLnw4HfA5bTTqr1AyqTVYvN2oxIjI9/hl+qXlbqi3E8fBiisrQA4hYl0M0ORaCRs5AV6keOHMFAzcTECBcvXtD45GqBNpYsRdXo+qq134Zu6xDLwTM/BZrGl6/dDtA/oGWEYcDkrfgr8zJIV4x8uITM06nYHTMeTsSEvdc0nGlVi+U3yoqLUZwXB1+THuAJxmD/RxHEP3OwabRFkysjQ0w48k3phax/k4bpToawC9yP5y2eV9V4um88+hj3Q+TJ9xzHaUT4lr0JfvaW8FpxHo2NkWo83zEOjlbEvZIRJiQ1gkJpoToiQvwLJUWFKMzZiFHEo4xgNPa9F0FccQdbxzZrGZj6XUnpalGQNBkOxvYITXnVcn7d72dICLSFsdM0HH+rpqkjPYMIZf9swwRHS4yMPoXX5B4RV+DhZm/07U3KJEBgauMLjPQQDTckxkuGAgG7Na6pEYwYxwQ9YR1xWuWLyJs3b0AsCkkrTfIRiUQgraT2DhKYSFpokvKQ6T5knpwkfu/e3ZIoTt/qgWYEE/sRcPcOVLpStbIVrKX7/dZiFYf11CjQOF2yDkmkh0BrNNuX/HCUfwswZNXfYH/v53YtxJ8T4EcsBz22oaD2DY7OC0d8TgHSwixgQKzX3qs26a4rTEFYX0M4TD6IfOn0vt94cXAi7AUOmHasUP26bkxRxfhyeTHcTQ0xeFmW3FQE0ce98CEWc4LR2PtOdXm41Vo3qcQlzVrm177FsXlh2JqVh0NBpuD3Uqdlo2Z2xg4ITytq1qwmH4nBfSBwDEFKIdfxLjG+XVuKoWaGcFt6Xc6kXvRmJ0YxWo7BfnVLnauRSQI05fenTGvDIgTpShr75DRsY2j19fVSeHA6RxtbN4rnUAQaKSeB7J9/xkjLRSwiuVpNqwPaoknTEZXJbQxMYtzR2m8KNDU3dwdGcwIaKd///vc/JnRgWTmdmjwoTIytMdBzFHx8vOWD7xj4+gcgdGY0dp7Pb93YlEwpKjPCYMnjwW1tDh7vnoFlmY1v7aKKN3j+lpubr9qCRExxMIRj6BG8qqlBQeJkOAj6IDgxv2VrQ+bcspv1Bfvgb9UTJp6b8EgKxsYUwueNy/sYjdiKfA2622Tzb4/tqjPTYCWjZXTmV6bbsaHsJXILmy0AlZelmmnV9jbuhxkn3qK+9hWSQ+0hsJ+IQy8VRFGeCRoKExBg3RMmIzYgV6Hl3PB0A4YY9oDRyFi8aqOWtRlh6B+yC9kFxfhWVoYyxVB0A/uipiM65QGKyypQq6JrUh3QZsyYjujoJe0abtzIUqpyYuIh8PmNjsoDAydweq6oBloJYvddbJM7K03gRoGm9NJ2eARnoHV4STkWoPb0Isw9/aNV3hs4nqIp2W9cnmcNvoEDFh2IxYItOa1u7f1+kYAgewM4jBgGB4ENJu5/2sJ7hNKyid4gwd8MPMP+WJGjOCAnRslhP8bE3G3NQ45dl0rPpMOIGlydb6sFLavwaIcvbEz6YpSXPQS9/bFX+SBly/qI3uJwgDn4hs5YdltRSxGKD41jtBy0Pq/NWtaeXY3199R0gYpKkBjYD5MSC1ROtVAHtMpKFX6zWqrQLnuuXbvKdLWSlt3Qoe4oLS1VeV7VQPuKxMtvcUQyD03Zd/Zr7DnXNi8hBHwUaCovVYdGcgIa6b4YONCVCaSlptWPWIi6eu11hQkLc3C/TMXrrLYKX3cL0X3JOnDeCJm/FfcUn38anacGjzYOgRGZZO6xGU81sKyvujKPMfgwDTiIYkUZhQXY7mUAnoEDlt7i2uWmUcG1k7juHyxzIlqOwZS2almTi/VDyHp7hvCKf6kSBIqFr7o2v1FL/wQozHUGpFo6YrmmK7Mrnoj8L6xHvZrbVFSchtA+xDo1AudVjPV2RaARCV68eA57+95MFySZt0b+V/ZRDTRith+t3mw/6ywCJ+/DnjZOsKZAU3aVOn4/J6BpPrG6Fhfjd+IFh24Z4atYeE/U4orV7aRpQ+5qDDTsAZ7pIKy63ZaRuDoUHZ0CR4EtAlYsw/jehnCJPIF3XAwbxd/xV6gZ401iUpOVZXP1xfh+LgL2/B7g956NywrdZ83pOn6LaOlGtDRzx+p/2qBlXRHSwh1gbOePZUvHwMbEFfPPFXOaywXxD5wINQePMfho7O5sVqZRSweDHuDbzcNV7j2YzVlovCVG2ZHxEBA3bjYzcFEPgUYkIS0z0kIjLTVTU4HSqQfqgEbM9l2CVmPGCnYT/VnLtyB0GrEa9kT4Xwq+HrPuYcncBZi8/jYnt1gUaBrfzO12gM6AljHTG5tyK9R2/WkbaA2P9yFioj8CAsZjYsgsbMp83+SB4RfyT61FZKAv/INnY/PpfE6rAbNfCSFebhsKI15PWE1Jwxc1b9rseZC9DXiXHgEXY2sE7H3MTC7/lbcT422NMGDuaXxS90JQfR6RVj3BMxqBeIVBHfHPa1jmbgJDXg9Yhp9C2/w0KK9B22OEyI8d1qTlsdZr2fAeJyOdYCzpZhRX4EGcN6xNByIqs1TqhUNpeaVaDkecgm2/+Od1LHc3gQG53hGnNe9abihD/v3HKNEQhOLKxzgRvxFrF0UjXUWvw/379zB6tBcWL14orZ6sUUhn7HKUFrRpfJ6MpRGokbE1Msam+FELNM5m+zw4zroh5xUkKXYazIh/V5MgLOJo5UgsS/Py8jo0EKfx9COvgO6AFmYInoEANn2dMGBAf+XByRImZjbo7zYQw7z8MHXRJhy9U9JsqSZfXrX/NVoe8tFvyk7klErGKEQoORkG8oZN3sAdR47D2IH9MPFwIbe3d8Wzit5ijzef8byx4JqKV2fF4+T+F6L47BwMMLGC/848ObhW5cZjnI0AbosuoESxG1EmD2HR9sY1tYwD5ZcXEX3G6YXBmBbYFwY8AYJatN5kMunoTdE77B1jAB6/D+ZfbaWWwmKcm+8KE9tx2Jknk4e4Ave2jIaVuTuWXfuqEmoiWS1lLQqJloumIjzQAQY8YwSnfVf7kiYvaQWuLnKAEe8POC37R6MuUOAXXqUvwDBrPxwu1eytqSsBjehFrB2johZJLSBXrlzBWEVKtFQPNCOY2A3H4NETMNxbdfCYdQIJMt2OKadT4efuAufAQ9ghs1+ZoQhpoU2aFCgtKwFxR4Ty8nKJPPS7SQHdAq21F5pvDs8VV1r1tl5/dzncPNbLW/tVXsECxz8YmHmsu9No3Vh1CzEBy/GPhHka3BLi0sMIMOkBg75RuKXBeFfzKUQovbQIg00t4Rv/EFUtnlViVD7YBh9rYwyJvoJvSqAmfB2LkcSM3MgTOyQe9MUVuLt1MqYnZGAdGUsyGo2974Woyk3AniuaPoybS6yrLXFpIiYwWi5GtoYtGKZMolJcihoIU+uxiM9lsSwV/0TOppGwshiGVTeV15/0FLBpeWdLMCITM7BmMI+Zb3igWIiqBwlIuKG+94Epn/A5tg4jY3p/wHHJTW5AE/9C0dXdWORjz6wcwROMUwk0MiRAuu7IYrSST1cDmqTce/bsksKBzFuTLFelDmiLgiM5u65SBiqu+wnQ5s+fBxeXfu0e+vVr9LpCAEqBJrlrmr91B7RwB/itPoqrOQ/w6HEeHisJj84vxTDvtcgizfdHuXhw929kXUzFlmleCD/6SeVbdXM1mrdqL8xG4J63MscJUbRnNOPV38AlCtnSF/haXJw/DamKa3c0Z6VkS4zyv4JhzusJh8VZnE3r5TKrf4L40Q7wib2nYuqAGBX3NmNsvzHYna9kQO33Fcy3I+bPf8AuYB2OnzuOuMgR8I65jrKyZAQa9wDfKgQHr+zE3AVHUNgKeMuVW+v/iFF+IhgWbdCy/mksRvf1Rux9FYAR/8DtdZ7o67cPr5V14/6+jPl9ZLQ8m4bYCA+MXXUDZeQFRtADfOswJF6Kx5xFqXij5JK0lKgGt6P7woDfCzMvqrEcaviOxyc3YvpwS8ZASPrWrwZoXdUopKVWYLobJfWWNelXDbQS7Ei8gQMcWldcoaUqXUeOoZG5fBJ9KNBa3kGcgEZEPHQogQnkzU/9pxZnN2zEQw4/eqVjaDVZiJ68lZNhiWx5ai/OwbQjzYP64u9nMdOhsXU2dm9RM+hExTgUNg+ZGrcKqnA+shf4PHOEn27DyFRdLadu1bpaVdaJDShMmgQHYlBBWsPG9gjYfINp0Ym/JGEi8WLCM4RzaAKeSEEuq1ZHb2tHS9UaSepYB5VSoh6vE4NktHTAxG23QIauxCUH4c8sjmrEaPlUDZckZ5R8i8sysXCAAM6R6XjL1qKv+YjbidEIdDVp8jLTE+auAYhJzMKrb59wIWouklR0OeoD0MgzhnQzSh7WipOuVQNNcUJ1KRIv5CH+2B3sOPtGvTm/MjN/Jfsp0CR3duf75gQ0zYtdh3/SToCLYwplQBOXnUCYQyhOafjwEL3bh0DfdbjzQwRR5RMcDrWHAVnq3mE2MqWODBtQfH4u3AMPa23ZGs010tYR9fiSdxF/HT+Hu+9lxfqNoqy/cOrmaxWtQG2VQV/yIVpeYNGyGoXXjuPUzUKW7mFudW/4nIVtwS6wdRmHRdszkPetDqLKfFzcPhuj7CV+CHmwHjIVG9PzUCbzMlj9+jEKVVipdnWgcXGLxQ1oHxC/dQU8XK1hxCziS17oeDCx88ToeccQd1URfK37nwKN2z3fEak4AY0M2O7bt5cJ3FpoGlRFWI0f5b+bW04AaopOIdrLAgbWM5HJ9karKnvxT1xb7AQjIwFMJIskGvRB2F+k+1KMqrxUrAgZCCuDHjAauraFNwhVWcvG5efnY8uWzXoVli9fhlu3smWrqfNtsnjs8uXRGDnSQ2+Cp+cIODra49mzpwr6NaDs8WlsX+gHVxtLWFuQngPy0DWA/ajZ2J5Z0CpgdmWgEQ8pso6LL1w4r6BZ47/qgfYWGxaMarRWZB277wljp+lYcPwTVHUncomjQGO9RJ1iJyegaT4Pjb1uorrfqGloYQEhn7jqEuYzXYQ94TDnIirUJJc/uOm/2iKcXRuMka4OcB0+ETEnmtdbE9VWoUKy8GcrF/h88eIFrHtbwWNmKLwXz9SL4B4SAL7BH1goY/rNqq0WdxKYzZkzC4MHuyEmZjlWrIjp8oG8FBCrXiMjvsqXA1FVIbIO/4mpw61h3GsQwjen4W6xxv3fzNXoqkAjS8tIjBzI0jKPHj1SenepA1rSoeim7uI/YDYgFMErj2Ntyj3syniMHamXsXzVCozsbw6jfvOxiuO6Z8rgRoGm9DJ1eITOgfbr9TlsmzUWbr2NmK4/0gVg7uCOgPlxyCxkGdipzUW8vzMGBKxDloq5N21WTvQRGftOarwemgRmwTs3IObeJb0I0xJ3wMzaAqbjPbB2/do2S8slAwnM3N0HYc+ePUhISOjyYd++fRgxYhiz1IyLixP+/vs2Bylq8fnBCcTOHQMnKysMmbIcCVcLUCFj2VpfVoIyFUPXXRFosot/urm5ql38UzXQPmFNqAP4PB5sxx/CjiwlXYnX/sHM0Q5wW5rLad0zCjQOt28nS6JDoBEP8Esx3KLRCSnpWjGycsRwH3/4utnBeehA2NkOxbLLX+S6G9tNH2EB4r36IPAgdyfA+gwz280L0WvmxHYBmr7DLDIyEv37O3MEWvMdL/yZj8sHohHsbgkr57GYF5uGG0/ykblikUqjkOrqahQWvkZx8SdpZrJm+7NmRSImZlm7huzsm9KyKG6kpR2FoSGP6W718/MFl4nfqoH2AYt9jcC3CsUSNR73k4+sgIvvQRxUYvChDGKy+2kLTfGKdp7/dQY0UXEqQqwbYWZgMxLRabn4xrxlCpEfH4a19+rxu/AYIj2DkdrGpTjk5CTrVu2LgJeLFSxMDGEsMICANfBhSAaODftgYtzfKFNmzt2Uub7DrO+Zne0CNAnMhgzRz5YZgdmsWbNaBbTm+/g3inOOYtPMUXBk1ttTPQ+t+bjmLVmgSSwH2/ObbfmY//77Dxs2rJNaMs6dOxsNDTLWL83Fb7GlGmjF2DDDBUbDY7Fbjel+yl8bMHDUTuyTS1eKxGsfOY+tUaC1uDydZoeOgCbE63iPxrk0FqMR91jW+q4ZaIAY5RnT4bftWes8drDI2PB4HdwlxiCsg8NNJu5ycTxYDZmCTZc/suRInKg2jpnpYzcjaZkRmLUH0LoLzNoOtObbsOHLDazynoREFWb7ubm5CAwMYMzeJUcSM/ht27a0e5BAUxFodXV1IMvYSOLj4rZJisrpWzXQviIlbRsGOUciRqXrqiKsCR8E+/DL8qb82bmImLQCG5R1VSq05ijQOF2yDknECWjkbY+8UZPAzdt+Lc7PMGUm/LquyFGYfCwLNICs1+UVeqxNy9nLKld3eTasDczhuzkLhaU/8FNiAKL4/f0hNnn5Yc+r8qY0Faj83fJtkTwsLCzNMGrhDExN2KYXYcKmGGbMTBZm7QG0kJBJsLW1xvjx/pg4MUAvAjEAcXV1gaRlRmCmTaCRl76KJ3fxUvadUPaGV7LAp0KSdvt36dIoBlqyQCO/wTFjRjP7ibHMqVMnNS6PaqB9xp6kE5gTPAzOk3Zh2fYTWK4QojfEIcjHFSbGA+G76i9p/LLYVCyKiYKbTW+M3lbIqZVGgabx5Wu3AzgBTfPS1OH6Amtmqfrw04oTaGSBJsKnw/6wDkqVW2VZ8/PJHFF1E8vcXBFzR9WEZOI8rgDx3uNVuhQiuU4NC4W5oy3sPAbrTTDtbQnLBSHSlll7tdCsrCzg4TEC3t6j9CaQFkdERAQDMQnMtAs0mXtbySabUYiSpDrfrQi0t2/fwtXVmYEZuf53795pVRlUA+0TVoXYNU1KZ+uB4bbP2GMHdsl1RbIbl1CgteoStstBnIFGBm5JIP3g6j9ifE+fAiu+IQJTFf3nEaBNQVTGQ2QlLYSHJR+uK+9y83Gn/sRMiro3Z7Epegduq3JrJSrBmTWbcVU62Zo9czKg7rVxCaZln9CbYOM5CLYb5rU70Hr3tsbChQsRExOjN4F4h1dsnVGg9QBpod27dxfW1r0YmPXv7wQCt9Z+VAPtK44cjoa9QQ8YWjjAwXUInN2GwWWQhmHoYixX2WXZCDgKtNZeRd0fxwlorZqHVvccu30tYBlwSGGxRMlyIU1vTWZe2KnMV2Er6l9/Jw3pRWosPFCPB8lHkKfCFFpyago0iRJt/6ZAa7uGbDl0xhYaaZURYyzSgiUt8rb6HVQHtKPZ9xDuFYL5F9hbVbJWim3dpkBjuws7xz7dAQ2AuOoJkud4wntBKp7+lEysaQaageUQLD79vs3L2ctKWZsRifHxz/BL1YTs+mIcDx+GqCzF7lDZnBq3KdBaatLaPRRorVVO9XGdEWgS4w9iCEJeiNv6UQu026XYv+sY1rRx0jQX2FGgtfVq6u54nQKtsdhCVBRm49L9z03zzcT48fAkkk9moeCHupaU5hWvzQhlltwwFAiYFXDJKrjywQhGzLpoPWEdcRpqehxBgab5NVB2BAWaMmXatv/161dYtWolDh8+2LaMtHD0/PlzmVYZARox0ec2RKH+xOqB1rJllnL9HRJvlHIy9OACMkkaCjT116ujUugcaMLqcnyvqG23ydMSoEneEFV+W4QgXXYxR5arQIHGIkord1GgtVK4LnQYMQohk6aPHUvVaqm5Au3Q0SMI9h+JPpaGTUYiPBjbDITbxNVYcuyNVuBGgabVS6vVzHQHtNpXSJs/DNbMnDABnCfH4U55Uz9gfSEy1s7GnJh9uPW5pal8W2pYmxGG/iG7kF1QjG9lZSDOT+VC0Q3si5qO6JQHKC6rQK2qrkmAttDacjEUjqVAUxCE079CFB3djfMqDJy+ffsK4tQ3JyeHU466TLRu3RoQt1ba/qgHWil2b5sDR9Nmz0QG5nZwdPeGa19b2Di7wKKXG/y2PWmT5GYd1gAAIABJREFU2yvSSqNA0/bV1V5+OgKaCG/2Ni6q2dhCIjdZT9hOTsF7ESCULHfP6wGB21Jkqev306C+tWdXY/09NdYeohIkBvbDpMQCtdaVtIWmgfhqklKgqRGIJbrmTRqmu/qrnF7SmcbQtL4aR5Mm6oCWcmoPhja52eP3GoZxq65gDzNRugRb5gZh4v5POHxsL0YOGI/Z6Z/b1FKjQGO5UTvJLk5AIx4e8siK0nl5IB4I1H+aJlYb9EHQ7hx8rqnHz+dpmD/EEZFnfkAsrkTBlaM4cjgeC7x6w3ef7ArT6nNXmUJYj3o1rS5RcRpC+/QE3zoC51n8I8vm362A5jMcmzZvlK2+Vre7C9CCg4Nhbm6Cly9ftlK/epTlnULcnNGcXF91JqC1ssJqD1MNtBJsmzek0fm56QiEHH4rA6xmoB0lhiPrJ2Pg7BtIVvD+IRkf4/JNgab2cnVYAk5A07x0DXi0bgCMB63FI5kexfrnsfAdvxOyVvXCgm3wnXEKariieRGUHiFG2ZHxEPB6gG8zAxfVnLi7AM16ii/cPYaiqqpKqXJtjegOQCMws7Q0x+nTGZrL1fAdT07HYp6PA0xkXbMJVPtypED7gKhxJoxnItvQ80iUg5Us0L4iOWkFnL33IkEuTUuDElVgo0DT/NZuryM4AY04EJ02bSoTyOqyXD6i90mY5DoNGXLdiRW4OHcs1uc2dwmKPu1DwKREZql7LvlqI4248jFOxG9F8t1vao1VugPQ2gNm5LrpO9BaC7OG709wNn4ufPsKpBaChtZuCPkzAZk52UiIiFTpy5EC7SOWB1qCzzOCx4Z3Mq0zAipZoH3GjmhvmI7cjf0cPIIogxoFmjaewrrJgxPQWjWxGiIUn5yBoE0PITvbq/b2MoxbfqvRv2NdCa4tHwKb8NNQ4apONzWHCB8Tt+LoF9X9k/oOtPaCmb4DTXOYCfHj+VnsWOADJ6khAw9Wgyfhz8NZeCszkbIq7x88VtFwpkArxb61E2HKN8DgP18oGH0QoE2Ez/rLiFkeiX5mPNiGXZR3Tqxha40CTUePZC1kqyOgifHzzk7M8HGFrWkvOLkNwKBBTcHNHr3MbOA6sB/szPng8QTwP/RJbUupVXUV1eFXRTm+f1ewdCwrw5eim9g8PkTlmy85pz4DrT1hRrTU1xbapEmTNO5mrL+7Gm5kaRjStWhogcHBy3H4xlvVDgGU/Aiysq7DzMwYAQH+SlJ0/d2qx9C+4uj1mwgbYgaTEXHYIdf6KsGWOYOaFhfuAZ7xMExNKVZoxdEux65/hzTWQEdAq8XFSDNp94nyuWAGcJi4E4/UjGNpKnbVk2RE+bvAStBswstaBjVjE+S8+go089HuOh8zU7xu+gq0Xr3MWjVmVv/tEU7FzoKPmyvGzY/Dmcdlaq1uFTXtLv+rBdrtr0i5lIVZAUPhErgHGy9ILBmbgcY3GwifDffb1Doj3ZC0hdZ57zodAU2M0r9CYGvhjQ2ZOch9lIfHj2XCk8d4+uwlikoqtP4DFpedxgy7ZpDxDflKFvg0gMAiAElquhwjIyNgameFfhO89SYIrM3hPMBFpwYgbLc8eakwNjZkLACJFaA+BOKcuDXLocjp0/AdT8/GY6H/QLiNjcTW9AcolVksouZdAd5zG7qWy1af/uECtMYxrxIkHMvA0v2Pm7oeS7E/4RBmrUvH1vMlbWqZScbUKNA6752lI6ARR45luLE+HMvOFWtt8U4uMtZmzoAlryesfDfhxvuqNp/74cMHzAOLPLT0JWRknGx3mJFrRyYAl5aW6lX48eMHl9uSYxohyl9ewJ6o8XAf4InpG1Jwq7AYt9ctxREVC3xmZWUxLwcTJozneJ6ul4wr0JKv5GPfxQ8K42iadSlKwKXsmwKt894/nID277//IipqERNqazVxNFqHn2WqW2GiTyexL+Oj1sbQ6rMXw9GwF2ZldvNX2s57z9GScVBAVPkKV/YvReAAU/DVdI1To5CvOHrtH8ydOAhmhmRc0gg2Xqux+kKTH8esHCycHoZRoZvxZ0bbxs8I5CjQONzAHZSEE9B0WTbhq1h4OQTgYIEmoFRRopr7WOtugcCUb1Btvwg0lJfhp8w8ORW50iiqQMcoUPcWR6ZOU2m8RIH2GXGLPGAknbvX6JnI3GsXtmd/RfKxtXBiQNcDhn1nI0YCOg2tGyUtNgq0jvkpcDkrJ6ARTyE3bmQxQSjk5iFfXPkA+yI94GJrChNjQ+XjWEY8xomoocN4xP3zrc1dhKTSNS8OICRgHe6rNDZpwNO4ZSq7crgISNN0ZgXE+HZkPExM/FUCoTPXgJTtV9FzvFXR4UCB1jSxmm8D94XnsOvaJxxI2gdvJzuM3PgSKdmF2Bq7BzOj12DMQBu4Lr7Xpi5JCrTO+4vhBDTN56E14PEGN5k3Jm5LoBPz5SFTN+LyJy7utdhFFb6/ibTUFByIGYcRoZuQlJqCVJaQtHcFApxV+8hjP4Pu94q/JWGiiQABiaVqW5m6L03XPsPvZxnYvfsknqp8uenAOgqrUf69ArWtv+VBgVaM9REuMOy7FOtvNI+XHUlaDdfh6xF7s3lfcuoqDBh3CIda2TqjXY4d+FvhcGodAa0Ol+dawsByLDbfeI3SHz/x8yd7+J67EV7jd+FVeVN8RQV+t6EbsOHhSgxo6l5gNdWXdkv0AE/N2AQH/XST5PdTnN69Exmd9imsm2p3r1xr8TptLkZYk7mYPWDiHIT4O+VNLzD1KMpYjblzlmH/rc9qF8ClQPuKlL92YIjDJCyU6058jSUBIxF48JPUujElfTPcvLZjr9xctWbgSboVVX3TFlrn/aXqCGhAVfZSuLktwx0Z82M2GcgYmvfEg1BhxMV2mPJ9wnzEjzSAkbUrfAKDMTVsKsLDw9hD5BatevpXXigaQxWQV0D0ZjfGSiZWE7+iJNgGIZVZjqIQO7waQccTuCI666fKlnpnWj5Gvpba+0+9leNn7Fw3Be4zL+OwTOsrcdc8DJhyutG/4/U8LJsyEGY+iXJpVMGLLY4CTXvXVds56QxoQB3enNuI6J23oGIpJ4hKTmPNlitqV47mXnERipPCsOC8rMMt7kfTlFSB9lCg9vx0WPD+gEPQTuR8rkH9z2c4Pn8QnCJP44dYjKqCy0g7chDbF3jA3ncP3rahS7I96qPrc6gGWikO7FsPT3dnmBubw7qvC+ykoTdMjK1g6+gACxMeYwE5MDqXjqHp+oJ1UP46BBrHGok+IDE2FWrmN3PMrDGZuPIRcp5KvEM2oPrHZ3z6VIry39wMWjQ6mQ4S0zE0bYnaeY1CGh6twSDjAVgvtxzFM8T7+mGX3HIU+YjznY4MFWOAr1+/wqpVK3H48EFtCdfp8lENtA9Y4mfKwTMRH5Ye67H+smZdjIqttK7eQhOX5yI5egKG9rWBg3swdj1U4Si0090JqgvULkAT1f1CRfl3fFdcPbrsC4qyN2F86CHtdTk21Vf8Mw9pq4IxwkHQ7MfN0BT9RkVgW2aRnMNk1RJ1QCwdQ9Oa6J3WKET0HkcmuWB6hnx3YuXF2fBdn9vsQUf0EfsDApFUpnwSCh1DK8XuNRNgbuqJoK3nse7QVWw4fK05JF7HxqRsxJ163Wa3VwRuXRloDR8zMM/NSA7+phMS8Vn57aW132J7ZMQJaK0rSBWepCyCv6sFBHzVVo4Cfy2OoQFoeH8SswfIXrSeMLGyg5OzA3oTh8h8C4zeeAvlenIRW3d96FEdrYCoOB0zgzYiV7Z3vPYWYsZF4zYzLbMOJdeiMcwmDGckHQ4shaZA+4qj2S8QEzEZfpsetWnxTsXWGNv/XRZo1fexybMXHEZPx4ot27Apyg9Oxj3Ad1iEm80rerHcYV1nl46AJkbZmemwk4KsJwyNDJTORbMITNRel6OoCPvHNXU/GFjCc95uXH75o/mNV1iJous7EO7mjJnnylQOtnedy0hL2tUUEP/Mwa4Z3nCzFcDaybV5NYpBrnDsZYw+rq5wsTNhpr6Y+CegWMUYGgXaJ6zdeAQ7sj/iwLlXylthWZmYGXNFebyMMQkbyCT7uibQGvA8bgKC4u+hQvoi34D8uOEQWM/GZTXGe13l98UJaHV1dbC3782EX79UdOZLa12LzJnmTEvId3MW3le139hVw5P1cCdm+3xbhCQXQtl1Er47iEkTd6JIxYNCWh260UUV6LxjaLUXI9BLdgqJkm2Bw3jsVrMcBQXaByya4Iupia9UtM5KkZi+Bx79I7H8SjccQ6t9gL2bMlCi8Lyru7EIji7RyOlOLTTNJ1bXI3uJPQytI9HeLhVrz4XDjNcDRp7bUKCKo+ISHAwKQ3onHA+lRiHa42dnHUMTlx5HqK0pfDZcxJ3cR8iTXY3i8WM8efoUL4tKUMnhQUOB9gELxxqAx+sJAyMjCIxbBiPDRo9EPL45PNbnUyvHpp9Y3fV5cPCKxWtVz0rt/Rx1nhPHFlqtdBCxqqqSU6FqHqyGu9UEpKgYzG7MqAHlZT/VTh7ldFIA9XeWw8WgB8ymn2lcFVvZgQ3PsNUrEMlqy6csA7pfWwrU19fj/fv3ehf+7//+T4VEYpTdWIuIZWdR3MaHSW5uLgIDA7By5QoV5+vaUeqsHBuBpnqsXuJowdh7Pw5w7F6UdDPKfnfNLke26y/GtyR/9ApJA7enOlsenWufzoAG1OBFwmQEbLgHlZ2UDU8QF5OkPSvH2vtY7caH0Uglbx21b5GVuBXRQf1h7rgY2cr6JNVcpxcvXsCpvxNs7Wz1JhgJDOA5ylNNzbUbTVr/48f7wdq6Fxwc7PQi2Nn1Zl4Aly6NUi6WsB71YqDuZxkqOLTCFDMSVfxARRtBqJhnZ/5fLdD8RyAg7h/sPl+AAxdahv3HDsF3zHxEpeUj4fJH2kIDUPf6MCb14cEh6kazjUFnvgk4lE1HQBPiffZRpKbuR4z/MIRuTmT1p5iamoi9K/3hHKBdK8eqO+sx0soBkWdKFZalEeMLcVbLjFfwMXjtA9WtOCUCEphZ97ZC4NaVWJB5TC+C/5ooGFuYoJ+rk5Jaa3+3BGbe3qNw4MABJCQkdPmwa9cu9O/vjD59bLBhwzqlotWeXYNND1rv4636QgyWX2p8r66urkZh4WsUF39Ser6uHqEOaNELNmKTjM9G2RaVZPvgjtnoN3wDNl/vhmNoCjeA+FsmFg0k3bR8eMbla8UpvMIpOuRfHQGtAQ9X9YehkoFuSdNf8q1ts31AjIrHyYgKGIuIuEwU/ZKa9aDq6kI4m5jCbXoiXsiaS3OUXwKz4J0bEHPvkl6EoLg1MLPpBavl0zHYYyhHJdqWTJ9h5u4+GMOHD1MNtIwwOI6ah7iEJCUve+xOtVNTk5F0cAdWBNjDanKjQwI6hvYViZffqjAIaQJY1nn425nCbVk39xTyKxdxY8wZd2s8niEmp1W07cfciY7mBDSRSITjx9OY0NDA7a1SWBCLkQI+rN28EThlCsKmKfGnGB6GyG1ZWnR9JatuPcoL7+P5F3nTHrIcTms++gyzPntWoHf80nYBmr7DbNasWRyAFgpjji98khe/Ft/GI7GzSEi97d/+gMUzVsh52pe0yuS+r6XDx/YPGHnt7b5jaA3vkBZm39jYMLWBnZUdFt9o5bhLax6iOj6GE9BaVQZRMZLC50FfXCrqO8z6ntnZLkDrDjDjCjSTXs4YExSCacqcZ6vdH4EdOdUUaLc/YKFPPwyZsx9LYtMQrRi2pWLRn+vhP8KOeZCb+CZ2z+VjxD+QtXxQ45CLkTPmnUrBXPvhiM3Xn8FYTkAji3pu3bqZCWROGrePGJWPciB1qcjtoPZLJfqIjH0nwWXpte4As/YAWneBGSegnV6EBee109VDuxwlZvscrByNByBgT5F0ORm5FhxHy8euaeX4G8/2jIM1cXbBt8KEhHzUlCVhgkUgjv1sv8eurs/ECWjkQSTp7uBmtl+PO8dPQNbHKmtF6u8jOTmvYyxshAWI9+qDwIP5Kg1DyEC7iakATh7uGDbJTy+C27hRMLUyB+lmJCCTBF13Oc6ZMxOGhjyYm5vqTSD1GTjQFQRiskHdGJqwMAf3tTRlpDsALeNemQoIEaAZwtDSCf0GecLVXSEMGYmBngHwmrIOUSmv22ThSABYUf0v6+OsPXaS4R/Js7i8vJzjKYUozoiAsxEBvgDDV2UzQzzECcUQxwXI4tpG4Xi2jkymI6DVImOWH+Kf/1LpWqq+OA3hIxYhqxXGGUpFE1fg4b4IeLlYwcLEEMYCZS63+DAkbyuGfTAx7m+UKWl1//33bVj2d4TX+ii9CY5+I2ER4CUFWXsBLSIiHH5+47BgwQK9Cfb2feDv7y8HMy4tNKX3b4sIET4mbsVRFctRdAegnc/9oRJoiyaFYdH5UhVp2mbZKNuSq65V8rBoce20v0NzoIlRkbMaHmYEZjz0jTiBj03Fr7s0C71HbMGLjquO1gXSHdDCDBkBBSYCmJqyBBN+oxd8viUizsh7HG9LLRser4M78ybCoftBOijPg9WQKdh0+WOLUxOg9fYcjGnZJ/QmDFkYjv/P3nm4Ra20bfwPQXcXlipFaVYUe+NgQQFBBRERsRewe+xiA8WCFRH7UexYEfSIXexYsBzFCsihHJHysvvd3zWBwO6SZMOyC8syua5ANjOZTO5J8svMPPOM/fgRTQ60iIhwjB4diEWLFpnM2rGja+OBpihHSeFP5OXlIldjRopv2WlY6xeMBIEZcEkLypcvX5CXl1fv/jWVHQ/eFgvA6jM2xp9v1CzUqsAS2j5zPw//93//12yyNhRo5a92I7BDG8aLioPPJjyqdXKtxNe9I2EXuF9wvspmu1AdT2xgoImDil3IMeirGbf84lQ4ymxBfEi++ZqPgoIC7jXvPqK9RmLbq5814YUoKq1vwUmBpuOdxXEYBZq6KMWP9yPKtysc5OSFI/CsyEdgrwDQ1FM1zV/Fv6sEgKa/2pcQzEjYqy/6bE5qeFk1BGjKb+cxqzsZa2YGq55RuKzWxF2Jhyu7wyH8tEaXixI/Xz1FDpntofIXfrWw5kjDAS2sM4K3peFlzvd6X525uT+QnbYNUZPmIel+DnKLygSbJhtU7MVpWODpgUW3tJQE6UMb4qf1RUGB1iD1BSNToNXJo8w9iUkudSCTmkt5Z6OQ2/ljn0CT4927d0AGp0dFzak7gQluPXwnVEszPNQuZP7E/xS6DfnRV3GIBlrxPaz3tmHGmslcg5CUremOphyXZtjDetxRqLqzVeafxyy/Odi+ZTZGdumEOS2sg00U0MjYs6FDvZmVeCXQvpTh9PIVuKOpocaBis97Edg1EAmvtETUOE7bz/K3pxE9fzNu5AncfIrPOLV8LS4XCMQBQIGmTW3x4RRodVqVpUyCvaQNHHyice1DcaM8NbSGPjRWufuCTY+GgxqBWcX/hN8VbB4N+V8U0Crf4lCIC9OlI7UbhLV3uTw1luFUmBxSRz/EM7YOChS+SMZib1cMnrkFW8K7wFza3jSBpksBVVVUaKl1KZBzJBjO0jZwjDgj7O9RlwyoHqMoR+nvSi35UT2gbpsCrU6Lxm5RoNUpWJEeCXfzdpiih+koWhPQiILfCytw/cW/OCTSzF5bM6JQeEpmPt59/w2Fsvn6zeruGkAr0JR5uDrfs26s2dkvGu7/2NTKcXG6fbW3EJk57OwsIJO0QYcx+5BdCZDpjexlJgo00gn6+fNnZtXVywYrY+1/5Q8kjqqe8sFp8jn9A63kFc5uiICPpyOsZNX9E+a2LujrPwOxKa9Fn48CrbbEGr1BgaYi4e+7WNHbDoFJP7R+aFX+zEVB/e7d2sRaG9DYCyeQKa9U4HeFYdaqZm5eZK9T9b8w0ErxZMvw2rFmAbuEhiQpkXsiFB1qJ2G2RI+wXXhU0/5Yfnk62pubKNAaPg5NtQjqthXlpfhdyVbblSh6fBSxGxNxO1fdNVXdEbptKb9dwIL+1jW+yswgsbBD5/5D4O/jAbcuvdHLxQH9F1yAhkcszpNRoHHKotPO1gS0Pn16CfpyJAL+fr4Twf4rcVd4Ogo8iVmARAGjkNYKNJ1uwhZ+kDDQGnpxv5Cduh/xOw/g3P0cNeOQ8isz0IECrb6gJa/PYMOUYfDsQKq0pKYkga1bb/jPjEHKG8EnuX5iYvYocnAomK1K2+OP+Qfx4Ed1H11V1kaErbiNitLXOBzRH+MOfOSpjtedqLUAzT15ExyG9kX41Ii6i9fzVmsB2qhR/mjXzhb37t3lVbDqQxoOH0jCzkUjMCAkGvsOcDsj3rd9Mfy7+AoaL1Gg8cpscgH6BRq/PBRo9bRR4tvFeehvV2fJZeHgjv7DfeHj6YIufXvApX1fLLj4TStU6iUtsKPqdQy8mHFo1hgakwlVE5ZaoAFQ/jyOSSPX4ZmWQYWtAWgEZo7D+8N/TADIZJuGWloD0FiY3bqVIShj5f0/0d1cwFRf1Yxfi9n+27dvsXHjehw+fEjwnDSw5StAgSZchqKsHHVpclTkHECwYzXMZE6DMf/wA1RXlKqQFRuKFXcqUPrmECIGBeGAGIeKwtdRG1p2diLsJGaQeSzELTKWQmVRBRqqnmKdVzC0zZxg6kBrKpiRYjB1oImFGXNLVmUhdrAMFo4eGB4YhPGh4xHG54w4Yh1StVjjqtzmdNOEFaBAEy5cAwGtCq9jB8KCfGXaeSOmbng6gDqgkXnLfiZPxMgNTxtltqx6ieVXZzAdndZhydAcAqkKNMWn3fB3DMDBn2yfnmoqddumDLSmhBlR1JSB1iCYMbeXAjn7QjFLD9NREC8hpHZ29eqVuhuXbpmkAhRowsVqIKCV4ewka0gkbeGxOEOts1EdaEDVs7XwCjkE/fgdB5R5xzDeoQ0sA5PquXQhQBsfdRwPUhMQOdAWFh6LtY6VM1mghfg0STOj6u1nqkAbOLA/02emrZlRVQuyrSx6iAw9TEdB+9A0lTXd3xRowmUrCmjEbD87+w2zijPbL8fVWY6QSuQIO1mvnlTb5Ago8GmvLxxHH4CWipLwVaiFluP51qFwsPdFwkd168mqrPUYUOvn0RLecVkQsIZmUmWBFpp2FKay9p41AVYd2xu8z0ytWAAQ58TE+m/8+BCTWR0d28Ha2hINhZmmNsxvHcdLUqBxqmmSO5sKaGUpEXCQ2WP6RS0el4xMZVFAa3ielcj7axwcpOYIPJCnMc6GNDmOQ1TyfaTum42B9lJ4/Hlbv1PIKIvwZP8UeA2ZgUNPCmqNTmqBJrNFv8hkfNBGMwA3b/4t7GdPtfO+BW0P9BpoUAMQrnsmLm4zfHyGYtQoP5NZvb0H48qVy1yXK26fHsZLUqCJk9oUYhkcaMo8ZJ7Zg5WBrpBJ2sI9cCUSzj1uMdKJAhpxfRUQ4MespaWaNS6eay1/hq0+drD33wP1ilIVsjb2q+5fIwCw8UJclgiy8JxGaHdV4Wtcv3AHX2oqasr8e0je/xdSX+brrc9O6Pw0jCogpIC+xktSoAmpbFphBgdaC5dLFNB0sXIkuiiLH2P/tEEYMusAnhSwzX91QJPZ90HkyQ9am/0ao7GyrACf371G9scfKDEMNxuTPXpsi1OgCsWfX+DWxaPYHbMWR5/qOMxBj+MlKdBa3E2kc4Yp0ISlMyjQqk9dhcI36bhwl/UppkT+/ePYfzwVL/O1DAITzrtgaNm781gf1g8uVirj4Ow7Yfj0WFx8K7KWKXiGlhVYVfIFWXcu4q89GxF9KFPDUKdlXUuz5fbXEyRvXonIEa7VLQxWvoLzlAnlU5/jJa9fT4ebmzNCQoKETknDTEABCjThQmwCoAlnwBChvzLjMNKpLW/fl9SuJ2adeKfffjtDXIhe0izF81ObsSZqJDoxBjEy+Oz4p7ZfUS+naGWJVGQsQBeZGSyGbME7tuGhgRroe7xkA09Po7dQBSjQhAvOQECrxKMdYQjw94X/KD8ET1uDlA81T35JFk6sCkfgyBEImh6Nky/17P6q/CHW9Kme1E7m1B9TNhzA5XtZeP/5K758fIkHVw9ifUQ/OFr1wJKbqjMBCQvV4kMr72CphwQSiwGIfWW4mnGL10nrBSjwaecwyCVS9N/wQue+WH2Pl2zOWZS1SkYj6E0BCjRhKQ0ENCW+7PGB3MIN47bexFe2m0HxGcfDnKt9Olq5YrCvN3p09cPebP29YCtuL0RX8vXcbTKSP7In1hShDG8Sx6Kr3y7o0UmJ5kmM6rfy8274WZrBvNcKZNK+RN3LRvkd+wPlkJh7YNl93YXU53hJ2oeme3G2tCMp0IRLTBTQ/ve//2HZsqXMSgxEtC8VuL3YAwPXPMRvlchFl2fAnUzlYtUPK28XMub8xTcWwH/x33pr/is7PQHWsvaYmqJlqHbVM6wfMgEnWkUlTYncQ6NhI2mLLgsz9Ka1StG2mk1lwTGE2JlB5h6J9EYN0dHfeEkKtFZz+2mfD631SMF5paKAxnmk4M4ynJvuj22qHQxVb7BtqJzxHtJ1XlrdfGRl5zBzYn2vHoLJCwRWZq5EL6uRgt7JmcMV77Ft5BgkacxqrSz7jUa9pwTy1nxBhTgZZgeJtD1mXVH9xGi+HOnvzMXIfvZO7cOJM+2SN3imB2OgknPhcJS2QftpKWqOrznPqW2nnsZLUqBpE9p0wmkNTbgsRQGNiHjmzGlmJbU17UsZzs8Yj8QfrJ9EJfLOTIIbUzvzxvbsup50Rc4uhM46r/2FpP2k1TEUb7F7VC9Epar62a9/cPGdZRjQZxkeqLUaKfBp9xysy+Rrqqyfjq57irOf4p1WtpTi7bPsOvjrerLSi5jp3AZSh4k4Y2w1UmUh3lxPRmLcCsyNCMTQPt0QdugbU3tXFj9C4oz+aG/jjsgr3BmveLQGfa1cEJyQxX8P/XqE7aOcYP3HJrwU3bqtQN6DJCwJ6ofuHl3h4TEIMw4/QspsZ0gltpiQrKUFoAFl1djK00I2AAAgAElEQVTxkhRoDRC7hUelQBMuQFFAa/g4NAXe7xgFn9UZyFcoUPRkN0LcidVhW7hNP49ax+GVOTg70xOBCV81vIkIZ1ooVPHjCVIPzYX3H7Nx4PJVpKZqrJeSkbA6FH3s5eg37yCusOFXLiLl5D6s8HeB+4wUcL8+a84s8BJG8RMcmDUQHWzcMOsCz0uvIhPRfeVwC9qDLF6oleL5nkC4WQ9AzHM16gpdPhQ/H+LQ0iAM6tGFeRF7Td2Px1fmoZPMDLbBh5HPfmMIptKEgcoSfM5+gzcZa/CH3AwSuTfiPyigLLyF9cPsaiZprfY4w52rMrzcNxZulq4ISXpVfzhC6VPsCmwPy84TcOSdyA8VRS5uxvjB3XEA5ie/Yj4olEX3sHa4Gzo4tIHEehQO5BqPkBRo3HeGKe6lQBMuVQMBDVAWXEZkNyksrOS1XkFkbiE4mqMgXlmReXAhgnvZQSaRou+q+/U84wtnmz+04mb1y1vSGDdUtn5I/FxXi6x3NvISfvMGb26txRBLMiO2N7a9V0BZdBcxPjWTi0pk8E/4Xu9QdkfZywSMczOHe0giXtXrlvyNlwnkJe2GCYeyRTaBKpGXEYNA93YYEHUcL4uVjM4PNwxD5w4EDBbwS/iitw8H9jr09V/5eRdGys1gMXADssre4dCMUKxPzcSe0daQtvNFAmsly3nCUjzfHQAXSzeEHVbR63cWEoKcIXcPRtIbkQ3Jyu+4sqA3bCw9MC9V1W2bAm+3DGbuZblPvFEZE1Ggcd4UJrmTAk24WA0GNHLasuxTWDFuADw6dUH/0Qtw7AXbDKhAWXEhCgoKmLWwpFx/L9rKTKzpLYFEbo+uffrBy2swvL29GrYOGY7lV9m88guo/LoHfuQl3H8dXpR9wNGZoYi+mol9wbaQ2vlgl2ofIkcyv1/swhhXc3QMPYC6920ZXicFw13ujOB9WfVrHBzpkGl4clMXor+tDD2iLkG18qD4sA3DyPgzCy9sfSsAac50m25n8akJcJBI4LkiA4+2TsL8lO/MPVGZ+wIP3tT54+TP0S88ifdDB8tOmHTsHSrKXmF/iCvkrgHY84K3GqyRXCXe7PaFo9QCA6I1P7Iq8SS6J8wlUgyOfamzub7GCfXyMz8/H2lp15CZmamX9GgixqsABZpw2RgUaMKnNlQoae4cjYjjBYY6QW26xafD4CCVoMeyDDyNj8DcM9VNp5V5WXjw+qeowculT+MR6GKOzhMPIbu8HNmHQtFJ7oSAHU9E11ors3cjwKkNLPutwD0NDlc9X4v+Fmaw6LdW6+zctRfW5Bu/cXlme0hlbpizcyNmrcsQbvLlzV8xHm72gZNVR/zh5Qp5B19sf6whCO+xgOLdbvjbt4G5xzzc0DxMkYM9vhaQmHfHKjruQUBFGmRIBSjQhNU1QaAByvzruHhHsBdMWBVRoexL2BWzd8ZidvTfKNKxW6Xk0Rb4dzBHpz8GoaPcHr5xmeINQRTvkTDKDlJZZ8y/rjlIXYkvCb6wkkjQfeldg/rMFCUZX6Tym1jQuS2kjkMxbuZ63NGECd9xXPt/P8CqPlJIJObwin3RgCEKxbgym3gYl8N3d31PKlWvYuElN4Os83xkiOyK48qeIfa9ePECc+bMwpYtcYZInqZpRApQoAkXhkiglcPOzppZi4sNDQrhDBtNaO1LeAjGzVyLDE2WNCijZXgU3be6f2bgOjwV2d1DTlF8dRY6ysxgNWKnxqwGZHLw19jibQ6JzBVzGzdoqkFX09DIlQ+WwdOczLzQG8sa472lPBuHw9xg6eKLBfOGwsnKAzPP5IhqHlTmH0WIvVm1wUetdW7NlSjzcCaCOARoA5eZl/itKRt64XqKT/vQ9CRkC0iGAk24kEQBTTiJ1hla+xK29sSf6UWNEKEC745MQGdLR/jOn4eRHeToPv0kPokxL1fm46/xtpBI5AhMqu5zqsuIEvnnJzNDJaTtpyClMbWeukQNsMXOvtAGDuMO4ZuOtVxUfsDxiM6wZJsZlYW4FzMEjtY9EJXyVWvz769z4XCQmsFi0AYN034lClLno7dtW0ikdgg/1ZiyNoB8ACjQDKOrMaZKgSZcKhRowvrwhKq8hIMO4quuL2FU4mPyZHhYOcBvS3UzY/GDWIx0ksNz9ll81ga10nOY7NgGEov+iNEYYKUsTMWiPlYwl5jBfsJx8Awg4Lm+JtyteI/tQ2WQSJ0x87KO1dyqHJyZ6QGr9iMQl6mShrIQd9Z5w8G2NxZc+S4ANQWyNw9iasiWYw5CtfdV8SUZcyaEIrBjW0hsxuCwxkD8JlSK91QUaLzSmFwABZpwkYoCWnl5Oayt5cxKmxwB6OMljCrknJ0BTyt7jNj0QMUIQoni+xvh42iJPvMu4JuAYaIiexO8iAWjZSAOq72Fv+L0nGBMGN0J5py1N+GboilDlV8TMMrKDLKOkUgXa4yomkHFV1yI6gFrx2GIfVBU31pWWYCM6MFwsOuHpWmqZviqiVThVewABmgWXpvAjvtXFmZg3bhwJJxchl7mZpD77EBOVRHu7dmJa4U6f8Wonlgv2xRoepGxRSRCgSZcTCKBVlY7FUtxsfE1uQhfov5DG/0ShgJfL0ait409fGLugQwZU1+UKLq7HsMcrdF/0VU1M3zVeFWvNmIwY5I/CJvr3sK4s2EsJu5Mxqq+UmaM3Pb3VSh5uAfxl/Prv/BVE2zybSV+HguCnaQN3CJTRQ5RUM9kxZON8O44BBvvVvsGVQ+t+aXMx42Vg9BxZDxe89R6Sy9Nh7PUDBJZe/ivPozTR9Yj3MsbS9Ny8TXBF3JJGziG7cGFTVMw59BbozKwoUDjLHWT3EmBJlysFGjC+nCENv4ljIrHiPV2w/ANdwQsI5UovL0WQzsNwdYsHk8hNS6tiAcWF/+VOHLmCGIiBmLIoivIzd2PQEszSB3GYfflOMyYmYBXRmadBxTjbEQ7xpVU2EndP5TKy8RY0ZRDMFrFKySMdWaaaMmgfMuOfthwIxdKKPF57whYkoH6Vh0Rsvtx4304ctxVjdn15MljTJw4AdHRaxqTDD22BShAgSZcSBRowvpwhOrnJcyRsA67KvFm3xi4EQtB8sK1dIX/2mv4QZyxfNvHNOUR8/VOwduRSY1Ttetb8Q2Z54/gyNlb+KBqRPPrNa4cPY60bI4mTe2p0hhUAb0pQIEmLGWDgUa8ElRWVqqt7OSCRGzNMPK7qqq6nYfE4won+9iFxOWKQ9Imi1Kp5AxXdZrMdTzZ1xT5JPkzdD5ZLar1/A+f7p3GwYPJ+PvNv7XaAKXITj2Co1deIK9cvbyIFk2fz/p5IPlgF1J+XOWmLZ/svUXS4Tqe7GPLXdu9Jeb+1JZPbc+AIfKZl5eHe/fu4vXrV6yc9L+JKkDuL9at38+fP030KnW/rAYDjRVT9f/ly5eYHCxYMK9WbNXw4OCxTPjz5885w0nc3NwfTBwvr4GccWJjNzLhhw4d4Ax3c3NhwskLUPXcqtvEPRBZIiNnc8aZMGE8E/7oUSZnOEnr33//ZeL07dubM87WrdWDW/ftS+AM79q1E3M8MbRRzZvqdkbGTSbOjBnTOONERIQz4eQlpnqc6vZ///3HxPH09OCMs2vXTiac/Fc9jt0mx5GFpMPu0/xPzk8Wkh/NMPKb5J8s5Hq4wsk+ogNZiC5ccYiOZCG6coX369eHCSflwhVO9pHyJAspX6445H4gC7k/uMLJPhas5D7jikPuS7KQ+5QrnNzXZPnx4ztnODmGPB9kIc8LVxrk+SILed64wocM+YMJp39MVwEKNOGyFQU0kgT50uV6iMg+CrSaJj+JGfPiJXpRoFGgqT4vFGjCLyIaKk4BCjRhnUQDjSRTVFSIwsL6K9vc9/v3b87wX7+qOyRIYXAdT/axzUIlJSWccdiZsisqKjjDVYcT8J1DWz5LS0sZtUjTFF8aYvNJah5caTQknyQ/XGk0JJ/kfFxpsDUjbfkk18t1PNnHNvdpyyfRnS8N9vbUns8yzjTI/UKWxuST3LdkaUw+yX1JFnKfcl0rm09S0+MKJ/vI80EW8rxwxdGWT7ZWziRC/5ikAhRowsXaIKAJJ0VDqQJUAaoAVUDfCpCPJWLBunr1SqxYsay2pWzWrBnMPrKf/WDS97lbWnoUaC2txGh+qQJUgVanwPTpU2tBptqUTbbHjh3dYvQgLRhfv37V26ra4kVEoEBrMbcCzShVgCrQWhV49+4dpNI2nFBjjZ5agjZXr17hvAZNSIv9vXz5MrXLpkBTk4P+oApQBagCxqkAVy2tJdXOiKqqQDM3l0DXlQUeBZpx3qs0V1QBqgBVQFABrlpaS6qdkYtjgeblNUjwWrUFrly5nKnpUaBpU4qGUwWoAlQBI1VAtZbW0mpnRFIKNCO9sWi2qAJUAapAUyugWktrabUzohUFWlPfMfR8VAGqAFXACBUgMHv27Clj1Ths2BBmOysrywhzyp8lCjR+bWgIVYAqQBVoNQoMG+Zdz0LQ3t62RV0/BVqLKi6aWaoAVYAqYBgFKNDqdKVGIXVa0C2qAFWAKtDiFKBAqysyCrQ6LegWVYAqQBVocQpQoNUVGQVanRZ0iypAFaAKtDgFKNDqiowCrU4LukUVoApQBVqcAsYAtMWLF4LM/UemE9NloUYhuqhGj6EKUAWoAiamgDEALSQkmLG07NTJTSewUaCZ2E1JL4cqQBWgCuiigDEBjfWl2FCwUaDpUvL0GKoAVYAq0IIUIF4/Zs+eKbiyENH8r+24ixcv6E0JtoammQcCtoMHD4Cd6JbvhBRofMrQ/VQBqgBVwEQUOHXqZL1B05rQ0PX3unVr9aYSH9DYvGkDGwWa3oqCJkQVoApQBYxTAUMCrVMnd4wYMVwvKwsubf/5wEaBZpz3H80VVYAqQBXQmwKGBJo2+Bgq3MHBDn/9dUxNI9XrTEjYA11XT8/uTI12zpzZaunTCT7V5KA/qAJUAapA0yug+qLXN2AmTBiPc+fO6mUVkzcCss2bN6GkpKSekOvXr9Vr0+qgQQPUzkGBpiYH/UEVoApQBZpeAUMCran60IRAxioaF7dJr0Dz8RnGJs38p0BTk4P+oApQBagCTa9AUVEhnj59Iriam0s4YaDtuB8/vuvtgriMQgjI4uI2c9bINE/M9qGJqemJiaPzjNWXLl3E/Plz660nThxn8pydnV0vjI2vVCqZONHRazjj3L17hwlPS7vGGb5lSxwT/t9//3GGk/N8+fKFiZOUtJ8zDvkCIsurVy85w+fPn8eEkz+rV6/kjPPgwQMmDikU9tpU/2/fvpUJLy4u4gwncdmbKyFhL2cc0jRAlufPn3OGk5H67EIKU/X87DY78R9fme3cuYNJoqCggPN4kk5+fj4TZ/fuXZxxUlLOM+HkYWLPq/p/6dI/2Wxi6dIlnHHI3E5kIWmpHstu7927mwnPzc3lDCfx/v33XybOjh3xnHEuX77EhGdmZnKGr1ixjAknfxYunM8Zh51z6syZ05zh+/YlMGl8//6NM5zks7i4mImzbdsWzjipqVeZ8AcP7nOGr1mzigknf1h9NP/Hx2+rjUM3TE8BYxuH1hCQsaVhNECLjl7N+XUwa9YMJq83blznDCeU/d///sfEIZYvXNQlECILaXflCh84sB8TnpeXxxlOjmFfjiEhQZxxyMNPFvLi4DoH2ccuLi7tOeMcOXKYibJhwzrOcG9vLyb869evnOHkHASoZBk9OoAzzpIli5hw8pLnyqdcLmPCyR9Hx3accZKTqz8yyEuQKw22mv7x4z+c4eQYMpkgWfz8RnLGYUFw+vQpznA7O+vafNrYWHLGOXv2DBNn2bKlnOGjRvkx4eRjies6yL6cnE9MnOHDh3DGIR9RZDl+/C/OcCcneyac/OH7AiYfBmRZtGgBZxpjx45mwgn4+PJJYEcWL69BnHFiYjYw4YcPH+QMd3NzZsL/7//+jzOcnHfIkD+YOPSPaSpgLEAj7x2xNTLNkjAaoJGaAzH97NatM2JjN9au7Bfwp08fa/ephpNttoa2Z88uzjjkK58s9+7d5QwnvsPIUlpayhlOzpGb+4OJQ76iNc9PfqempjLhHz584AyPjY1hwskfUoPhSoPUmshy+/YtznAWeKQzlOt4so+t+Zw8mcwZJz09jTkHeYlzpUFuJHYhX+RccV6+rJ7FNiPjJmc4a3lEmjm4jif72JoPqYFzxfn77xtMNl6/fsUZTmoi7LJ1axxnnDdvXjNRyMcQ1zlYMJOaJFc42Udqw2Q5duwoZ5yMjAwmnMCGK434+O1MOPlDPqi44rBwJy0IXOFs7Z98cHGFk32kdYEshw8f4oxz585tJvz582ec4bt27WTCyR+uc5Dj2eesNiLdMCkFjAFo5P3EZewhVmijAZrYDNN4VAGqAFWAKqB/BYwBaI29KqMBGqmBka9dUsOhC1WAKmA8Cly/ng53d1eQDnu6mK4CFGhm9ZrbdTYKYfvQ/vxzseneMQ24suzsN5g6dTKmTIkwmTUw0B/EuKKpl1u3bmFaeBimTTSdNWCED0j/YlMspI+P9qE1hdLNew4KNAo0g9yBBGbEcGTu3CjExGw0iZU4OLWwkDL9pAYRjSfRW7cy0MHeFtuGDMPBkf4msUb16g0LWVvMnx/Fc9X63U2Bpl89jTU1CjQKNL3fmyzMNm2KxcOHD01iJVamxHIpKGgMiFeBplpYmKWOHY9/Zy8wifWI7yh0sLFCqIMj1qxe2SRSUqA1iczNfpK5cyNBLKl79uwBd3cXZjsgoNoSuNkzJzIDRtOHRpscAVOFGRlPQkzno6IimwxopgizwzUwO9ilO2a3d6ZAE/mSo9EapgCxNre3t60d29iwo5s3NgVa8+pfe3ZThRmpmRGYHTx4sMmAZuowu+7ZjwKt9smhG/pUgBjmsWMdyfCNlrZQoBlBibUGmDUV0FoDzJoaaJ8/fwYZq8mOCTWCR4ZmwUAKkNoZC7SWWEszGqBVVVWhvLwc5H9rWsjA4XbtbBAeHmYSxh/EiIWYuqrWzAjMmgJoV69ehZ21HCv7DzQJ4w9ixLJukBfTZ0aaGQnI2LUpmxxb0/PYmq9VtXbGQo31MNNSdDEaoLUUwfSdT+LXsWNHN8YFFHEDZQoruZ7x48cxEGNh1hRACxkXhAG2Ngjr4Gwyq7vcAmtdO9aCrDmARjyZkOYn1lONvp8Bmp5xKKBaO2OB1tJqaUYDNOIiqGvXTlB1EWUcxWzYXBBfgLNmzURaWprJrL6+IzF79qwmB1pERDgO9eiD/KGjTGYdZGuDXZ26NSvQqJWjYd8BxpA6V+2MhVpLqqUZDdBaq5UjBZr+HmcKNP1pqZoSBZqqGqa5zVU7Y4HWkmppFGjNfH9SoOmvACjQ9KelakoUaKpqmN42mWGBGP6wKwsy4nCd3VdeXtYiLpwCrZmLiQJNfwVAgaY/LVVTokBTVcP0tx0d7RlLR3a2ipZ0xdXzUc4DmX9SHys7LyOrgegZq2mTI+1DY28aXf9ToOmqnPBxFGjC+phaaEsGmqHLggJNi8K0hqZFoAYEU6A1QKwGRCUzvv/xx2BERs5uwFE0aktVgAKNv+REA41MYZ+YuA/379/jT80EQ1ob0NhZog1RlK0NaHMj5xhCRppmK1eAAo3/BhANNP4kTDukNQHN398Xrq4dDFagrQVo6T36wtvGBoMH9jeYlqoJE4OAb9++4efPn6q76baJKkCBxl+wooF2+/YtbNkSh7//vsGfmgmGtBagkYHWtrZWGDt2tMFKsTUAjcAssF07OJlLsXzZnwbTUjVh2oemqobpb1Og8ZexaKBRoxDTNQohMCPuvaZOnWJQb/umDjQWZh3l5pju1J562+d/79CQRihAgcYvHgUavzZMiKnX0FiYxcfHG9zbvikDTRVml7r3od72tTxXNFh3BSjQ+LWjQOPXhgkxZaCpwqwpfDmaKtB2duzKNDOSmhmBWVN726dNjloeYhMLpkDjL1AKNH5tmJCVK1eYpC/HQYP6M82MpGbGOig29ASfoaEhpufL0cYGf9hYQxVmFGhaHioa3CgFKND45aNA49eGCRk+fAjs7KxBzNlNZXVx6QBLSwuowqwpamhubs7obGmBiA7OJrM6mkvR3lxaWzNrDm/7tIam5SE2sWAKNP4CFQ20hIS9GDCgH4jX/da0EK/0Pj7DmDnEyDxiprD269cHEyaE1tbMmqqGRqbeme3ihn0evUxm7WFliY2unZrV2/5///0H4lLo06ePrenRbLXXSoHGX/SigcafhGmHmGIfGjHNJxaNLMjY/4ZucjTFPjSfdu2wxb1LswLNtJ9AenWaClCgaSpS91s00EpLS5GXl4dfv37VHd0KtijQ9FfIFGj601I1pYcPH2L06AAsXdo0495Uz023m14BCjR+zUUDjY5DM51xaLSGpr8JRo2hhkb70PhfcKYYQoHGX6oGAVrlo3iEB/jC398PAcFTEJ3yAQomDyXIOrECEYE+8A2airUns1DCnzejCKE1NP0VA62hqWqpwI+n15CaelV9vZONYqVqvOrt35/v48LRROw/fA53Pv6CahQKtPp6mfIeCjT+0jUI0JRfdmGkXIpO4+KQ8bWi5uwKfD4eCjeZGSQSOdwHj8CwHp0QsPcNqvjz1+whFGj6KwIKNFUtlci9txY+duR5MIPcbTAilsfjRMZ7qDXqKwtxb9todLasjsdM7ih3gf/Gm8ivoRoFmqqupr9NgcZfxgYBWsXthfAcuAoPf6ucuOgSZrm3ZWA2cOUtFJGHsfg6FvkvxE2WeSrRjWWztQGNDLY21NLagLZy+TJhKUtOIdy+Ldr7xuBeoWqdiz2sEtn7AtBeWg0zmUNPBM2chSn+Hmgns0fgvndMywcFGqtX6/hPgcZfzgYBWtm5qQjcVv2wVZ+6CtnbvGElMYOsaxTSa9sZy3B+5gQcyON6mPkz3ZQhrQlokydHoHv3bgaTtzUBbYKDIwL8fQW1rLi1AN2cg3D4c3WDvGZkxfs9GOXQhqnBSV3GIPFNeU2UEjzd5ov2naNwvQygQNNUzrR/U6Dxl69hgHZ+GiYkfq9t51fmncZkt+ra2bDt2TX9aQAUOdgTOgMpqjU5/rw2S0hrAdqKFcthaWmOSZMmGkzn1gK0VS7usJa2RWzsRgEtq/Bm02B4zE9HGVcs5Q8kT3SCVGIGicwZEafqnicmesUtLOnRF2ufVjFj0P78czF2797FlRLdZ2IKUKDxF6hooP348R3Pnz9j5l3iT646RPE+HoE+K3ErXwFF0WPsDXGFjNTO3KYipYCtjVUi5+x09A7ci6/sLm0JN0N4awAagZmVlQWGDx+GVatWGEzl1gA0AjNbWVv4Ojnh8OGDAlqW4+K0Dgg6XMgZpzRjEXqYk6bGNnAITESOZiVO+Rm7/Tpj3nUjbq/nvDK6s7EKUKDxKygaaPxJcIQoC3AlsjMsLOSwsqjpzJY5I/ToJyigRHHmASwO7gEHmRks+q7Ag1KONIxkl6kDjYXZsmVLGe8hFGgNM+lXNdtnYXaoSw+Mc3HRArQynJ5oj5DjaiYg1Xd91WtsH27JNDVK5L0Rnck2Nao8FJX3sbxXX0Q/qQL52Dx//hwyMjJUItBNU1WAAo2/ZEUD7cSJ4xg3LkjLQ6pyorJsnF4RhMEebvDoH4BFx17UWm8pyopRWFCAArIWlqCc1tCQltZ049zYcWiqMCPeQog7LAo03YBGYGYnk4DAjPhz1A60CmQs6AzPZXehXsdS4MuR4BpDkLZwm3IWPzmej993lsDTZQoulNI+NJW3TqvYpEDjL2bRQGsJA6srn6Yi7atm2wz/xdcLqXqHa9feqO1es2aVyXnbJ0ALCPBnmhlJzYx1fWVooIWFhZqct31SQ5vk4KgGM3FAA4rPhaODky+2PimuueeUKH64Cb6O1YYgknYjsedd/ftZWXATywdawjH8FIpAgab2wLaCHxRo/IXczEBT4GPCehz8xvEJyp9n3pCy08uw6o769y5vZK6A3xexcvU1tRDikNnDoysWL15oMqunpwcsLKRQhVlT1NDaOznA394B8d08TWbtJLeAlbRNbc2M9bavvYYGoDwTGwbJIbXtDJ+JMzB7ojc6WbHjzawwNO6ZWu2t4ucb3Di8CiE9SHNkW3SZe41xTECtHNUeWZP/QYHGX8SGB5qiHCWFP5GXl4vcXPX1W3Ya1voFI0FPViFlyaFw91mGY2l38ejpUzx7JnZ9gsw7V3BogRc8o1LV1Bo+fCh69uwOH5/hJrPa29uCjDdja2bsf0PX0Dp3dgep0YQ4tTeZ1VraBjFu9b3tiwIagIp3f2Gap7y6v4xYNJJVaoP+88/ji0rlrOrdWcQsXaT+UfXnOpx5W0XN9tWeWNP/QYHGX8YGA1rx4/2I8u0KB3lN8wn7sGr+l4/AXr0BLQSWmuk36HcbuEaqA23KlAisXr2qSfu4DN2fNnBgfyxZsrjJgfbHH4OR3tcL+UMb1k9lzPHJ/G5Hu1b3m7G1M7FNjrWP5a+3SE2IxoJZ0zB78QYczPjEbcpfe4D6Bq2hqeth6r8o0PhL2CBAU+aexCSXOpBJzaWQy2Xcq50/9umryTGZAk0MDCnQ9AdUvQCN//kUFUL8QVpby0Hmm6OL6StAgcZfxqKBdvnyJSxYMI8xD+ZPrjqkLGUS7Mn4GZ9oXPtQ3GS+GkmTY0ffFfjr2h1kPtFsbnyMi0sGInDrQ56myEwcneYOd1pD01a8OofTGpqO0in+QcLGA9DTd5+OmaCHGYsCFGj8JSEaaPxJ1A+pSI+Eu3k7TGliFyDEKGQ1r1GIAtlxwzD+CLEL41oU+BA/FJ00+tBokyOXVrrto0Dj101RXoLCn3nI0+hnzs39huz0aPiF7DFqBwT8V0ZD9K0ABRq/oqKBlp2dDVJLe/36FX9qbMjvu1jR2w6BST9q3V+xQZr/K3/moqBSc69uv4LTC6kAACAASURBVPnN9kuRfXI+/nCUod+6pzw1RgU+xg+Dx/y/1U5OgaYmR6N+UKBpyleMx0lz4OthB3mNA2LGKISj31fuu5sXaKmpqbCzs8aoUX6aJ6C/TVABCjT+QhUNtIaOQ/v9fCeC/Vfibq0jYq5MVOJJzAIk6skohOsMyuKnODSzD9rVvDAsBm/ES875agpxKtwJfVZnqiVDgaYmR6N+UKCpyqdE7qmJcKkFWRuYW/D0M8tlsAtM4G1ypEYhqrqa/rauQFPm38K28L5wtrZCl5B9eMP5HmzZ+hkEaFUf0nD4QBJ2LhqBASHR2HcgCQc41n3bF8O/i6/erBzVi0KJnw92Ipw1iZbaot/EIPS1bAffrY9rvZZUH6NA7tW56GVpjlGJP9SSaU1ACwkZZ1BPIa0JaGOcnbV41SlDymRbSKR28Fmbig/Fur9dKNDUHlmT/6ET0IrvYq2Xdd3wEHMPLLuvp6YxI1LcIECrvP8nujOOVdlBogL/9Wi2X6tr1XfciB1TOymizMkLi09l43fVP9g1Ug6J1BqeQQuwOfEwjh3aibUzveEmN4PEoi/WP1d/sbQWoK1btw5OTvbM8IRaHfW80VqAFufeBU52Nnj5MktAwQqkz3WFuWNEo2eboEATkNkEgxoOtBJkLOkJd68IrN6yBdETPWErtcC4Y6yHGtMRySBAQ1UWYgfLYOHogeGBQRgfOh7E7RHnGrEOqbUe+BsvbEXOJazxdYYF0w8hhZv/alzJYb2HKFGUGolurMNktb6KNnAJ+wtfNJyWtAagsTC7cOFC4wtAIIXWADQWZo8eqTddc8ny+94y9HYYhaRcjZuuXuRK/MwtAN/3NAVaPcFMekdDgaZ4vwsRkw/gLfsarHqBjQMsEXggX6uNQ0sT0jBAgwI5+0Ix62zTutGvzNyEoU5k3jUzSCw7YVxcBnJVvC1UF04pniWEoru1aq1RBvfATbjLMWuwqQOtqWBGtDd1oDUEZtX34m883zUW/qvvMC6seF8elY8Rs2gfr1EIBRqvciYZ0DCgKfD51E6cVJt/qAxnJzkh7KQRT0SpY8mJBtq6dWthbi5h/P/VnasSv0o4pyeEsughMp5wTI1Rd7Det8pqBlabu/lh0x3hr4/yH49w6ege7NpzAGfu/KPRp1aXNVMGWlPCjChqykBrOMyq8CH9IA4c2IFFvv0QsjaBs5/5wIEEbP/TF138+a0cv3//hjNnTuPmTXUL3bq7mG6ZkgINAxrXlZciOawzoq5xTEvEFb0F7RMNNM5rqszEhtUnoFtLbDnSN2/CLW4ecp5O204CNCuHEdj+XH9fHqYKtMmTI5g+M0M3M6qWmakCbZmzG9NnJqaZsU6PStxf2g3mas3eqq0G6ttCZvt1adKt1qBAo4GmeIdtPgOw7pm6vYApaNdIoD3Eap9AbEp7iux37/H+vdj1HbKfXcbqYZ0xLYVvoHPD5S1LnoCBqx6qeShveCrqR5BZlidNmojExH0ms3p4dGHGLTUlzIiqffv2xs5unsjo94fJrE7mUtjbWKFhMKu+x6pebsRguRSOnkMQOG4cQifw9DOHhSJiQyr4uprfvHmN5cuXISFhr/rNS3+ZpAKNA5oCn44Ew8XKFwk/tPXdtjz5RANt8+ZNIEKSGZxrl8qHWNVTUmcKKvJrU3XwaLugg9CXrmWnFmLpDbbnszaXjdog10umjyHTyJjK2r17Vxw9erRRuuhy8LRpU9C9ezeT0ZHcD909uuD27Vu6yAEocrAvbAYa29VM+9B0k7+lHtUYoFW83I6RDm0gaReOc3psHTMWLUUDjXNgNQs0cwvYOzqgQwfH2rV9O3MGdOZWtnBsX7efieNoCUubdkxc584RSC7QkxxKZX2rHUU5Sn9X1t+vp1PSZKgCWhWo/AXurmYlih5moLFdzRRoWkvApCLoDLTS+4geVD1VkcxjMXi9BLZgtRoNtDWBM3Duh0ZbbGUWtozsg4j9j1FQz8oQQOU/SJ4bhDmHsniNMRqlackrnN0QAR9PR1jJqvsizG1d0Nd/BmJTXgtblDXqxPRgqkB9BSoz12F1sm49zShPw+bNGYLTyVCg1dfclPfoBDRlAa7N92CGM1l2cEL7IXF4y/VubuHCNQ5oVVnYt/sqNE0wKh8sw7CpZ5jp4Xn1Kb6Ime7OGHf4H+hTV+W3C1jQ3xpStvnTwg6d+w+Bv48H3Lr0Ri8XB/RfcAHf9HlS3oukAVQBoPLhSviMiUXaszd4J7qf+T3ev3uDZ1dWYli3KUgR4CEFWuu6yxoONCW+nQ6Hu8wMUvth2JQwBz1CjuhozGfcWjcOaDzXVnZmEkbEvuJxAlxzkDIX+wNkkHVZgAx9dXspcnAo2L4aZjJ7/DH/IB78qE68KmsjwlbcRkXpaxyO6I9xBz7qFaQ8Uui0W/ljHwKs5PBP+EqbSnVSsO4gY9Cy8uEK9BTrOYf9EFP7b4Ogw99574XWBrRf5VV49L4Ep+/l4VjGDxy5qf/16M0fSL6Ti5svC5FbxDekve4+a8qthgKt6l0ixrRvA4nUEcEHP6A4ORTd5lyF6RntAwYBWsX1uRigtYZ2BXM6toVE7oekPP1Y21S9joEX4wXEGkNjMtWaM2uBBkD58zgmjVwHo7VaLX2Ck1vjkPxE0LNzUz5DLfdcRqAlC7T6/ckOaGdJmsQlsLK3R3uVPmjS1+xoYw4bR9L/7ITOU06Ar6v5wYMHjKf9JUsWtdxyEpnz119KcfDG9yZfr7/4Fwrl/4nMpWGjNQhoZU8RN8yGucc6TTuLH0oyq4gPBkY/5vU8Y9jcGzZ10UB78eIFkpOP4+nTJ9pzVHwJMzt3RXjSMxRzsKoyNwNbxroy7blS11lI1dOnQtnZibCTmEHmsbDe+DZVoKHqKdZ5BeNwofZLoTGoAo1VoPLhKgTOPIv6Xc1xGNkvHPufFHC2FlR+PIG5IbNwKKtpHRQ09noNdfzrr80DMxagBGpKI4CaeKAV4/aKPrCSmEHecwGuF5GXcSXuL+sJ/71feGv8hiq/pkhXNNAalhkFck6Ewd1CCsfevpg8fxnWbliH6BXzMD14EDpat6kx9Zdj8IZMvVV9y6/OQAepGazDkqHpdEsVaIpPu+HvGICDPzlo27ALpbGpAloVqHqZgN2p9Xqa8WCFN6aeFf6qKr40He5uQTj8kb/T99evX8jOfoOcnByteWmpEX5XKHDob4GaWdrfWBr/FEk6196+IC7+DGLSBM5x4zve/9Asx6ZXVBzQlMi7NAsepMXKZiDWP2TfiGVImeKK8NM816H8jfycT8j9xX+/Nf0Viz+jaKBdv56ONWtW4erVKyJTL8f7s4sw1FnKPU6N9HEtOY8cDQNJkYlzRlPmHcN4hzawDEyCZismAdr4qON4kJqAyIG2sDBis1Vj6PfhFLgF7jReLctwZvJwxL4WfgCUuYkIkLdFl0UZvA4DWkMf2tOP/wk3M15JgF/YaSTqDLSPWBw+F/OvCgPtQubPZn8KxABNkfMXwtzaMtMT+e96VXfvKH8gMdAVs66qNotV4svLV8jJ3IUJ3a2qbRCs3BCwPh1a/WY3uxrqGRANNM5xaOD35cieRlnyFumHY/DnzDCEjA1EUGgE5kXvxoWsQs5mFvY43f6X4/nWoXCw90WCxhdtVdZ6DKj1sm8J77gs421DNoJ+H930N8KjjFbLClyf3097De3qLHSUmUEesL/eRxqrdmsA2vmH+VqAtgcDXXwxYcsNbD7xGFuTxa9bjt9B9OY16NdlAuZpARppfiytaN7ai1agVb7Gbv92kErawjX0KNT8Ele9ROxge0Scq6uhKb8dw4yZa7BopB+WHUrF7RvJ2BjkDrnUHqF/8RsjsfefMf1vHNCMzJcjI6yyCE/2T4HXkBk4pNI3UQs0mS36RSbjg3EZLhnTPUHz0kQKFF+egc4eYUh6XszRn1GJ3FtxGOtOWjjawHVOKm/TfGsAGrE4ZPuyOP9f2aPywaruB1PVM5HQttR2vCigFf76XxPdIdynEQbab2RuHAQbiRksus7ARc2mqspHWNNbCreJfyGnEij/fA1rfXth2ubN2Jqu4oawNAOLPSSwDvmrRZn3NxJoxuXLUbX4qwpf4/qFO/hS8zGlzL+H5P1/IfVlvvBwAtVE6DZVwJAKKHJwItwVFhb26O0/CfNXRGPDhjVYsWAqgr3cYC2teTFbD8CGR6pNROqZag1AO3HbeID273/GCjQlim4sRC8yWbFlLyzL4Bi8WPUSMYOqu4EsbKxgKW0Dx4C9ePtvEUrUTArKcC7CFlbBR4THE6vfis3+q9FAMyZfjvXVrMSv/C/49OkrfpYK91XUP5buoQo0gQLl73F2iTeca5vD1WsXMqfBWJLySfAjjALtOw6SGppVJwyO2of5scewcJPmehQzg3rBLXAbFtQLO4aFG5ehl0uoqBqasQJNmXsO0zsT37rWGBL7mMe7zG/cmN8RMmacY1s4eP2Jq5wdZQU4HGQDr02vBe+9JnhCGnQK/QDNWHw51ly6siATh5cGYYCbvKbgzCAxt0anP8KxISW7ngVkgxRrgsjGa8jQBBev51MYhZa8vhzZi1Wi5G0aDscuxszwYIwdMwahU6IQvTcFWYXa+2so0KqBNtBtKpak8hl1fEHc3CHwmHWL2xLy6lEM7diygcbeTVr//3qDSwlbsTf5NnL4Kv5FZzDZMwRHv6lV27Qm3dwRRAPt0KEDGDFiuPoUFZUPYWy+HCs/HMfU7hYqlpVtYOXggs5d3NDBVspY/XivuQ6jttg3WkOG5r5ddTi/EWhpaF+OZWVl+Pz5M3Jzc3UQqGUcIqbJcWDH6VhGgaaHAq3Cm/hAjNnxyngN53iuUjTQOI83Nl+OimzsGGFdDTOZPQbN2IqLL/LrTFaripB9dTPCPLtg8plcjo54zqvk3FlVVYX9+xOxY0e8yayxsTE4fvwY5/UacicZR7V79y6T0ZHcExs3rsfVq1cZ2Qzty9GQZWMsaVOg1ZWEsFFIXTxdt6re78eM6Ul41wJ7aUQDrbCwEP/88wEFBXwOeOrkay5fjpWPV6E38ZknbY/g/W94rcKq3u/GmIA4ZGtvzam7KJUtArOwsFBmXi8yx5cprOHhYbCxsYSraweVKzX8JoHZsMEDMbprVyzuP9Ak1hk9e8NC1hYjh3ozArKur4Qs7ITDhH053rt3F0OHemPu3EjDF1gznUEU0NynYSlvDe0zNszoh85T07Gfa6xaa2pyFCrD0keIj1yFa/ktq6mRvSTRQOMeh8Ymo/6/uXw5lp0JqzZXHbQBL4W+LpSfsXt0KP7iMAJSv5L6v1iY+fgMw507d/Dw4cMWv6anp6Nnz+4YNmwIA+n6V22YPSzM5vTth4JZ8/Hv7AUtfn02cSo62tthtL09JoUEM8KxQDOUL0fah1bTh9Y+DAv4xpGl38ek/pawGrQZW9I5+tmuHIBXCzcKafRTqviMs0vnIum1SseaohAFRTp++Tc6Qw1PwCBAQzP5cqy4tRBdZWawmXiKx8KnRqDKp1jvFYj9nNY9/CKaMsyCgsZgzZrVTQY0U4bZEhd3rHHtqAI0w/pypECrsXK07ofQI1/Ux6tduIRp4REY0MMJ5oxlnwUc+47HqAVnsF0FbPsPLUcXe3Hj0IzVypH/zSUiRPkT15ePwKg/k3D6zGmcOXMap5OTEDNtKna8EqodiEi7CaMYBmhoHl+OKLuLZZ5SWAzeCE6PQmXvkJqwHvNHd4OteyTSVT5EtGlu2jAbi4MHDzYZ0FiYRZpgzYzA7LpnPzWgGdqXIwVaDdAs2sJhWDxi1ZodvyIpLQeJ19TX/elfq8GX/g5xu3bA19MGYgdWmx7QqvB82xA4sOMeVaYustDW2qXtxdnE4QYCGrmKpvflSM5afGsVBju4IeLUVw3XWkp8S/RjPE9LJFL0WnFPuBanUhCtAWZNBbTWADNNoKncSiqb1JejihhaN7X2oaXdxOwJo9HV2Qb2fSMReeitek2Nq9/sxmfErF2KgEmLETxrDcKXnEScSq2N0yPJje8wPaBplb/FRDAg0Ko1aFpfjuScShQ+2o8o/2EIj0lBtsrw9+LLs9HFyhqeExPwnHU+raWoCMwCAvwxYEBfHDx4AEePHmnx64EDSUyfWVBQdc2MwKwpgEZg1r+XJ8Z7eODv4An4e1xYi19TRgczfWZszYzATBzQqC9HLY+eWrBWoLHAIjWunQmYED4bUxM+iYAaR38amxbPfwo0taIxqh8GB1rzXW0Ffr65i2ff1Ds0lcqGWe/cvPk3Y/3Xo4cHPD1NY3Vzc8agQQMYiLEwawqgkQ8CRwsZBtjZYUA701jdLeUIdXRkIMbCTBzQAH35cnz79i3Wr18LMlbUVBfRQOOBkGptK+nEZoxdcJ97gLWI4ynQjPcuEw20f//9Fx8+iDPbr3+5VSjJ/Yj3n3Lxq0n7Fxt/3r//voFBg/ojLS3NZNbZs2di7NjRTQ40UjOc5eyK/KGjTGad2sEFfzq76QQ06MmXY/3nzfT2NAxoX5F45S12n3+Fnedeqq9n7mPZ9KHoE3mHAs30bhOIBppO116Rg7RtM+DT1abGwsgMUqsOGBS2DAfv5xrOR5gez0uBplPJcx5EgcYhix58OX758oVpBk9NrR7IzXGWFr9LFNAupGLqWG84tzOvntNLxbhBfZyfBN3mUKC1+JuC4wJEA43T9RVHguwuZeEtbBhuX+dLUfPmMu+AUVse6H1qAn2flwKNLdHG/6dA49OQ+nLkU4bdrxVo6c8ROdKpDmRSCWTmUphzrpboEUWbHFltTem/aKA1ZGA1lPk4P9WVgZnM3gOjo9Yj8XQq7j5+gVevnuHhjbNIWDUevR07Yvblgka5oFIrDAOclwJNTeFG/aBAa5R8vAdTs31itn8AXjZmkNoOwphNd7D7WsONPVT72YS2aR8a763Y7AEGAZoiZxdGWsnQNXQnHuSrG2WoXnHJ/ZXwDtiFT/xRVKNr3TbEeSnQtMouOgIFmhapqkqQ++k9PuX+alBzPAXadxxMPQGf9hJY+x5AggjDDiFgaQujQNNyHzdjsEGAVn5hCjr0Xob7dbN8c1+i4gPiA8ORXMId3NC9hjgvBVpDS4E/PgUatzYVOdewbeYwdG1H5rIi86G1gZVrf4QtP4D7udqtqCjQSG3sA1ZM7AbrwVvUPIBwwunaS2w/p7tJPwUa931sDHsNArSys+HoEcU/ZXzthVe9QuywQCQ20AVV7fEaG4Y4LwWahsiN+EmBpimeEoW312G4Y1uV6Y7UJ/g0d/XDlgfCTkcp0GqaF69cQ9gfQzFm1zvB8Wf79y/HiLnUKETzbjSF3wYBWtWTaPwRnIQfgkO+lPiZGglP1+m4XKYfKQ1x3tYEtFmzZmLw4IH6KQyOVFoT0KY7dcDksFAOFep2KfPPYao7gVlb2HsGIGrjPpy+dgePX7zEq+cPcePcXqya4AnHLjNxuYD/YUpPT4OLS3sEB4+tS9zEtrQbhdzH0uXbMX3+THh2D0Dwku2YvpRjXbIeAYM6woNaOZrYHVJ9OaKBdv16OtasWYWrV69oF6LqCdYN6oKwxBco5ngOlcVvcSVuAjxt28J58lkUak9RXAwDnLe1AO3PP5fA0bEdMjMzxWmtQ6zWArTlLu5wa+/ITLfEL5MCObt9YCXvhNBd98Hf1VyC+6u9ELD7o4YrN/6UTTFEK9CuXcAoN7bJVr2Wq26yT8Ko2b4p3iPkmkQDrWECKFF0fTH6WEnh4DEYo8OmYFbkLMycOgFBPr3gZlPdxCJtPwr73mrvIxB/bv2ftzUArSlgRsqwNQBNHMyIGuW4MM0RvZffg/au5m0IjDgBPXU1i3+cjCimVqDd+IwN0/vAXGaDDj2HoI+3H/oNGYX+nOtojN7wjA6sNqLy1VdWRAPtxYsXSE4+jqdPn4g8dxW+pq5FYGcLzv4BK4/x2PWwSH8m+7W50u95TR1oTQUzUjymDjTxMCNqlOFshAeirmmf8qHqdQyGjdkHvq5m2odW3YdGXFoNDEzEXmrlWPs2bG0booHWoHFoqiqWf8ejs9uxMioCoUFjMH7KPMQcvolP2j5LVdPQZVtP5zVloDUlzEgRmjLQGgYzokYVnqwdjOAD34U/6pQ/kTrXA64zL/HODkGBVmMUkv4Gq7anUqDp8r40kWMMD7QWLpSpAs3La5DB+8w0i95UgRbQrp2IPjNNNYCqp2sxyCMUiS+KOaCmRPHby4ib6AFbmRMmn+PvaaZAqwGaRs0s8dILbPnrAbaee4/9GmGc5vwi41Cz/fr3srHsMQjQKm4dxl/Z2vrGKnBvfyIyK/QnRcW9kzj7Udso7QrcS9yHhyLPS4BGOpXHjx9nMmuvXp6wspIb1ACEq1QJ0GxlEsx1dTeZtYeVJextrbUYgHCpQWY6KsT1P3vCysIOHn8EIGzaDETOmYGpE8fAp48LbGTVY9LaByZAqKuZAk0FaOkvsXrpbPTr5gR57YSVElh26IdBU5Ow8ZJKXJEA04QfBRrP/WwEuw0CtLLkCPjFPoXKVGT1L7UiB0fC+iEqVeTEZPVTqLen7OQ0jN7yGIUCLFX+/geHw/oi8uqvesdz7fj69SsSEvaY3Pr8+XOuyzXovtevX5mcjuTe+PTpo+66VX1F6jp/dLbissyTw2PCTjzkMhVWOSMFWg2krt3FLL9OsFDxGys1t4Zde2fY21lAJmkDa8+5WHy2ZrZqCjSVu8g0Ng0EtBBYSsxgLpfD2pprtYBFzdenY/hJCAyxaZDKZcnV55VamHOf10oGc+arrQ0cw07gJ8eQggadkEamCuhJgfIfmTgbvxxRU0IQFDQOUxZswOGMj1otIMnpKdAI0L4gJsqLee+QcX3W3UIwfl0qtl9h4ZWDnQcOIWRYZzj57MZWETNTa9bM2N+0hqanm94AyYgG2ubNm+DoaI/o6DVas8GCpf74D46vULtg/FWgNUlRERp0XttgHBN93l/4cOsE9sRGY030BsQfvowXeZWi8tQSIv3++hQ3zh1A/LoFmB7iA6/Rm/FUoJar+zVRHXXXjv/I/Px8XLuWiocPH/JHauEhWs32r13FmM5kHFob2HnFYMMVnqbFtLuI8PJGcNJnQW8iLLy4/lOgGe/NJBpoDbmEsuRQdAvegvSXOfiRm4tczTX7GuKjJmJ+0j3k5BaiTE81pbLkSRi69DLefM1HQUFB/TX/NZLnjsPic2/xs7AE5SLOq/hxDdF+zpCrNGMQUEvbeWJK4lMTGBukRP7LDNy8dhAzPckLoS06zb8O7cbkDbkjAKqjpl4VuHXkGLR3Nd/F/v2ZENnlq3kSk/mtFWhXEjHI0gwS815aYPUVWxeORL8lL+g4NJO5O+ouxDBAO70Mq+5oeQQVn5EQ2AljEl7q7WEtuxiH7c+0VC2Kr2H+oBHY9lzEK7viKTYPtYHUuhN8JkVi2ZqVWDDJC+7kwSGAkzkh+OB70/DgoMxDUqAMEqkjZlzUX78mc6tRHeueuNqtMiRPGYnYZyUcFo61kVCRcxhhA+ZAqKuZjBGNipqDbdu21B3YjFvfv3/T+9m1Ai31LHyd20JiOQaRfLUzps+MDMDuB895mRRoei+l5k9QNNDWr18LCwspli9fpj3XVRWo0FL7UeQcRohzG0gdw3FWXy4QykrwSwvPgArcWtQJ9v57tExbo0Tu0WB09FqMSzmq8FOi6MEm+Dm1YaAmdZmCFGHfsdr1MoYYJecxtX0bSBxCcbJInxmiOnKrWYbkUHPGDZPciqufWQ5rK2n1BLlSe4Sf4p830Nj60GbOnIEdO+K5L1vHvVqBduMfLA/tApl5b4w7yNWc+BGb4+IwLsQPLtYO8N74gTY56lgWxnyYaKDpPLCa8+qVyE30Y5rxpE6TcF5PQCs7vQrrHmjr2/qN1EhXyKxG47BQH5oyH0enBCPhA9cwAAVy9o9CO6aW5op517XURjk1MK6dZamz4SYzg82YA7weKXTKMdWRRzYWaBz9yhrN26Q1wC7kGPhuV2MD2owZ05iPvcjI2VAouJ4fHkkEdmsH2nckpZxGgIc1HEYm1DP6SDqzDX1qWlZkbjOw9DJPH5sIy0fahyZQUM0c1ExAA5RFj3Bs40LMnLcHnMzQQRjSd9d97HocTbnIWH6RB71uvYCUkwewdZEfOpMbu90EnBICqeIzrl99Ar7GN2VeEgKZB8QOU1L0NF2ADtesn0MqcGdJZ8gk5hi5O0e/TahUR54iKkNyWGcEb0vDy5zv9fuZc38gO20boibNQ9L9HOQWlfE2TRob0CZMGF/dJC8xw9ixo/Hrl7ghMjxCMbvFAI0YcCSdu4SI0d7wGLEMC46oTCNz4SiGO0shd/FH2J63OtfOyDko0IRKqnnDmg1ozGVXvUSslzMCd2fxuvVpiDzirRzl6LP0bzSqpbA8BdMc20Bi3hPRTwRqhcpy/Mz5pjbrwO+vr/D6G7/vr8pPF3Ag5b3WvsWSx8dx+FZ+QySqjVuWm42nT14jl7C48hHW9JZAYjEIm7P180VdeyJtG61WxzKcXr4C2rua9yKwayASXvG3Ahgb0NgaGmvlPGBAPzS2X00s0FirxH1nbmBZQqa6h5D0z+q/RdTG2PRU/1OgaXuomy/cMEBTFuJ+fDi8ujrAzsoclnIZ5JyrtHpcmLkzAmL+hojJeQWVIkCzsnREj0F/YPjwIeqrz1D4+PojZPJ8xJ3NQpGWPj7BExEnD3n7mRqazGMRbqu9axT4kZGImKXTETTME+7tpLAcvh2MAxPlT9zeFICOlmYw91iCu5wcrERW/HA4WnbBlBMfwBkFwK/HWzGqgwydppzSllW18F9vTmF1UA907jkcQcHD0LP3OOw9txZeFmYw77MaQmxWS0hPP1qzjlUVFby1rmp5Fcg5EgxnaRs4Rpzhtag1VqBNnDgBzs5OTG3N3d0VWVlZOt812oH2Rc7OkgAAIABJREFUGYmpX3SveaW/xo5zOaKOp0DTuRgNfqBBgFb5aCV6W4jrG2C/4sgcRQ59xiH6ou5eF8pOzsH0k/laXhL60bT4bDgcpXIMj8+u10SnVCoBZQGSw+wglUgxKCYLVcoC3FzlBWcrKfOA8wON0LIAGdGD4WDVDTNOfYKmnUvpsx0IdJHCLXgvXopu7azA+1Nz0N/BASM23Kz9eCi58yf6WUshlbRFtyW3tdYK9aNeXSpUxzot6m0pfyBxlIwZW+U0+Rwv0B4/fgTSzEf6uY1hYWto8fHbkZOTg969PZl73tbWCmlp13TKolagXdmHUeHnkKhjrevglcPwD9qHnSIGXFOg6VSETXKQaKBlZ79h+qNevXqpNWPlF6fCUWYLn7Wp/GPCyDixvPuI9hqJba9+1owZK0RRKV+dROtpUfUmA3f55tjQfrj4GIrP2B9oA3mvP3Gbr3tA+R2Jo8whMffAyge/8e7gVEyMvY+fWTHwspSj/9qHwmO9lPm4vmIg2ll5YNbZnFqo/X6xC2PdpHAJ3IFnfB189a6kCh9PhKOr3AJ9l2WoN7WWX8GsDm0gkbogMlU0HeudQacdVEctsilR9PgoNi6ejnkJH+p9OGk5uNmCVYFGMlFcXAx/f18GajJZWyQl7W9w3rQDbQ8Gtu+HodPXY/KSLZjagHXKwo0YHzocjjZDMOm49loeBVqDi6/JDhANtAblqDgNCzw9sOiWqrk7RwqkD22IH/Z+bWT7H0fShtxVnBYFD+ueWJoh0AtXfBqTHNpA1mkeUh9vw+S5p1F9mUr8+lmA32IuWZmLa3/2g611D0SlfMGvlwkY5yZFe784PBIyaNG4+PInMfC2awMrr/V4osmswiMItjKD1FF/1qYap+f9SXXklUYtoOrVRni5+WM3T3W8uLgIjx5lgnx0GsOiCTSSp//9738g5vxsiwwZ/sO0ZIjMsBigDWhwq5BmK5IEHaela+1no0ATWWjNEE000C5fvoQFC+bh/PlzorJZ/vY0oudvxo08gTe34jNOLV+Ly3py5lj5KB7hAb7w9/dDQPAURKewX7UlyDqxAhGBPvANmoq1J7N4m2+0XZyyKB0LezrAJ+6xoJ+931dnwlXaBs6TNyNm5krc0LXTTvEdVxb0ho21Kzp1kMLRZwPua3FWq3YNVa+wbZglJOZdsSijfpWu5OJUOEtrzMIFikotTT38oDoSS997iI8YiK7trWFlac7TzyyD3EICKfGN6uaHmJs/amvrbDHw9aF9+/ZNvR9Zs1/ZQL9ZaJEmR81l06bYWqiFhYWivFzzC0vziOrfooAmt4ST51D05Zylmm/2avX9A6cewy4tzY4UaNxlZAx7RQNNv+PQDHPpyi+7MFIuRadxccj4ylpqKPD5eCgzxkoikcN98AgM69EJAXvf1HsxaM2V4gtORnRFz9nn8U3w5V+BjEUdIZNYw2tUBKJvNG6kcllWHHxsiWcSZ0w88aVBTU9FKVPhJjWD1Ygd9YdHKL/jSAjp55MjIPFbk/Q9MhpTHYlpKR6t9lTzDM+CQPC/uR36jF+Di5/qrFH5gPbhw4daeAimyTHuTR/xuYBGyv/UqZMMvMk5vL29QHxRalu0A20vho/ah1269qE14DgKNG2l1XzhJgW0itsL4TlwFR6qWsQXXcIs97YgMBu48la1dWPxdSzyX4ibLPNE6V+CBxuHwDMkEW+0tKSiMhOrehG/iOboPu8KCgXhJ3zy8uyDCOskg9PI5YiL7AUb2z5YlPpDHHyUeTg6zgYSiQX8E77UO6b0zhJ4kmYauTfi9TUYUPhyAFAdqyUqx8Xp9pDZD8Paa6/xNZ/D92iNP9K8B2vg5bcFr37WxCkshGpXsxigpaScR1OvBKh8y717dxln5wRqXbt2QnZ2Nl9UZr9WoKX9jaXbH+vszkrVLF/bNgWaYFE1a6BJAa3s3FQEbnunUoOpQvY2b1hJzCDrGoX02n6nMpyfOQEHhJpD1YqlHK8Tg9DbNxYPa9NQi6D2o+r1RgwmoLD1Q0JO3Ze0WiQRPyo//IWIruZw9NmIB6SZUfEVF+Z6wrrdACxLF2HNWXoOk5mxcp5Y80jD2Kb0IdYPt2e0sRi4AVmappQi8tfwKFRHVc2K0+fB03MBtHY1v9qIIQG7a/pgVVOo3tYGNGJdaIzL+/fv4eHRlalFOjjY4datDN5sagXajX+w56J2s/ukC8+wXdDXo3YPIhRovMXU7AGmBbTz0zAh8XttTUSZdxqT3aprZ8O2q5jXK3KwJ3QGUlRrcrxFUYF3x8LR13sZbvBMoKbMzcSD92x1T4FPO4ZCLmkDp4jTKORNVzigKuckZnS3gOOw9bir2v+m+IKUyB6wdhiM6Ax+/34kdcXbOHgzNTAf7P6sUk1UFiBtaRAiwvpDLpHAc8UD3vFuwrlsSCjVsb5a5Xh7Zg3mx12H0LeV4vNJLF93iXfewJYKNKIHmRVj2DBvBmrEV+zx43/VlwmAVqAxZvtntZrtJ8bPh8+SR42qyVGgcRaRUew0KaAp3scj0GclbuUroCh6jL0hroxzV5nbVKTUGp5UIufsdPQO3Mv7xVtXMhV499ck9PWaj8s/NGtaSlSW5uNdRhKiho7Bjvc14crvSAqUQyJ1woyLIqpzdSer3VJ8OY/InnI4DInGrdp81wYDVTk4O8sDVo5DEHOPH5m1QDPvjlWZbA2tFE93jkfwxovYSfIpc0HUtXJUfTyBjQmPhYcSqGShYZtUx4bp1bDYLRlo5ErLy8sRERFe29+3YcO6egJoB1q12f6wGbGYunQ7ptdbt2HKgjUIGNIJVj1XYaOG4Ufi8aMYH7YYMxO1u8WiQKtXPEazQzTQTpw4jnHjgvD/7V2HXxPJ+/5D0FSqgChiQxQbNhQFCydW5FRQVCwotrOXU0GxN0BA9FQ8G3oqthMrYj0sWMGKwg/xhADfJPf8PrOwsAnZ7AYSSpj9fCa7OzM7O/PsZJ9933nnnZSU5CZT+VoV0RbiwrwuUCiUsCOSCeM8uD1CDudCAy2Ks5KwZEIPuMhsoOi7Epm1jf44RZbiWVIIurDlGBk4dwhKqCHHoqMIaVMfM/gKZO/wR5fBq5DBIxEylVTn4kRED3iFpXLqrHdYdhnzmfHDVnAZvABxqYewZdZADJyZirySi5jr3goSRV8sS01CVOhqXDF2P72ixZ9SHMVjVbecFRUVKCoqwr///qtTAGsU0lRVjtzK/vfff8zEcNYYZebMcJSXs1oPMRLaPog225d5ImgfVz2ZiyVj3RhLUsWQnYKGJZTQuE+uaR2LJjTLVFsLdVk5Z8zLDHdR5eDEyvEY5OUBr36jsfiPf8DOfdaoilHELvxpdIFPLQrTwtFRrj9PxdC5EyYd+Vqt5vyZNg1uxKpwTH281pejrOa/zA+KphxlrOBlMJcarw+FoDNLygo3+C87gzxyTdlFzCGEJmkNF99FOPtBXwI1WKCJkRRHEwEza/bmRGhsw1NSDkIuJwZVNhg+3B/fv1dqIMRIaP2V9nDr6S/CbH8Mxmx8wlE7fsSOTRHw7OiNQb/dEDUP7erVK+jTp1ejBJb0X7x4zsJG91UIiCa0L18+48mTxyBzW4Q21ZlobHsiwsqgsSZWa94hdedRgfXQhFrZXNLVyH90Fn+kHMe1nO/VxAuo8en2MRw+cw/VMxyaS5MapZ5NF8eMjAz06dMT4eHTdJBpjoRGGnDu3Nlq9WPPnt1RWloqYgxtP/yDDmCvCeb3QtaMfOlEQjt9+lR1HVmCaeg9JTSd7s6ciCY0U+ahqVJD4b/urrAD4MYiNDN7+a8NK42hCDQcAs19DI2LVH7+Fwwc2I8hCzs7BTPVgKQLSmiXb2NNHFfqErZW5CMsoXhCaGTu3N9/X2vUUFJidMyEC2uLObYQoQXDVtIa9m090K17N3TnDR3R1s4W7bt5oZfPQIyaNBvrkzPwXmieF9/jaSQv/3zVofEUgYZAwFoIjfiJ7dzZgyGzdu1ckZWVVQ2fIKHVksxysff4XcQczsKu84ZWsK474TX2GFo1KPSgFgIWJDRD401i4lrBeeAinDfuiqNWQ0hEY3n5N1gZGkkRMBcC6hwk7zjJa9pvDYR27dpVODnZM2RG1Ix5ebk66IkmtAu3sGDGOHRpq2CMPBg1oNwB7fpORvCmW4irRXymExslNJ1H06ROLERoIeg0YhlSzl/H3XtZjONU4jy1Vrh3ElE+g7E6PQv3s+4h884NXE8/jeTfJ2HI5CSYOie5sbz8N6knSitjZQiU4uWhX+EVaH0Tq9kHRSynWUOQESMCQJwt62+iCO2v85jk06aGyPQtk6V26DB6N6Ivmk5iXDUkJTT9p9N0zi1DaCdWYd1do+Z3lQjwjqGV4lLUGGwSY1jCxdLKvfxzm0qPrRyB8i/ISt2IGUM7MN5clCOtj9CIqf7ataurjSuIl34yBcHQJkxo77A6tDvkhMSkjug4fBGmbziNdQfvIvbITazflYLw6ePRyUmO9hOPCTog5hKY/jElNENPqGnEWYTQyq4fxBF2orGxdvIRmjYfR0LaI+QYa3BvrBDdtIby8v/x40cEBQVi2DA/qwk+Pr3h5zdYF9AGOHvy5AmG+PthoN8gqwme3T0xNWyqyehVfL2P4zEz4N9JWf2iJ2ozY4T29u0bEEfAx4/rzklsylaOZDJ1aOiU6jbGxGwyipUgoaWfxkj31pDIPeC7+javx5D4g7HwaT8QISnC657pExl7TgnN6KNq1ETRhEYsar5+/YqfP00nGf4WqvHzWwFKuFOgSl8gNWoAXGRtEJ4mbmkJtvzyGyk4kiM0XaAcdw4kIEvMPC+2YL09IbOuXTtj/vx5OHDggFWETZs2wdnZEVJpK73WWvaUkJlzW2d4hU+Ez8p5VhG6TRsPua0MHp06iASvAl8f/omYiKHoZMeOM0vg2nsclu49g4yruzF1uhjPNrq3YwmNEKKbm0uDh4SEeN0KVZ0Rd1dDh9a4u0pNPWowHzdSkNAuxGOAbWs4jUwUmBj9Hr/P7A+fZU/BEpSpe0po3CfTtI5FE1q9q60pQ0lpBWcelKESv+NchDvjrkrqMR1pJrqpV6WGYVTMI/zguC2sdZfyPBya7IPI9LqZvLJktnz5Mty7d88qwqlTJ9G+fVuEhYXC1bVNLcgsFcGSWa+F0xGQHGsVwWfVPNg52cHBtyd69+ttHDr1Nzw+uRmzh3eEvbSKyORO6DV+MfZfesXpx9+RlZGlu9I4p+Tc3HfYt28PyHPkblxCa+g5UuR+hpaPqXRI3JWRzIhD4ps3b3CrzHssSGiXziOoswLeUUIe9z8gdr4fei7I4kysJmNquYhPFze2RgmN9zE1eoJoQouPj8OAAT4GOylvK348w6mNYQjwdoWdrPIPK3d0R9/AWYhJe25gkU0VMmOGw6v7SKwRu0QK5+aqVDJdwAZypRL29oaCAgqmHq3gOvU4r7NXTpE6h9ZMZrNnR2DXrl0NRmjWTGbOo33hPNZPgNDKcXOFFzM+Rl7+cpceGL9kLy69+iHw0afTJZkTPitHMh71/PmzBg/9+/swhKVPaLdv32L6F2lvt25d8OrVq9qN4YkRJLRrHxC9wA8dxh7BfmOWjH/9hbE9umLE9lwdCS0xdTP8p55BvLFrq9IoofE8pCYQLZrQTJlYTdql/XQWC/vZ11gcKZzQpZ8fAgO84NG1N3q5u6DfwrP4xFU31hMQltBEfY06TcCRQvE3tHYyS05ObjBCs1oya2MPQmbtZo0TQWik75Xjy72j2DTDD97e/oiIOY77+abrwvkITXzvNm9OYtyhL6Glph6rXtSTjNMWFBSYdFNBQrvyGL/H7sSInj7w/+0IlsQe0wt/IHLJEgzq5ghFlzDM2MKmH8Wi6AOYMS0ALq4TEHnmow7RGVJHUkIz6dE1aGbLEJomDwcnOFeSmcwZg6OSkfml8o+qzt6EyStvorzkOVLC+mFi0juz+XJUpYag24StuPI0D1/y85GvH3IuYWfkFEQl3kFefhFUxlSTnMfQEsisoQithszCrULFSFSljJqRkFlQJZmJJ7SaTlbx9QFObI7AyF5eGDZ9PY7c/chZ+aAUr5+9Ad9qR02d0GJioquNP6ZOnYyyMtPGxglKgoSWfhzD3chSUewYZF32CvRYcFdPFVlbDUkJrabfNrUjixCa+nk0fBmHuPYYGp1V7RyYNL6a0IgUV3AUoSN+x2MhOw6RqKlOLMfqWwJfuJr3iAvqjLFxTyGQk7krMYRp29aFsf6bM2c2rCHMnj2LMRAgakZCZGywtMqR+J6ztVfCbVBvdJ4wwipCxzH+sHWy0yGzuhBadRdXF+CfM1sR+Ys3uvv+ijVJV/Ai7ypWRcXXrOhQnbnyoKkSWmzsFkREzKommdWrV4KY6tdlEyS0a3lYM9UTMokE9m6e8OjWG1169DE5dJuYJGjSTwmtLk+wYa6xCKGpTk2BE1kl2msRbuh9jHEJDepH+N13AlL4l/QyDQV1OcoFpC5NXgqC27eC1HUqTolYroz4a/PwcAdZzsJaQkDAMPTs2aOayBqK0JKSEqHwcIXTyAFWE5Se7rDr1oFRMxIiY4PwGJpQ19bg+/Nz2BUViO5OrYya7TdVQmOlJZmsNZKTk4QabDRdmNA+IzFlLXoF7MIuvbXODKkN6xNHCc3oo2rURIsQWtnFWWgntYH95FTo2xJyCU2TuxeBrqORbJF1uAzhqkV+wigoJTaQtg3FGZGERpylXr582WrC2rVrGLNplsjYvaUlNEJo9oO84bEp0mqCU+BAOPp0qyYy8xFaTf8texWPSVP4zfYzMq6jRw8vZpHMmqsa7+jXXydVS2XEndWVK5frXRkxhJZ85QmWbDhlcY/7lNDq/TgtVoBoQiPmtUSFQCQWoU379Q9McmkF26DEWv7nCKFNijyKzPQ4zBvgCIXXEghpCYXuZ0q69vt9/BGzAQdufhE1dkfaSwnNFIT581JC48fGeMoP5Dx5xTuGZvzahk9ljUKIhPb0abZZKiCK0GpZKH5A/PnXSDCzxEYJzSyP1CKFiCY00+5ehifbhsLFeSTi3umaMaqzN3BWlrXFkNhsGHZ2Y9odTcutwbu4DUgW4QCZEpppyBrLTQnNMDrqnwX4WqQS9YFlqAS1Ws04PFCp9PT7hjI3QBwhNDLFh6yhaK5NPKG9wqbfl2GwjyeclFVGIjIlnLv6YcjMA9h4VtiKUUgdSQnNXE/V/OWIJjSylAOZ+X/37h1xtdB+x8MD0+HrNwsHHxZW/1mrCU3mCJ95qXhjKTbTlOFHUQG+fq1t7fgp5zLWj5qAuI8CA24AI5FSCU3cIxfKRQlNDyHVM6RE+MCVMaBSouu4aNxg1e/lL5C6MhwzFu/E1Q/G/yRNbQyNuOAy91pdogjtyiMsDO4JO3aSukQCu3Y94OnTH+1d3dGhkyscuoYh8ljd3V4RsqOEptePm9CpaEIzdR4a20Z10XNcPXsLH6oENe23O0g9cATpT7/BTMaN7K2YffGDA4gc6QkXZatqPT47OK2zVw7HfkpoOoYhdAzN9LG9uo+hafByx5DqidUSCemvreA2LhFvNIA6Z3OVpbANlN4LkF7I//HV1AhN5w9pphNhQvuArctGwYEhs1aw7zEN4XseVE6UvnwVE4fOwfKLbxC9IhidB0Ujph5qSEpoZnqoFijGsoSm/omCr0VQ6WodLdCMyiK1+ccR6l5DZFK5lJnMqVTKau+dAhFPVY6U0OppoFJ3QlPhVKg9JLL2GLMtAx9Ky1H4OAURfToi7M9v0Gq/4+lfyUjYH4PZvu0QsPNVtZZD/w9ECe0zki9fx8QeEuYj1rbnUqw+x5k/xhIacW115SnmjhyIMfvyBCdQ86keKaHp98Cmc24hQlPhecpM9HeVMh3MrusYxNwoqHLpU46c1OWYOWMhdl39YNbxM1VaKJwlreASsA6X3hSbRQK01jE0okZlrRvZPZHQHBxsLdY7rVXl6NDX06CVo3sndyNYVuDequ6w7bkS9zgaxfLHmxAwKhZcH9vqpxsREHrMgKu4yuIpoX1G8oUEDLQnS8d0xIjtb3XJikto195jw0wf9F78WHACNSU0I923iSZZhNA0L7dhWLXXcBvGY4jUbQySGF3KC2zxrSQ6idILUemFJvuu48Oy/Mo8dJS3wfQ0Pp8KfFfyx1sroQ0YUJvQpk6dwkiy/GjUL8VaCc2+T9dahGbXoyOUDkqjgGnexGOs169I1VEnFuHMzGFYnVkz7V+TuxOBY+OQz6N1pIT2GckXD2OocytIbMdg7nmOdEYsH7mEdiUL0we2EeHEWK8MjgUlldCMdutGTbQIoVVOrG4NjzGxyPhQivLCRzgU0RNdwo7jm1aL4qfnkJKwF5tnD0CHgO14ZS6VZOltrOzthKDEL4IkWVGQj0LOlzHfU7BWQhs8eJCOhDZtWhgcHOyYJWT4sKhvvNUSmp6EZtezM2QOCnj38RaATIO8o6EYs+6uznxN1bWFGL7oKhibxbL3uLCoD9pOPq7jcYdbMCU0okp8gll+DpAq/BF+Ss+SkRDakDDMjjuBGRP6wl7WDgFb3+lKcRzC4pPM2HhKaNze17SORRMa8Zzt6dkZxC+b0FZxbwV62nbHah1dyiPEBIzAVh1dSjaiA6YgVcQEZ6F7sumlT3ZjQuAq3DZaZgUeRi9EQgs2CuESGiEzR0c7rFu3zqLe9lsCoTFk5qhEm8BBAt72tSi8EYtQfy+42bdBF+/u6NmzKnh3QBuHtvDq0RnujkSbocTIfbm8Y2hFRUW4c+c2srPNM+eL/S81pb2wUchnxMevhpejPXou0vPHePkqJnSrHF8jhmGK7kuxVuRSMSyJcfeU0JpSz9Cti2hC071M4EzzBgljPTElVVed+P1MOAJWZ9b4UNS8w67AIMTz6VIEbqOfrH5zGSlJidi9eDj6B69DfFIiyEtUP8TvWILAriNbtJUjS2gsmW3dGmtxb/vWTmgsmbUN+0WEt30VzoQ5GLfEZRztyuAxOhb3jH6g6f8TrO9cDKElX/uIPXGb4evdH8OWpdf4ZKwmtFaw7TIZESm6S8dwyUrMMSW0ptu/RBMambxJlk0nezGbJu8Ipo1Zi0yu7yvVVSweHoVrlboUvL8QBZ+2IfjTTItgV9z9Dd3lIr1st3CzfUJoXDIjhiHUbL9uZvv2fT3BJTNxzom1+Hh4Atyc/LAmLQOZ97Jw/z4nPLiPh4/+Qc77opoPQJ4/3qNHDxm3Vxs2rOfJ0fyjxRFa1bjXpWxs3HIAy9n5Zlf+wcqV0ZgZfQk7LvGPjYkhM5KHElrT7U+iCc2UeWjawgxsDfWDt5sSrl28alQpPb3QsY0t2nt5wdPdDgqJDexG7kGeucbQ1NmIGSSDwtUL/kHjMSlkEiZPDjEcwn43OreHfWSXLl2yStdXHh7tGTUjkcy4Vo6WXLF6z57dVunLUd7WATJHJYhkZpIvR20+Lq2ejIUn8+plkUvH0Lgk9QFxaU+xN11vHM2EMTIhYqOExr4dm97eIoSmOjMVbUSsS6T0GIVtZtWlaJAXH4LZp7hiYf1A3759G6MW6tChHawluLi0gVwuAZfMGkJCCw+fxmApc3GAtQSpnRwSpVSHzMRJaIC6vBxalKEwX1gKq92LNSj6VsQQISW0SkKLS96Jod3bQEacj9u6o/fME9We9xMO7sfoXyZhROQxbK2nlEYJrXZvbCoxFiE07cdDCHazh/+aM7iReQ9ZXFXK/ft48PAh/sl5j+81lslmw0P7/R4yHrI6zAr8/PYBubkfUVAiTlWqX5H09Ivo06cnDh8+ZDWBrIM2bJhftWTWUBLa3r17YNvHE+2WhFpNIKsH2NfJ274KJ1atwR0Rlrb6fbLy/CdOL43C2WKAEhqxcryJX3srasYkiccQqRN6L76FA9c+YFNEX4boJBIp2o09XE10QtKYoXRKaIZ7ZFOItQihAVrkX1qJqQtPIK9uPFIvbLSFWUhZNh79PZRVndgGErk9Og+eio1pOTom0kI3skaz/WXLfsOIEQENTmjWaBTiGOADh/7dq1WN4lWOKqRO7oDBszdiT0JtwyV9Qyad88Q47I1dhMCOThh38BPO/XWOeZH7+Q0W6s7NNl1wDK1qYrXUxR/B2+8jLv0p1q+YAo/24zD35Ecknv0bC5dtxtSZU9HVxQfBB99Ts/1m2xv4K24hQqu8YVlhPoqMSWGad0jdeRS55hpDA1Dx5ijCu3O+1CStYOfiji5dPdCOmEBLnTBk7VWwPmD5oalMoYQmhJD4dEpoXKxUSA2R10gUIlT0Or5Iq/LbDt6CuDRKaMmX/sLoTlK0+/UsEqrHy3KxbuZA9Jh9HQeq44i05ot+y59RQuN2Rys5tiihCWKkfooY3/YI2ptdOYlU8AKBDJoc7BpuX/mSkDlj4KxtOPfPtxorMfV35FzcgsneXTHtZL7g5GtyN0poApibkEwJjQsWITQl2ngNwZhgI8ZLfEZNbHzYZiTdfYKIiFnYsmUz9wZWdSwooV37gJhF/nDz36urTkxLxJC+C7C6et7ZR2yN8od3ZCZ1fWVVPaSyMaIJLTf3HTIyMvDmzRthGLRFuLtzKnw9XeBkJ4etIefATJwUcqLrlrfH6Oi/kV9P9WTFg9XoTcz2pW6YcOAFynhqqn69F2NHxyJHhGRICY0HxDpEU0LjgqbC8chZOPWdG0eP+RAQJjQyjnYPESMDMHbPa4709RbLJw3BiK2V/h0TUo9glJcjfFY85+ThWkkKH9MxNL6n1PjxognNlKpW3F+F3swaTyLnhDHqEwlc+kzEunPvTLmVTl7VyclwIJ4ABm7EU2PkqH2PvWNCcKRY53KDJ5TQDMJSp0hKaFzY1Hhx4xavf0ZuTqHjgoICRpPw8OEDoazNNl2Q0K48w8q5E9G9kzOUju5o38kT7lWhvZs9lM6d0N7dFbZ+OtpJAAAgAElEQVTkg1cxAL8eqvuaaJTQmm43Ek1op0+fwsyZ4UhNPSbYmrJz4XCVOSJgfTpefPyGwsJCw+HrXazzHYHtzwqq0ovwvaTOZl8ov7EInjIbOEz507gKs+IRNvgG4YAIDyXWSmj+/kMNGoW0aeMg+HzrmqGlEVrX7l3rCpXudZq3iNuUBL7VjqiVI/G2n4hBxNu+0Fik3AU9Zp7B3uoxNWGJTN/SkRKabvdsSmeiCc2UidUovoyF3l5YfINP6VcFARlD8xslygWVKNBUt7HcWwrFoE14bkhCU71CetwGRI3pBseO83BFoHrkntZKaEOG+NYitNWrV0GhkIqCui6ZWhKhOQ3rC4WdQjRMmrIfKCr4iq/5+iusf0LOlXUYFbwPfK5HKaERdeN9zBzSBra9IhG59QxW7jmHVZyweu9fWBN3DVtO190pMUtslNBEd+sGz2gZQgNQ9vIE1kVtwbWvPGtekKZq3uPPFetxXmf5jPphUHxjNQa5eCDsz496zly1+JQwqmqFYCl6rbxjXIqrqoa1ElpAwDAdQtu4cQPs7ZV0PTQTF/w0ZLbf5pdBkCok6OrVRaAzF+NB4lyM9HKCkllpmV/CUI7cSwlNQKpKPHEYv/jPQCTr8kogP0tQpu4poQl060ZMthihiWuTBu/iNiCZT5cirhC9XFoU3T+AyMBhmBqdhpwfNYRafH4OutrZw3tKHJ6IdCbSEgitksxsER4+nXrbryehsWTmMKSXoLf9/D+nwL2ayFpBrjCwsnqVQZVTUBxVORojqPQ0zFl7C4kXnmCbESksYe8WTNtdPymNEpreK7cJnVqe0DRl+FFUgK9f9VUp+fiUcxnrR01AHJ8upV5AlaPgxW08/qRryqjV1hCcmOKtndBYMps3by51TmwimXlsigRXQmPJzHnsEFHe9tOmOTLzIslY85tiQzpyMT2UegphJKwL+zFk4AqsOZ3Hb7145Q22rBiHjqOT6RiauK7V7HJZjNCKHxxA5EhPuChbGR+oFen1vrGQtWZCY8ls7tw5jPqRets33ds+S2hcMhPny7EcV+Z3gNw1DPVdYJ2OoRGjkH3oz1hWSyC3VUBZK8ghl1W9ixwCMetk3Z0XUwmtsd7GwvcVTWinTp3E9OlhOHbsqGCp2vzjCHWvITKpXAol31w0p0DEm1XlKFg9wAQPJVevXrE6b/vE9VXfvr1hb28LIpk1lC/HuLh9VudtnxCarVcHZsyMSGbiXV8BpXeWo7fLL0gUtLatQEF+Ifjsf//77z/873//g0ajq40Q8U9oNlkEzfarCY1/HLLGAlKBXksf04nVzebpi6+oaEITXySgSguFs6QVXALW4dKb4notjWHKfUXnNcFDyZo1qxgJc9q0UFhLGDx4IGSy1jpk1hDe9pXdPUC80zsG9LOaoOjYFhJZK3DJTJyERnprKZ7sGYfANbdgdP3OigeIXhzPaxQiut8344xiCG1QzwhEJWVh+8kn2FErPMbGVdPgMyEOG088wZ4LdB5aM+4OvFUXTWh5ebm4efMG3r4V9hRSfmUeOsrbYHp9dSm81eZJsICHkq1bt6BHDy9ERMy0mkA87ZMVBFjJjN1bWuVo368blF4d4DRqoNUEZZd2sOvRqVoyEy+hqfHmSjKSknZh8UgfBK+Pq7WyOpnmkJQUhx2/jUTXQH4rx2vXrqJzZw+EhATz/DGaf7QwoR1E8OyLHD+OhuaXvcTSib3RPSIdccYMTATSqMqx6fYn0YRm0jy00ttY2dsJQYlfBP0lVhTko5BPl2IibpbwUHLwYBLGjRuDy5cvW00gKke+idWWXODTcVhfOP3iC2JMYS2BHUNjiYzdO4/1E7ByrMDdZd0gF5oIXJVOzfbz+Y09GAJ6h/3nhT3oJ+yeg3b2vphCPYWY+HZtHtktQ2hEmfJkNyYErsJt47oUPIxeiAQzWTlawkMJJTTzdWRKaLpYqp9uwiClFK7efgiaOBEhv/Ksrj45BGEb08E3XZMahRCjkHgEhaUJSGifEbc1HK5SKbwXPaJjaLrd0SrOLEJo6jeXkZKUiN2Lh6N/8DrEM6qT2ms+xe9YgsCuI83nKcQCHkoooZmvn1NC08NSk4f4ybNQ3wXWKaFVWjkO6DgKE1elYNHmP2qHTQmYFTkPfTqQpaUU8FnxVEDiM6SyrIyjKke9ftyETi1CaBV3f0N34gRUjDrFzGb75vZQQgnNfL2VEpo+llp8v5eB6gXWifOcshKUVpg2V5ISGtdsX/i9I+8UjkWnqdm+fm+0hnOLEBrU2YgZJIPC1Qv+QeMxKcTIek9hvyOdT5diDoQ1ZSgprRAcy+O7FSU0PmRMj6eEZhizH89PYuP0YfBup6haYV0CR4/eCIyIRtoLozp7psCWQGiptwTG0IjZvlIKe/ce6NLTB546oR88ew2Et+84BMzch7Wn627hSCZx/9/P/xl+kDS20RGwDKFBg7z4EMyury6lrvD8eIZTG8MQ4O0KO1nlF5vc0R19A2chJu25cRNpvXtSQtMDpB6nlND0wdPi07kF6OdUM2dT4dIR/fxHIsDbHV379oC7W18sPPdJzy+pbjl5eXmMheS5c2d1E6zo7MSdr8ZVhBf2Y9iI3dhxhV9VaKrPRr78P0rr7tXFih5Jk2yKaEIjEzdVKhUzgVNMS7Tf7yGDq0sRc5EZ8mg/ncXCfvaQsupOhRO69PNDYIAXPLr2Ri93F/RbeBZ6HrF479ySCI2seEytHE2zwOSzciSeQ3r368Pbr0iCJi8JE1wryUzWdhCiUjLxpZykqJEdE4KVt8pR8uIgwgaOR1Ku9U6aNgpSVeLf2UXGCe3SNSzd/qDOhh585KUff+TGF2i0/4mpMs3TCAiIJjRT6lZ+IwVHcoS+Yspx50ACspg/sCmlG8mrycPBCc6VZCZzxuCoZGRWviGgzt6EyStvorzkOVLC+mFi0jujX73sXVoKoe3Zsxuenl2wfv1atulm37cUCc01ZDgcXZ1wMOWgEQzVeB4zAAry4eU0BNH3f3Ly1hAaoEVB6hSM2PiI10HBq1evEBMTjcOHD3HKsK7DL0XlxglNYO6YPjHV9fz+a2EVsHUh37xaI5rQdu3aCS+vrti8OUawharUMIyKeQSOo/va15Tn4dBkH0Smi3R7X7uEWjHq59HwZfy52WNodBZ0XhEsoQHQFhxF6Ijf8ViIcwG0BEJjyYzMNbTk1hIIjSWz5IPJAlCqcCrUHhJJa3gtydBbyohLaID68Xr4Bh9EEU+JLWEMjTT9wsPCRiU1Ip2VlLVsSZmnCzaZaNGEZsrEalVqMGwlNpArlcwaW2SdLd2ggIIZ22oF16nHeefXmIqS6tQUOElsIPNahBsq3aurJTQSrX6E330nIIXvDcG51NoJraHIjEBq7YQmnswIGmW4ONsVUokSk4/rf9RxCU2D3P0j4TomCQU8xo8thdAq1Fr89aCgUUiNkBk11+e8GJvooUUJTZTZvtMEHCk0DzplF2ehndQG9pNTUesVwZHQNLl7Eeg6Gsl8bwhOdayZ0BqSzAik1kxoppEZQUOLr0cmwkUqR1DSVz0rXEJoExGZehfp8XMwwFkKr99ugk8731IIjaD2P7UWD9/+i6M3BawezaSCTPn7M248+47iEmrZyHktNtlDCxFaCLpN2IorT/PwpdaS8vnIz7mEnZFTEJV4B3n5RVDxfHmaipr26x+Y5NIKtkGJ0F8om0hokyKPIjM9DvMGOELhtQS3+N4QnBtbK6ENGeLLjJlZWs3IgdJqCc2uV2dmzExYzchFgwhpj7EtwAnOgfvwTkeTpUb2Jp/K8TUyxubgi9hsfv9wLYnQWASJYcbnonK8+6rC23zLhA+FZSir0Hkw7O3pvokiYBlCO7Ecq4XYQvMecUGdMTbuKe+Xp+mYleHJtqFwcR6JON03BNTZG6rWSyJm/LYYEpvNuxwH976E0Dw9O2PTpk1WE4KDJ8DBwRYNSWYEUyKhKbt1gOu00VYTbL07QWmngMlkVtXJtMUPcGDGQPjNTsLDQvblWUNoMuc+mHf8jdG+2hIJjfsfpccUARYBixAa1OUoF5C6NHkpCG7fClLXqThlTsMh7Xc8PDAdvn6zcPBhYbUlYzWhyRzhMy8Vb/g/eFlsmD1ZD23s2CAEB4+3mjB27GisXr1Kp50NcULW0rM2LEePDsTefbvrCZ8aRS+u4OztD1X9VYtvd4/iwNF0PP0mbLl069ZN+PoOwJw5EfWsB72cItC8ERBNaPfu3UNc3H7cuXPbDC3WIj9hFJQSG0jbhuKMOQmtqnbqoue4evYWPlR99Gq/3UHqgSNIf/qN1/zZDA2jRVAEKAIUAYpAIyEgmtDqXT89F1Ta7/fxR8wGHLj5pVqKqvc99ArQqgrx/tVz5Lz7gh8iJTK9IugpRaDJI1BWVoYvXz6jsNBM1lVNvsW0ghQBwwiIJjSi1ti+fSuuX//bcEmGYs3ogspQ8XxxqldnsGGyD9ztOC6FnDvDf2YMzr3Ut3/kK4XGUwSaBwJ0DK15PCdaS8sjIJrQTJmHRqptbhdUYqH4mRWLEW1b83r6lzr1xOxjr8xoiCK2Zibk035Gwmgl7AL3wUxLxZlwc+vKqv0Sj9F2SgTGfdQzjbeedlJCs55nSVtSPwQsQ2gWcEElqpll97C2j4whM1nbfpi+MQnn72Tj9fuP+PDuKTIvJmNDmA9c7Xpg6fViUUU2TqYSPDoei22pD0xypNw4dW3idy15iOPbYpH60AIDtU2k6ZTQmsiDoNVodAQsQmiWcEElBqnym4vgKbOBots0pL7jm2SmwouEcfActQct3N+rGEhpnmaAACW0ZvCQaBUbBAGLEJolXFCJQUN14lfYy9wQnibg00r9GBv8fsWxpiykiWkwzUMRAEAJjXYDikAlAhYhNEu4oBLzwCqyVqGX3QjsFxp40rzG9hFjkajnTkSrKkWZmBtZOg8dQzMbwnQMzWxQ0oIoAk0eAdGEFhe3Dz4+fbBz53bBRlnCBZXgTUkGzUvs/aUXItO5fvZrX1l8azn691mOTB1Tfg1y987F72Zdz6b2vcXF0DE0cTiJyNUCxtB+/PiB7OxsvH37RgQgNAtFwHoREE1opkFgfhdUYu6v+fIQ6QfnY8jgOUg6fxHp6Xrhr1TErQlBH2clfBYk4wKbfuEc0o7HY2WgOzrOSgPVRIpBm+ahCFAEKAJNCwHRhFZaWoqCggKUlIicx2VmF1RiYCu/vgCdmWVpiL/GOgbHUUh4z/rUE3NXmoci0LgIZGVlYdy4MVixYnnjVoTenSLQyAiIJjRT56Gx7WpQF1QVWVjbWwKJ0hmefXzg6zsIxKu8ScHPHysuGldZsm2je4pAU0CAGoU0hadA69AUELA4oTVsIzV4vWsMwo42cxdA1CjEbN2GGoWYDUpaEEWgySNgEUKruL8TU0ePRGDgKIyeMB3r0t5U+Wv8gexjKxEWFICR48Ox/ni22ScOa79dxblbzX0UjBqFmO2f0wKMQqiEZrbeQgtq5ghYhNC0H/ZghFKKzhNjkfGRneCswfujIfBgxriU6DhoOIb16IzR+180W+/3+/fvw9Kli60mLFoUhZkzZ+B//2vY1XnVajWiN0dj4ZKFVhPmL5yPGTNngLTN0hslNEsjTMtvLghYhNCIxw7vAatxr5QDw/e/MLsj8bGoxIBVN/CdrJdWfBWLAxfhOst5nOxN/XDlyuXw9u6OZct+s4qwZMlidOvWhTGmUalUDQY/eeGHTAlB+z7d0S1snFUEzylBcPJwY7AknvAtvVFCszTCtPzmgoBFCE11OhxB219xloVRI2f7ENhJbCDzjMSVard6KpyJ+BVJehOcmzp4hMx69+6Jq1evgqwT19zDrVu34O8/FH5+g6FUytBQhMaSmceAXhiWEIOA5NhmH4bFR8PdxxvOPbtAJm+NhiC0Z8+eYsmSRdizp74LjTb1fx6tH0XAOAKiCe3z50949OghPn78aLxEAKozM/Brwudq7+barycwzaNSOhu2I6eG6DR52BcyC2lcSU6w9MbNYM1klpiYCFtbeYMQmrWTmdvMsZArJA1CaI37j6B3pwg0HQREE5opVda83omggFW48U0DzfcH2B/cATIinXmEI62Q6BrJVoG8UzPRO2h/s1kixdrJLDk5uUEIrSWQWbtZ4xqM0PLzvyAt7Qxu3rxR9d+iO4pAy0RANKGlph5FcPAEpKQcFEZKW4gL87pAoVDCTlE1wVnWHiGHc6GBFsVZSVgyoQdciGf8viuRKXKutvCNLZejJZBZQxBaSyGzhiQ0OoZmuf89Lbl5ISCa0EyeWK3KwYmV4zHIywNe/UZj8R//gJ2urFEVo6iwkFkyvrDoB8pYoa2JYjd79ix06uSBjRs3YPv2bVYR/Px8mTEzomYkRMYGS6ocCZmNCBwBV08P9Jwfhl5R060iEIMWMmZG1IyEyNjQUCpHSmhN9MVBq9XgCFiO0Bq8KZa5YUVFBWOtRryNDBvmZxWhf38fdO7sAX0ys7SE9urVK0iVUtj37Az7Xl2sIth6uqONu2stMqMSmmX+j7RUioAxBCihGUOHjPRVVEAul+Dy5ctWE/bu3ctMOWClMu7ekhIaITR5W0d4bIq0muA2dyLadulQLZWx0hklNIE/Fk2mCFgAAUpoAqBSQhMAyIRkSmgmgGVCVqpyNAEsmtWqEaCEJvB4KaEJAGRCMiU0E8AyIevFixdgZ6fAyJHDTbiKZqUIWB8CogmNfAVGRc3H6dOnrA8FIy2ihGYEHBOTKKGZCBjNThGgCJiEgGhCM6lUK8pMCc18D5MSmvmwpCVRBCgCtREQTWgvX74EUW28ePG8dilWHEMJzXwPlxKa+bDklnTpUjqcnR0RFBTIjabHFIEWh4BoQjN5HpqVQEkJzXwPkhKa+bDklkSNQrho0OOWjAAlNIGn35IIbePGjZDJWqO83DLLH7QkQnOZOAxSaStm2odAF6t3MiW0ekNIC7ASBCihCTzIlkJohMzatnVmfAIKQFLn5JZCaITMHJwdcPZsWp2xMuVCSmimoEXzWjMClNAEnm5LILSGIDMCc0sgtIYmM4IrJTSBPzFNbjEIUEITeNTWTmgNRWYEZmsntMYgM4IrJTSBPzFNbjEIiCa09evXMWMCZIXmlrRZM6E1JJmRPmPNhNZYZEZwJWsV/vnncVy7drUl/TVpWykCtRAQTWi1rmwhEdZKaF27drL4mJl+F7FWQnPu0LZBx8z0caXnFAGKQCUClNAEegIhNInExiq87LOrBRBv+0qlzKIGIIZgJYRGsLTt2dlqgqJreygU0gYzADGEK5kbumrVCsTHxxlKpnEUgRaDgGhCi43dAjc3FxDVY0va/vvvP5w7d9bqwqNHDxv8MZaUlFgdjqRvPH78qMGx5N6QjqFx0aDHLRkB0YTWUidWt6jOUVGOihbVYOtoLCU063iOtBX1R4ASmjEMVbnISNmEpbNDERoWjgVrduL0o29QG7um2aRp8f3peSRvX4uF4eMQ4NMRbfssx13KaM3mCbIVpYTGIkH3LR0BSmg8PaAs5xBm9LRlxnzIuE91kDlj8G9n8d4KWE317QPe595BtL8SEklrdJx/GWU8eJg7Wl1SgE8fv+B7mdbcRTdyeVqovr3G/SsncTDhL+Q0QD+hhNbIj5zevskgQAnN0KMouYEVveVQdvDF9JWbsT8xATvXTIVvO2kVsSkxYN0dlBi6ttnFFeHQBCUkUhfMSPtp4dprUZC5H5EjuqCNvOojQemM3mOX4I8nxWju1Fb84Ci2rJiKAa6tmH5iFxiHjw3QKEpoFu62tPhmgwAltFqPSov38YHwDNqO+8W6b6OK3OOY4VVFao6/ILEh3la16mfmiB9nEO7WCpI2wThWZOaydYrTovDKEvjY20AiU8K1U2d0dJFVS77SNv2x8lphsyc1oAyXIttDKpFi6PbX0OhgYJmTzMy7GDVqBBYvXmiZG9BSKQLNBAHRhPbkyWMcPXoEDx8+aCZNq2M1tV+QPD0UR7/okhlbWtGZaeggJdKFI8LOqNjoZrtXpc+Bh9QGdkEJ4GmyedpWmoGl3i7wjUzE3fyqgTr1N2QdmIaedpXSmqzrPFz+YZ7bNVopmrfY6S+FROGDjf80gL6x0RpKb0wRaHoIiCa0pld1C9VI+xmZt3PA62/+RyomO5EXsAIhqc1d6ViOW0u7QCaRwX/nG4tKEz/PRSBg8RUU1fpOUOPl3pFoQ8Yppc4IT2vemGo/xiHQzgbyHssazMCGTIcg6xW+f//eQn8KWixFoHkgIJrQiFuddevWIj09vXm0zFK1LEvHvA6tIJF7YUUmv0mg5ucnPL//HF+rX+BqFDy7jmv/fOMljtKnKYhJegjjI1laFN3Zi83HX9WhhWXIf5qBixeu4p/8cqDiAdb1kTDSRHS2JaUJNZ4nxuJ0fjUYunX/eRrTmXEnGUbsfd+M1Y5aFBweDydJa3RacKXBDGzoGJpud6JnLRcB0YRG56FVdhLttySMtbOBrNsi3NAxCdTgU8YBxKyYhhHebnCQ20A5bDvekEEUzRdcWuOHdnIbSN1m4rzOdWznU+Nl0nh4KNphzN7HPAYnWhTf3YQAVzm6zfiTvVDEXovCrHhE+nmgi+8EzIqYBF/vIVh7cBV8FTaQey+HEW4WUX49s6izsak/GZu0RUhqcT0L07u8NBevP/J/eLC5S/PeQEQ2NjvPvhinwtpAKnXFzHPGP0t4CqhTNCW0OsFGL7JCBCihmfhQi09NRVupLQJ2veSRtH7i7ExXxiig/6ZsqLVfkb50ELq0t4dMYgNZ5wW4zqvPLMHjPb/AXeGOifHZ0B+h+5EVi1FuMnSenIwc3jL0G1SCfxIno7uDG4K2ZVar/MqfxWCIXWtIJa3ROervBpMm9GvHnFfcxYoeEkjs/LE7V9eM4mdeFtJT4xG7eh7CxgzBoFlHUCno/cSzIwswvFt79F9xnecDoAyZq3vCwSsUx97wk1pp9j5M8LCH/84cg9UzGKn9juw/1yMsoCe6e3VDn8ClOPPiHOYQ6d05BKnfDV5lkUhKaBaBlRbaDBGghGbKQ9PkISHIAbZ9VuAO31CP9gsSfpFXqSR/4kVcGMJ2P0Lxu30IdLKD76YsAfL4iQc7RqKd0gMhyc+r8/58uAOj20vhMSEOz/SZjrcN5XieMBYecgX6rboJHXuL8quI6tQaEqkrZp3jawxvwWZN0OTtRoCyFdr+ypIVW7wWhTmZyLybhmUDiQTHWg4WI2vrSLjJKo1JbMckoYBHm4niTGwe4Qw7r+lIfVeb1FTPEhDcUY6OwfGicdUW3sXO4C5w7TMDSfcLoIEan9IXwLezO1ylNrAfk1RFumw7LLunhGZZfGnpzQcBSmgmPKvv6XPh6dAXq2/pUINuCcV/ItSlFWSdInHxXizCFqZVv9zKS0tFehkpRubmALRVdsSUQy/x/ckejO0gRfvRO/HIBO4pubMK/exawc53Ix7pqzmLjyLE0abBpQldsMiZGs83D4St3QBEP+YRO7UfsG+krMpysAx5xyIQsuIELkUPg53UHoFxb3mk5cq7aYvvIDrAGXY9ZuJEXs1YoepFIiZ1kqPD2D34p7R2zQzFaL9dwUpfByi8ZuLMR440qf4HG/sR0pUhYE+u0foYKrc+cZTQ6oMevdaaEKCEJvJpaovSEeXthsDd2dVSk6FLSy/Mgru0FdqFRWPT7HW4UdchIW0R7kT7wVXpjPauUrQdsRn3TCmr4hGiBykgkXtiUUZtFvx5fhYz/aChpQl9zLTfTmG6hx0G/X4PvJxSfBxTXCotB2883oXw+X+C4ZLSd7h79RG+cnhFv3z2XFt0ExuGOsHOOwKn8tQoy0nG5M4ytPtlOx6KHe5Sv8KBsa6QKXth+U29h0HUpt7EwGYANr+oIU32/pbcU0KzJLq07OaEgGhCS05OQkDAUMTF7WtO7TNPXTV5SA3thr4LL3KsFg0VXY6MRZ0gk9hhYOA0/J5hRJIzdLleXOmTWAx3bsV48RiX8Ip/KoHedYAWBSemoh2ZXxaws9IwhZtH+wV/BLeBlEgTu981qDTBrQa0BbgwzxPtA/fgGY9wRvKXnJ+J9tLW6DR3D2LnrsG12rb/OsXynWgLM7BuiBPse/hjWGeZiR8JGrw78AtcpK3RNTIdenQGzbsd8FfaQN57NR7U1mzyVcks8SqVCnl5ucjP/2KW8mghFIHmioBoQmuuDax/vYtxZ/1g9JycgtdCL6qKLKzuKWHUTt2j0lEfu4CyFwcQ3FGKdoHrEbfCFy52nphx/J04laX2M5LH2kEikWPkvtpm8CW3lsJbYQOJoj9injesNFHzPDTIO/YrvPrMx0U+c34mcxmuR3lAJnVGQPAs/J6hTyU1JYo5Kr2zHL1I2+18sdWUtv9IR2SX1pDYDcOu1/oioRrZ0f2gkLSG55IMEz48xNSY5qEIUATEIiCa0L5/L0Ju7jsUFVnUP5LYejdQPhWexo1F78CteFhba1erDupnmzCIvCwdRyEuT/+lVys7b0T568MI7UokiBhkkve3tgDXVw+As113zEv7ICxR/TyJMBcbxjBl1T09Fi65hw0BrnCQ2kDeaxWy9JJ5K2XmhOK76zGsVwhSXglUoCITK4kqT2KLPr9driUZmVKt8lcpmNJFjnYj5yLC1wkOfRbg/Bcxz0mLgmOT4EIk3tEJ+KRngKLNP44wdyJJt8fcdF7FqSlVNSnvnTu34e/vh6io+SZdRzNTBKwNAdGE1vLmoZXj5aHJ6DNkJTIK9d5gVb1A+zULd3NYk0MN3u0aCqWkFVynpILnEsH+o847jpndFXD134g73zn31X7FlWX90MahNxZe+GyU1DQvYzGEkcD8sJNrBq8txJVl4zEtdCDsJK3RZdH1RpEmyl7EI7jPKOwQ8ZWgzt6A/gobSF3GIaUevjMr3h1DuJcCbraJzCMAAAeeSURBVKNikfWDfCP8jTW+TnDqtxjpRiVE8shKkDadqGilGBCdrSslawtxcWEP2EttIHWdilP1EyAF+4ehDHQMzRAqNK4lIkAJzeBTL8fLw1PRe8B8nH1fhoqKCk4oR2nxF+RkJCHK/xfEsgYA2s9IDCJe610Rnla3t5rmYxoieynhMnQ9bhkaJ9LmI31JXzg6+WDZ5a8Ga04iqwlN3g3L7rCDUyV4vHsSxm84j7gJtsy43MxzJVC/P4mNu2/xzOPivUWdEype/4EwnyFYm1Fk2CNI6Vs8e8NaaWjwescQKCWt4THngoAHFf4qqfNOIsJbCbeRW3QMayotFh3RZtByXP3G+XjQL0rzAlt8iQWjHGNTCjmpGnz4cw5+DRmFjjIbOE48xD99gHOVuQ8poZkbUVpec0WAElqtJ1eKZ4mT0JlIONx10Awc6xhcFB1FSBsiSUzByTrxWQWe7hqOLkNW80qETFU1n3E+qi88g5Nr1bw6ouwy5ndsDYmkFZwHzcX+1EOIjRiEgeFHkVvyN6I6t4ZE3gNRh5OxaPJSnBeUUKpLrtdB+esjCO83CEvT8w2QWQWKci4iNmQkVt2uImHtR8QHKiCRdUTUNVYSNq0K5CNhfm9btB0ejUy91RNISdqvl7F8kANcBq/hx139FDGDKufBDY7NqZKOtSi69TuCw/bi2DIvyCUyZrxS/f0m9u67Ui/VqGktBCihmYoYzW+tCFBC03myWhSmhaMju1aXARKrITlbjE74UP1i/pk2DW7MGEt8PbzWl6OMFah06qV3oi1HudGhJzVeHwqpIWVFW/gtPY1cUnZ5FaERsus3DydzjRakd+O6n6peJGOqpxQSuRz29spawVZRuYaYvM9aPKyqkrbgEIKdbCDrOBdX9OfRiapKGe5vHIBOARtx1wCZsUVo89OxbKAHguL4/GOW4K+ItpASTy8egdhw7AyObQ7F4IDfcDk/D3tHyBjJPDT+DKLD5+DQ64Y1tKGExj5Jum/pCFBCs9oeoEb+47P4IyUVV3O46j0N8jOP49CpO3hfJ5IwHTBt4RlEdCSGHUJSrxS+m59Xj1ERN2PE84bz5NR6SDxlUIlpZ5nK6PzC8uf7Mc6DbYMSXcZuRAbxPK15h90Bleu62XtNxoHshjcKoYRmep+kV1gnApTQrPO50lZZAIHyL/dx9ugRpN3N1Rlz/JlzEcdOXMfr+k07rHONc3JysH79OpC5onSjCLRkBEQTWmFhIV69eoWCgoKWjBdtO0WAIkARoAg0UQREE1oTrT+tFkWgxSPw8eNHHDnyBy5dauFrFbb4nkABEE1oKSnJ1WMgU6dOBjesWrWCQfLff//ViefmeffuLZNn584dBvOw6pInT54YTCdlsduCBZEG82RkXGeynDlz2mA6mUtHNjJJnFs37jG76u+2bbEG8xw6lMKU8eDBfYPp06aFMunkZ+7c2Qbz3Lp1k8lz4sSfBtM3bFjPpBNpmFs37vHnz5+YPJs3xxjMc/ToESY9MzPTYPqsWTOYdPITETHTYJ7MzLtMntTUowbTY2I2MenE5RK3btzjr18rpxds3Pi7wTzHj6cyZdy+fctg+pw5EUw6+Zk+PcxgHvIsyPbHH4cNpsfGbmHSyYufWzfu8f/93/8xecgittx49vjUqZNMekZGhsH0+fPnMenkJzR0isE8T548ZvIcPJhkMH3Hjm1MOnFjxd5Xf19cXGlCu3r1yuo8UmmlQY2f3+DqOtADikBLREA0oZE/Y/fu3apJjTvA369fXwY78gLmxnOPHz58wOSZNGmiwTzsC4F8ZXKv4x7/999/TBkeHu0N5iGkS7bo6I0G0319BzLphAy45XKPs7OzmTzjxo0xmGfx4oVM+rlzZw2my+USJp38tG3rbDAPSzbk5cm9N3tMvD6QjbzY2Dj9PRk3Idsvv4wymGf58mVMOnkR619Lzh0cbJl08uPkZG8wDyFcsq1cudxg+qhRI5h0ooo2dA8Sx37IBAQMM5hn7drVTBmENA2V4erahkknP0plpfGFfr6zZ9OYPEuXLjZYxpgxo5n0Z8+eGkwn5RGyI9uQIb4G8xBCJhv5oNG/Pzl3d3dj0smPoXQSl55+kclDPsgM5QkOHs+kP378yGA6uYb9QBgwwKdWHkpo1Y+AHrRQBEQTGsGHkFpCQnytwH69lpWpaqWx+dmxt8uXLxnMc/PmDeYRfPjwwWA6KYfdiHqFLZe7z8l5wWQh5MmNZ4/T0s4w6aWlpQbTST72S528fNjruHviZohshGy48exxUlIik05+Dh8+ZDAPIQCy3b+fZTCdfUETiZctV39fXFzpKfLChfMG87DS1du3bwyms+RP6kGO9csn5+RashEpz1D6+fN/MelEajCUTuJ+/Ki0lCAfAIbyZGVlMWW8fv3aYDorEZNMBFtDZRCXbGQjz8ZQ+sWLF5h04rbNUDqJKymp9G1G+oihPKwUSD4kDKWTPsluBw4kGMzDSv9EQjdUBqsyJOPVhtJJHHFETLbTp0/VysP2b7YedE8RaGkImERoLQ0c2l6KAEWAIkARaD4IUEJrPs+K1pQiQBGgCFAEjCBACc0IODSJIkARoAhQBJoPAv8PO8+ZuhEr/OAAAAAASUVORK5CYII=;" vertex="1" parent="1">
          <mxGeometry x="690" y="277" width="206.02" height="215" as="geometry" />
        </mxCell>
        <mxCell id="-_NfIEieIwhwRVeMkYYe-22" value="" style="edgeStyle=orthogonalEdgeStyle;rounded=0;orthogonalLoop=1;jettySize=auto;html=1;" edge="1" parent="1" source="-_NfIEieIwhwRVeMkYYe-20" target="-_NfIEieIwhwRVeMkYYe-18">
          <mxGeometry relative="1" as="geometry" />
        </mxCell>
        <mxCell id="-_NfIEieIwhwRVeMkYYe-20" value="mutual reconstruction" style="rounded=1;whiteSpace=wrap;html=1;fillColor=#dae8fc;strokeColor=#6c8ebf;" vertex="1" parent="1">
          <mxGeometry x="530" y="364.5" width="121.82" height="40" as="geometry" />
        </mxCell>
        <mxCell id="-_NfIEieIwhwRVeMkYYe-21" value="" style="endArrow=classic;html=1;rounded=0;entryX=0;entryY=0.5;entryDx=0;entryDy=0;" edge="1" parent="1" target="-_NfIEieIwhwRVeMkYYe-20">
          <mxGeometry width="50" height="50" relative="1" as="geometry">
            <mxPoint x="500" y="385" as="sourcePoint" />
            <mxPoint x="548.1800000000001" y="344.5" as="targetPoint" />
          </mxGeometry>
        </mxCell>
      </root>
    </mxGraphModel>
  </diagram>
</mxfile>
